<svg xmlns="http://www.w3.org/2000/svg" xmlns:xlink="http://www.w3.org/1999/xlink" width="154.844" height="185.96" viewBox="0 0 154.844 185.96">
    <path id="Angola" d="M576.58,329.882l-6.681-.041-.765.282-.684-.041-.926.362-.2.483,1.127,1.61.443,1.73.644,2.455-.684,1.046-.121.523.523,1.53.6,1.57.644.886.121,1.449-.282,1.932-.725,1.127-1.328,1.691-.523,1.046L567,351.817l-.121,1.087-.805,2.375-.362,2.214.2,1.61L567,358.62l1.328-.4,1.449.041,1.288,1.167.362-.161,9.057-.121,1.489,1.207,5.394.362,4.146-1.007L590.1,358.1,588.656,356l.322-8.171,4.669.041-.2-.885.362-.966-.362-1.207.282-1.207-.2-.805-1.047-.161-1.409.4-.966-.08-.564.241.2-3.059-.764-.926-.121-1.61.362-1.53-.483-.966V333.5H586l.2-.926h-1.167l-.121.443-1.368.121-.6,1.489-.362.644-1.207-.362-.765.362-1.489.2-.845-1.328-.523-.845-.644-1.53Zm-8.775-.523.08-1.087.362-.684.805-.523-.805-.885-.725.443-.885,1.087.564,1.932Z" transform="translate(-500.225 -219.076)" fill="#f2f2f2" stroke="#000" stroke-linejoin="round" stroke-width="0.543" fill-rule="evenodd"/>
    <path id="Burundi" d="M622.591,320.124l-.121-1.007h0l-1.207-.161-.684,1.449-1.409-.2.564,1.167.041.443.8,2.455-.041.121.241-.041.845-.926.886-1.328.564-.564v-.805l-.483-.6Z" transform="translate(-514.077 -217.205)" fill="#f2f2f2" stroke="#000" stroke-linejoin="round" stroke-width="0.543" fill-rule="evenodd"/>
    <path id="Benin" d="M539.352,270.03l-1.731-1.489h-.805l-.764.764-.483.764-1.087.241L534,271.438l-.765.282-.282,1.328.684.765.8.926.081,1.248.443.523-.081,5.877.564,1.771,1.852-.322.121-4.106-.04-1.65.4-1.61.684-.764,1.087-1.61-.241-.684.443-1.007-.483-1.53.08-.845Z" transform="translate(-491.736 -204.141)" fill="#f2f2f2" stroke="#000" stroke-linejoin="round" stroke-width="0.543" fill-rule="evenodd"/>
    <path id="Burkina_Faso" d="M527.154,259.082H525.7l-.564-.483-1.207.362-2.093,1.046-.443.805-1.73,1.167-.322.644-.926.523-1.087-.362-.644.644-.322,1.771-1.812,2.093.081.886-.644,1.087.161,1.489,1.007.564.4.845,1.007.523.765-.644,1.087-.08,1.53.644-.322-1.929.081-1.449,3.9-.121.966.2.725-.4,1.047.2,1.972.041.765-.282.483-1.127,1.087-.241.483-.764.04-1.771L528.6,264.4l-.08-1.248-1.248-1.65-.322-1.167.2-1.248Z" transform="translate(-486.823 -201.565)" fill="#f2f2f2" stroke="#000" stroke-linejoin="round" stroke-width="0.543" fill-rule="evenodd"/>
    <path id="Botswana" d="M602.3,372.073l-.4-.2-1.288.6h-.644l-1.489,1.007-.8-1.046-3.462.886-1.65.08-.362,9.137-2.173.08-.241,7.447.564.4,1.207,2.455-.282,1.53.443.926,1.61-.282,1.127-1.127,1.087-.765.6-1.248,1.087-.6.926.322,1.007.725,1.771.121,1.449-.6.241-.805.483-1.207,1.207-.2.684-.966.805-1.73,2.093-1.892,3.22-1.892-1.368-1.167-1.691-.362-.6-1.65.041-.886-.926-.282-2.415-2.817-.644-1.489-.443-.443Z" transform="translate(-506.462 -230.916)" fill="#f2f2f2" stroke="#000" stroke-linejoin="round" stroke-width="0.543" fill-rule="evenodd"/>
    <path id="Central_African_Rep." d="M595.887,278.784l-.2-.121-.805-.725-.121-.805.322-1.046V275.04l-1.328-1.61-.282-1.087-1.409.443-1.127,1.007-1.61,2.817-2.092,1.171-2.173-.161-.644.241.241.926-1.167.886-.926,1.007-2.858.966-.564-.564L578.78,281l-.4.684-1.892.161-1.087,2.616-.564.443-.161,2.012.241,1.087-.161.765L575.8,290.1l.2.926.845,1.288,1.046.845.121,1.167.241.725,1.167-2.375,1.328-1.369,1.53.443,1.449.161.2-1.811.885-1.288,1.207-.805,1.851.845,1.449.966,1.65.241,1.691.483.644-1.53.322-.2,1.046.241,2.5-1.248.886.523.725-.081.362-.6.805-.241,1.73.282,1.449.041.725-.241-.362-.845-1.691-1.007-.6-1.53-.966-1.087-1.53-1.369-.041-.805-1.248-1.046-1.53-1.007Z" transform="translate(-502.547 -205.126)" fill="#f2f2f2" stroke="#000" stroke-linejoin="round" stroke-width="0.543" fill-rule="evenodd"/>
    <path id="Côte_d_Ivoire" d="M511.675,274.86l-.926.362-.523.322-.362-1.087-.644.282-.4-.041-.4.765-1.73-.041-.644-.4-.282.241-.443.2-.2.886.523,1.046.523,2.053-.8.322-.241.362.161.483-.121,1.127h-.362l-.121.725.241,1.248-.483,1.127.644.725.724.161.926,1.087.081,1.007-.2.322-.2,2.093.443.08,2.254-.966,1.57-.725,2.657-.443,1.449-.041,1.57.523,1.046-.041.08-1.007L516.5,285.4l.6-2.9.926-2.133-.564-3.663-1.53-.644-1.087.08-.765.644-1.007-.523-.4-.845-1.007-.564Z" transform="translate(-484.345 -205.674)" fill="#f2f2f2" stroke="#000" stroke-linejoin="round" stroke-width="0.543" fill-rule="evenodd"/>
    <path id="Cameroon" d="M570.9,271.435l.08-1.73-.2-1.691-.885-1.65-.644.161-.081.805.926,1.046-.241.443-.121.845-1.851,2.012-.6,1.61L567,274.615l-.483.564-.443,1.811-1.207,1.046-.322,1.3-.483,1.046-.2,1.046-1.57.886L561,281.263l-.845.041-1.328,1.489-.644.041-1.087,2.455-.564,1.812v.725l.564.362.443,1.127,1.046.443.886,1.691-.322,2.012,3.7.08,1.047-.161,1.368.322,1.369-.322.282.121,2.858.121,1.812.684,1.812.6.161-1.409-.241-.725-.121-1.167-1.046-.845-.845-1.288-.2-.926-1.046-1.328.161-.765-.241-1.087.161-2.012.564-.443,1.087-2.616.362-.684-.725-1.771L571.1,276.8l-1.007-.443-1.328-1.489.483-1.207,1.007.241.644-.161,1.248.041-1.248-2.335Z" transform="translate(-497.846 -203.577)" fill="#f2f2f2" stroke="#000" stroke-linejoin="round" stroke-width="0.543" fill-rule="evenodd"/>
    <path id="Dem._Rep._Congo" d="M599.881,292.944l-1.73-.282-.805.241-.362.6-.725.08-.885-.523-2.5,1.248-1.046-.241-.322.2-.644,1.53-1.691-.483-1.65-.241-1.449-.966-1.851-.845-1.207.805-.886,1.288-.2,1.811-.121,1.53-.644,1.369-.443,1.61-.282,2.254.121,1.449-.362.885-.08.966-.241.805-1.489,1.248-1.046,1.288-1.007,2.5.08,2.133-.564.805-1.328,1.248-1.369,1.61-.8-.443-.161-.725-1.248-.041-.764.966-.6-.241-.805.523-.362.684-.08,1.087-.6.282.322.805.926-.362.684.041.765-.282,6.681.041.523,1.892.644,1.53.523.845.845,1.328,1.489-.2.764-.362,1.207.362.362-.644.6-1.489,1.369-.121.121-.443h1.167l-.2.926h2.737v1.61l.483.966-.362,1.53.121,1.61.764.926-.2,3.059.564-.241.966.08,1.409-.4,1.047.161.765.041.121.805,1.046-.041,1.409.241.725,1.127,1.812.362,1.368-.805.483,1.369,1.731.322.805,1.127.845,1.409h1.73l-.121-2.778-.6.483-1.57-1.007-.564-.443.322-2.576.483-3.019-.483-1.127.644-1.65.644-.282,3.019-.443.4.121.08-.443-.6-.684-.282-1.409-1.368-1.409-.725-1.811.4-1.087-.6-1.449.443-4.106.041.041-.041-.443-.564-1.167.241-1.409.322-.161.081-1.53.644-.725.04-1.932.523-.966.121-2.053.483-1.207.845-1.328.885-.684.725-.926-.926-.322.121-3.019h0l-2.012-1.691-.564-1.087-1.248.523-1.046-.161-.6.443-1.007-.322-1.409-2.093-.725.241-1.449-.041Z" transform="translate(-500.745 -210.391)" fill="#f2f2f2" stroke="#000" stroke-linejoin="round" stroke-width="0.543" fill-rule="evenodd"/>
    <path id="Congo" d="M581.086,298.535l-1.449-.161-1.53-.443-1.328,1.369-1.167,2.375-.161,1.409-1.812-.6-1.812-.684-2.858-.121-.161,1.127.6,1.328,1.691-.2.564.483-.966,2.978,1.087,1.53.241,1.973-.322,1.73-.684,1.207-1.973-.121-1.207-1.207-.2,1.127-1.53.322-.764.644.845,1.691-1.73,1.409,1.852,2.7.885-1.087.725-.443.805.886.6.241.764-.966,1.248.041.161.725.805.443,1.368-1.61,1.328-1.248.564-.805-.08-2.133,1.007-2.5,1.046-1.288,1.489-1.248.241-.805.08-.966.362-.886L579.6,305.3l.282-2.254.443-1.61.644-1.369.121-1.53Z" transform="translate(-499.901 -211.757)" fill="#f2f2f2" stroke="#000" stroke-linejoin="round" stroke-width="0.543" fill-rule="evenodd"/>
    <path id="Djibouti" d="M660.417,270.1l-1.007-.684,1.248-.6.041-1.087-.564-.764-.644.6-.966-.2-.764,1.127-.725,1.207.2.684.081.805,1.248.041.523-.2.523.443.805-1.368Z" transform="translate(-523.889 -203.733)" fill="#f2f2f2" stroke="#000" stroke-linejoin="round" stroke-width="0.543" fill-rule="evenodd"/>
    <path id="Algeria" d="M541.8,182.875l-1.449.161-.886-.6h-2.254l-1.972,1.046-1.087-.4-3.5.2-3.582.483-2.012.805-1.368,1.046-2.294.483-2.053,1.409.8,1.65.121,1.57.725,2.7.564.564-.4,1.007-2.817.4-1.007.966-1.248.2-.121,1.892-2.535,1.007-.845,1.288-1.771.684-2.173.4-3.582,1.892-.041,3.019v.161l-.041.483,8.171,6.238,7.406,5.595,7.486,5.554.523,1.207,1.368.725,1.046.443.041,1.61,2.455-.241,3.14-1.127,6.359-5.031,7.486-4.91-1.007-1.61-1.73-1.167-1.047.483-.8-1.449-.081-1.087-1.369-1.892.845-1.046-.2-1.61.241-1.409-.2-1.167.362-2.093-.161-1.207-.765-2.254-1.046-4.549-1.368-1.046v-.6l-1.812-1.53-.241-1.932,1.288-1.449.443-2.133-.4-2.5.4-1.328Z" transform="translate(-484.487 -181.829)" fill="#f2f2f2" stroke="#000" stroke-linejoin="round" stroke-width="0.543" fill-rule="evenodd"/>
    <path id="Egypt" d="M610.951,203.113l-2.214-.764-2.133-.684-2.858.08-.725,1.207.443,1.087-.482,1.57.8,2.053.523,9.137.4,9.418h26.284l-.4-.523-2.737-2.294-.161-1.691.4-.443-2.133-2.817L625.159,217l-.926-1.409-1.932-3.985-1.57-2.576-1.127-2.7.2-.241,1.851,3.663,1.087,1.167.805.805.482-.443.483-1.328.282-1.932.523-1.007-.282-.684-1.57-3.7h0l-1.007.644-1.691-.161-1.771-.6-.443.845-.684-1.288-1.57-.322-1.892.241-.845.725-1.57.805-1.046-.4Z" transform="translate(-509.882 -186.812)" fill="#f2f2f2" stroke="#000" stroke-linejoin="round" stroke-width="0.543" fill-rule="evenodd"/>
    <path id="Eritrea" d="M648.2,255.217l-1.288-1.248-.725-2.375-1.489-2.938-1.046,1.449-1.61.4-.644.805L641.234,253l-.764,3.783.282,1.007,2.616.523.6-1.892,1.409,1.167,1.288-.6.564.523,1.57.041,1.972,1.007.644.886,1.007.845,1.007,1.489.805.845.966.2.644-.6-1.13-.762-.765-.886-1.288-1.489-1.288-1.449Z" transform="translate(-519.596 -198.989)" fill="#f2f2f2" stroke="#000" stroke-linejoin="round" stroke-width="0.543" fill-rule="evenodd"/>
    <path id="Ethiopia" d="M641.505,259.142l-.6,1.892-2.616-.523L638,262.724l-.845,2.5-1.288,1.288-.926,1.932-.2,1.046-1.046.725-.564,2.7v.282l.08,2.012-.322.805-1.207.041-.725,1.449,1.368.2,1.167,1.248.4,1.007,1.047.6,1.409,2.778,1.167.443v1.449l.805.845h1.57l2.9,2.173h.725l.523-.041.483.282,1.53.2.644-1.087,2.053-1.046.926.845h1.53l.6-.805,1.449-.041,1.972-1.811,2.978-.121,6.2-7.688-1.932.041-7.446-3.056-.885-.885-.845-1.248-.885-1.409.443-.926-.523-.443-.523.2-1.248-.041-.08-.805-.2-.684.725-1.207.764-1.127-.805-.845-1.007-1.489-1.007-.845-.644-.885-1.973-1.007-1.57-.041-.564-.523-1.288.6-1.409-1.167Z" transform="translate(-517.132 -201.706)" fill="#f2f2f2" stroke="#000" stroke-linejoin="round" stroke-width="0.543" fill-rule="evenodd"/>
    <path id="Gabon" d="M567.155,302.942l-.282-.121-1.369.322-1.368-.322-1.047.161v3.059h-3.3l-.765.121-.443,1.932-.523,1.851-.523.805-.08.845,1.368,2.657,1.489,2.133,2.335,2.576,1.73-1.409-.845-1.691.764-.644,1.53-.322.2-1.127,1.207,1.207,1.972.121.684-1.207.322-1.73-.242-1.972-1.087-1.53.966-2.978-.564-.483-1.69.2-.6-1.328.161-1.127Z" transform="translate(-498.085 -213.024)" fill="#f2f2f2" stroke="#000" stroke-linejoin="round" stroke-width="0.543" fill-rule="evenodd"/>
    <path id="Ghana" d="M528.094,272.708l-1.046-.2-.725.4-.966-.2-3.9.121-.08,1.453.322,1.932.564,3.663-.926,2.133-.6,2.9.966,2.214-.081,1.007,2.012.725,2.012-.764,1.288-.845,3.5-1.53-.483-.886-.6-1.61-.161-1.288.484-2.294-.562-.927-.241-2.053.041-1.852-.966-1.328.161-.765Z" transform="translate(-488.569 -205.169)" fill="#f2f2f2" stroke="#000" stroke-linejoin="round" stroke-width="0.543" fill-rule="evenodd"/>
    <path id="Guinea" d="M492.826,267.7l-.322.161-1.207-.2-.161.282-.523.041-1.61-.6-1.087-.041-.041.845-.241.282.161.845-.322.362h-.524l-.564.4-.684-.041-1.046,1.248.644.443.322.564.282,1.127.523.483.6.362.845,1.007.966,1.489,1.207-1.127.282-.684.4-.564.6-.08.523-.483h1.811l.6.926.483,1.087-.08.725.362.684v.926l.6-.121.483-.08.6-.282.926,1.57-.161,1.046.443.523.644.041.443-1.046.644.08h.362l.121-1.127-.161-.483.241-.362.8-.322-.523-2.053-.523-1.046.2-.886.443-.2-.684-.725.121-.765-.282-.282-.483.241.081-.845.483-.644-.926-1.087-.241-.684-.523-.564-.443-.08-.523.362-.725.322-.644.564-.966-.2-.6-.644-.362-.08-.6.322h-.362l-.121-.926Z" transform="translate(-479.221 -203.83)" fill="#f2f2f2" stroke="#000" stroke-linejoin="round" stroke-width="0.543" fill-rule="evenodd"/>
    <path id="Gambia" d="M479.6,264.742l2.012.041.564-.362h.4l.845-.6.966.564.966.041.966-.6-.443-.725-.725.443-.725-.041-.845-.6-.725.041-.523.6-2.455.08-.282,1.127Z" transform="translate(-477.912 -202.677)" fill="#f2f2f2" stroke="#000" stroke-linejoin="round" stroke-width="0.543" fill-rule="evenodd"/>
    <path id="Guinea-Bissau" d="M486.719,267.3l-4.146-.121-.6.282-.725-.08-1.207.443.121.523.684.564v.362l.483.725.966.2,1.167,1.046L484.506,270l.684.041.564-.4h.523l.322-.362-.161-.845.241-.282Z" transform="translate(-478.025 -203.789)" fill="#f2f2f2" stroke="#000" stroke-linejoin="round" stroke-width="0.543" fill-rule="evenodd"/>
    <path id="Eq._Guinea" d="M563.5,303.01l-3.7-.08-.764,2.9.4.362.765-.121h3.3Z" transform="translate(-498.494 -213.052)" fill="#f2f2f2" stroke="#000" stroke-linejoin="round" stroke-width="0.543" fill-rule="evenodd"/>
    <path id="Kenya" d="M652.021,295.859h-1.53l-.926-.845-2.053,1.046-.644,1.087-1.53-.2-.483-.282-.523.041h-.725l-2.9-2.173h-1.57l-.8-.845v-1.449l-1.167-.443-1.53,1.691-1.369,1.53,1.087,1.771.282,1.288,1.046,2.938-.845,1.892-1.087,1.691-.644,1.046v.121l.564.966-.161,1.892,8.13,5.233.161,1.489,3.22,2.536.885-.845.483-1.691.725-1.046.362-1.812.845-.161.564-1.087,1.61-1.007-1.328-2.133-.08-9.338,1.932-2.9Z" transform="translate(-517.948 -210.167)" fill="#f2f2f2" stroke="#000" stroke-linejoin="round" stroke-width="0.543" fill-rule="evenodd"/>
    <path id="Liberia" d="M502.554,283.522l-.644-.08-.443,1.046-.644-.041-.443-.523.161-1.046-.926-1.57-.6.282-.483.08-1.046,1.207-1.046,1.369-.121.764-.523.805,1.489,1.65,1.932,1.409,2.053,1.932,2.294,1.248.6-.041.2-2.093.2-.322-.08-1.007-.926-1.087-.725-.161-.644-.725.483-1.127-.241-1.248.121-.725Z" transform="translate(-482.107 -207.449)" fill="#f2f2f2" stroke="#000" stroke-linejoin="round" stroke-width="0.543" fill-rule="evenodd"/>
    <path id="Libya" d="M592.145,200.365l-.6-.845-2.173-.32-.725-.443h-.8l-.805-1.127-2.938-.523-1.449.322-1.489,1.207-.6,1.248.6,1.932-.966,1.207-1.007.644-2.375-1.248-3.1-1.087-1.973-.483-1.127-2.294-2.9-1.127-1.812-.443-.886.241-2.576-.886-.041,1.973-1.046.725-.6.805-1.489,1.007.282,1.046-.161,1.087-1.047.564.765,2.254.161,1.207L558.9,209.1l.2,1.167-.241,1.409.2,1.61-.845,1.046,1.369,1.892.08,1.087.805,1.449,1.047-.483,1.73,1.167,1.006,1.61,3.542,1.127,1.248,1.409,1.57-.966,2.173-1.409,8.976,4.91,9.016,4.91v-1.087h2.536l-.2-5.112-.4-9.418-.523-9.137-.805-2.053.483-1.57-.443-1.087.725-1.207Z" transform="translate(-498.282 -185.433)" fill="#f2f2f2" stroke="#000" stroke-linejoin="round" stroke-width="0.543" fill-rule="evenodd"/>
    <path id="Lesotho" d="M612.066,414.717l.443-.805,1.248-.4.443-.845.765-1.248-.684-.764-.926-.805-1.046.523-1.248,1.007-1.288,1.61,1.489,1.973.805-.241Z" transform="translate(-511.642 -240.757)" fill="#f2f2f2" stroke="#000" stroke-linejoin="round" stroke-width="0.543" fill-rule="evenodd"/>
    <path id="Morocco" d="M512.8,188.741l-.926-.041-2.214-.564-2.012.161-1.248-1.087h-1.57l-.725,1.57-1.489,2.7L501,192.523l-2.173,1.167-1.409,1.73-.362,1.369-.845,2.173.443,3.18-1.892,2.133-1.087.684-1.771,1.771-2.053.282-1.127.966-.041.041-1.449,2.616-1.489.926-.845,1.61-.08,1.328-.644,1.53-.765.4-1.248,1.61-.805,1.811.121.886-.765,1.328-.886.684-.121,1.207h.041l4.991-.2.282-.926.926-1.167.805-3.542,3.139-2.737,1.127-3.26.684-.161.764-2.012,1.852-.282.764.362h1.007l.725-.6,1.369-.08-.041-1.369h.322l.041-3.019,3.582-1.892,2.173-.4,1.771-.684.845-1.288,2.536-1.006.121-1.892,1.248-.2,1.007-.966,2.817-.4.4-1.007-.564-.564-.725-2.7-.121-1.57-.8-1.65Z" transform="translate(-477.94 -183.067)" fill="#f2f2f2" stroke="#000" stroke-linejoin="round" stroke-width="0.543" fill-rule="evenodd"/>
    <path id="Madagascar" d="M676.4,356.34l-.443-1.691-.564-1.087-.725-1.087-.805,1.127-.121,1.53-1.328,1.812-.926-.322.241,1.087L671.009,359l-1.932,1.57-1.369,1.489h-.966l-.886.483-1.248.523-1.127.08-.4,1.65-.886,1.409.041,2.375.322,1.61.443,1.207-.322,1.65-1.167,1.932-.08.845-1.047.443-.523,1.851.08,1.851.644,2.012-.041,2.294.483,1.328,1.691.926,1.207.684,2.012-1.087,1.851-.6,1.248-2.978,1.127-3.582,1.73-4.83,1.328-3.542,1.087-2.978.322-2.173.644-.6.282-1.087-.322-1.892.483-.764.644,1.53.443-.764.322-1.248-.523-1.167-.2-3.1Z" transform="translate(-524.621 -225.891)" fill="#f2f2f2" stroke="#000" stroke-linejoin="round" stroke-width="0.543" fill-rule="evenodd"/>
    <path id="Mali" d="M530.571,239.428l-2.455.241-.041-1.61-1.046-.443-1.369-.725-.523-1.207-7.486-5.554-7.406-5.595-3.381.041.966,11.028.966,11.069.4.322-.523,1.771-8.975.041-.362.564-.845-.161-1.288.523-1.53-.725-.725.08-.4,1.489-.765.483.081,1.57.443,1.489.845.725.161.966-.121.805.121.926h.362l.6-.322.362.08.6.644.966.2.644-.564.725-.322.523-.362.443.08.523.564.241.684.926,1.087-.483.644-.081.845.483-.241.282.282-.121.764.684.725.282-.241.644.4,1.73.041.4-.765.4.041.644-.282.362,1.087.523-.322.926-.362-.161-1.489.644-1.087-.08-.886,1.812-2.093.322-1.771.644-.644,1.087.362.926-.523.322-.644,1.73-1.167.443-.805,2.093-1.046,1.207-.362.564.483h1.449l1.449-.121.805-.886,3.059-.241,1.972-.4.2-1.57,1.207-1.73-.041-5.877Z" transform="translate(-481.587 -192.738)" fill="#f2f2f2" stroke="#000" stroke-linejoin="round" stroke-width="0.543" fill-rule="evenodd"/>
    <path id="Mozambique" d="M645.354,347.668l-.322-1.167h0l-1.852,1.489-2.5,1.007-1.328-.041-.845.764-1.57.041-.564.322-2.7-.725-.845.121-.644,2.415.282,2.938h.121l.764.805.886,1.851.041,3.3-1.007.523-.764,1.811-1.368-1.61-.081-1.811.523-1.167-.121-1.046-.845-.644-.644.241-1.207-1.207-6.883,2.093.121,1.811.121.966,1.851-.041,1.046.523.443.644,1.047.2,1.127.805-.121,3.26L627,367.913l-.2,1.892.322.764-.322,1.489-.362.241-.644,1.851-2.5,2.9.885,3.622.443,1.812-.564,2.858.161.926.241,1.167.121,1.127h1.65l.282-1.328-.564-.2-.121-1.046,1.046-.966,2.737-1.369,1.852-.885,1.006-.926.362-1.046-.483-.443.443-1.207.2-2.5-.4.121V376l-.322-1.489-.966-1.932.282-1.851.926-.564,1.65-1.852.885-.443,2.7-2.737,2.576-1.248,2.093-1.007,1.489-1.57.966-1.771.765-1.851-.362-1.248.081-3.985-.161-2.254.161-2.536Z" transform="translate(-514.782 -224.342)" fill="#f2f2f2" stroke="#000" stroke-linejoin="round" stroke-width="0.543" fill-rule="evenodd"/>
    <path id="Mauritania" d="M506.556,222.354l-8.171-6.238-.08,3.9-7.2-.121-.081,6.563-2.093.2-.564,1.328.362,3.7-8.694-.041-.483.886,1.127,1.087.564,1.207-.282,1.288.241,1.288.2,2.536-.322,2.375-.684,1.288.161,1.369.8-.8,1.087.2,1.127-.564h1.248l1.046.725,1.489.684,1.288,1.892,1.449,1.771.765-.483.4-1.489.725-.08,1.53.725,1.288-.523.845.161.362-.564,8.975-.041.523-1.771-.4-.322-.966-11.069-.966-11.028,3.381-.041Z" transform="translate(-477.898 -190.557)" fill="#f2f2f2" stroke="#000" stroke-linejoin="round" stroke-width="0.543" fill-rule="evenodd"/>
    <path id="Malawi" d="M633.747,355.068l.041-.926-.483-.765.041-1.127-.6-1.892.684-1.409-.041-3.1-.764-1.65.08-.282h0l-.443-.684-2.173-.483,1.046,1.127.483,2.173-.4.725-.483,2.053.362,2.133-.725.886-.764,2.375,1.167.684,1.207,1.207.644-.241.845.644.121,1.046-.523,1.167.08,1.811,1.369,1.61.765-1.811,1.007-.523-.041-3.3-.886-1.852-.764-.805h-.121v.322l.443.121.4,1.369-.081.322-.765-1.007-.4.644-.322-.564Z" transform="translate(-516.781 -223.371)" fill="#f2f2f2" stroke="#000" stroke-linejoin="round" stroke-width="0.543" fill-rule="evenodd"/>
    <path id="Namibia" d="M591.582,370.916l-4.146,1.007-5.393-.362-1.489-1.207-9.057.121-.362.161-1.288-1.167-1.449-.041-1.328.4-1.087.483.08,1.972,1.771,2.5.443,1.61,1.127,3.1,1.087,2.093.845,1.046.241,1.409V387.1l.644,3.944.483,1.851.4,2.5.765,1.892,1.569,1.932,1.087-1.288.845.725.322,1.087.966.2,1.328.483,1.167-.2,2.012-1.288.443-9.5.241-7.446,2.173-.08.362-9.137,1.65-.08,3.462-.886.8,1.046,1.489-1.007h.644l1.288-.6v-.2l-.845-.564-1.449-.161-1.852.6Z" transform="translate(-500.295 -230.283)" fill="#f2f2f2" stroke="#000" stroke-linejoin="round" stroke-width="0.543" fill-rule="evenodd"/>
    <path id="Niger" d="M560.869,230.824l-3.542-1.127-7.487,4.91-6.359,5.031-3.139,1.127.041,5.877-1.207,1.73-.2,1.57-1.972.4-3.059.241-.8.886-1.449.121-.2,1.248.322,1.167,1.248,1.65.081,1.248,2.576.564-.041,1.771.764-.765h.8l1.731,1.489.121-2.294.644-1.046.322-1.449.564-.564,2.415-.322,2.254.966.845.966,1.167.041,1.046-.6,2.737,1.328,1.127-.081,1.328-1.087,1.328.08.644-.362,1.207.161,1.73.725,1.73-1.409.523.08,1.57,2.817.4-.08.081-.805.644-.161.2-1.167-1.449-.08v-1.654l-.966-.926.926-3.381,2.778-2.415.08-3.341.725-5.192.443-1.087-.926-.885-.08-.845-.805-.644-.644-3.985-1.57.966-1.248-1.409Z" transform="translate(-491.356 -194.076)" fill="#f2f2f2" stroke="#000" stroke-linejoin="round" stroke-width="0.543" fill-rule="evenodd"/>
    <path id="Nigeria" d="M564.58,266.433l-.4.08-1.57-2.817-.523-.08-1.73,1.409-1.73-.725-1.207-.161-.644.362-1.328-.08-1.328,1.087-1.127.08-2.737-1.328-1.046.6-1.167-.041-.845-.966-2.254-.966-2.415.322-.564.564-.322,1.449L541,266.272l-.121,2.294-.08.845.483,1.53-.443,1.007.241.684-1.087,1.61-.684.764-.4,1.61.04,1.65-.121,4.106h3.7l1.57,1.691.764,1.851,1.207,1.57,1.812.08.885-.564.845.121,2.335-.926.564-1.811,1.087-2.455.644-.041,1.328-1.489.845-.041,1.288,1.046,1.57-.886.2-1.046.483-1.046.322-1.288,1.207-1.046.443-1.811.483-.564.282-1.328.6-1.61,1.851-2.012.121-.845.241-.443-.926-1.046Z" transform="translate(-493.257 -202.677)" fill="#f2f2f2" stroke="#000" stroke-linejoin="round" stroke-width="0.543" fill-rule="evenodd"/>
    <path id="Rwanda" d="M622.35,314.773l-1.328.764-.564-.241-.644.725-.08,1.53-.322.161-.241,1.409,1.409.2.684-1.449,1.207.161h0l.644-.322.161-1.489-.926-1.449Z" transform="translate(-514.077 -216.121)" fill="#f2f2f2" stroke="#000" stroke-linejoin="round" stroke-width="0.543" fill-rule="evenodd"/>
    <path id="W._Sahara" d="M498.426,215.245H498.1l.041,1.369-1.369.08-.725.6h-1.007l-.764-.362-1.852.282-.765,2.012-.684.161-1.127,3.26-3.139,2.737-.805,3.542-.926,1.167-.282.926-4.991.2h-.041l-.121,1.087.483-.885,8.694.041-.362-3.7.564-1.328,2.093-.2.08-6.561,7.2.121.081-3.9.041-.483v-.161Z" transform="translate(-477.898 -190.331)" fill="#f2f2f2" stroke="#000" stroke-linejoin="round" stroke-width="0.543" fill-rule="evenodd"/>
    <path id="Sudan" d="M630,249.414l.161-1.691.644-.805,1.61-.4,1.046-1.449-1.248-.966-.885-.644-1.007-3.059-.443-2.616.443-.483-.845-2.5H603.191l.2,5.112h-2.536V241l.443,10.143-1.932-.161-.966,1.892-.564,1.57.483.6-.725.765.282,1.087-.564,1.046-.2.966.8-.161.483,1.007.041,1.489.845.725v.644l.282,1.087,1.328,1.61v1.043l-.322,1.046.121.805.805.725.2.121.684-.282.765-.483.523-2.294.6-1.167,1.61-.362.4.725,1.207,1.489.6.2.805-.443,1.65.121.322.523h2.214l.08-.523,1.167-.483.2-.765.845-.523,1.932,1.489,1.127-.282,1.087-1.811,1.207-1.409-.241-1.57-.564-.725,1.368-.121.121-.6,1.046.2-.2,1.892.322,1.852,1.167,1.007.282.886v1.248l.322.041V266.6l.564-2.7,1.046-.725.2-1.046.926-1.932,1.288-1.288.845-2.5.282-2.214-.282-1.007.765-3.783Z" transform="translate(-508.362 -195.399)" fill="#f2f2f2" stroke="#000" stroke-linejoin="round" stroke-width="0.543" fill-rule="evenodd"/>
    <path id="S._Sudan" d="M625.646,274.322l-.282-.886L624.2,272.43l-.322-1.852.2-1.892-1.046-.2-.121.6-1.369.121.564.725.241,1.57-1.207,1.409-1.087,1.811-1.127.282-1.932-1.489-.845.523-.2.764-1.167.483-.08.523h-2.214l-.322-.523-1.65-.121-.805.443-.6-.2-1.207-1.489-.4-.725-1.61.362-.6,1.167-.523,2.294-.765.483-.684.282,1.53,1.007,1.248,1.046.041.805,1.53,1.369.966,1.087.6,1.53,1.691,1.007.362.845,1.409,2.093,1.007.322.6-.443,1.047.161,1.248-.523.564,1.087,2.012,1.691h0l.926-.684,1.409.564,1.811-.6,1.61.041,1.368-1.207,1.369-1.53,1.53-1.691-1.412-2.775-1.046-.6-.4-1.007-1.167-1.248-1.368-.2.725-1.449,1.207-.041.322-.805-.08-2.012-.322-.041v-1.248Z" transform="translate(-509.967 -204.127)" fill="#f2f2f2" stroke="#000" stroke-linejoin="round" stroke-width="0.543" fill-rule="evenodd"/>
    <path id="Senegal" d="M489.517,258.563l-1.449-1.771L486.78,254.9l-1.489-.684-1.046-.725H483l-1.127.564-1.087-.2-.805.805-.523,1.328-1.127,1.771-1.006.483,1.086.925.885,2.012,2.455-.08.523-.6.725-.041.845.6.725.041.725-.443.443.725-.966.6-.966-.041-.966-.563-.845.6h-.4l-.564.362-2.012-.041.322,1.972,1.207-.443.725.08.6-.282,4.146.121,1.087.041,1.61.6.523-.041.161-.282,1.207.2.322-.161.121-.8-.161-.966-.845-.725-.443-1.489-.08-1.57Z" transform="translate(-477.321 -200.242)" fill="#f2f2f2" stroke="#000" stroke-linejoin="round" stroke-width="0.543" fill-rule="evenodd"/>
    <path id="Sierra_Leone" d="M497.108,280.318l-.6.121v-.926l-.362-.684.081-.725-.483-1.087-.6-.926h-1.811l-.523.483-.6.081-.4.564-.282.684-1.207,1.127.282,1.892.362.926,1.167,1.409,1.65,1.007.6.2.523-.805.121-.764,1.046-1.369,1.046-1.207Z" transform="translate(-480.686 -206.098)" fill="#f2f2f2" stroke="#000" stroke-linejoin="round" stroke-width="0.543" fill-rule="evenodd"/>
    <path id="Swaziland" d="M624.094,400.007l-1.087-.483-.644.2-.282.725-.644.966-.041.886,1.207,1.409,1.328-.282.523-1.127-.121-1.127-.241-1.167Z" transform="translate(-514.654 -238.082)" fill="#f2f2f2" stroke="#000" stroke-linejoin="round" stroke-width="0.543" fill-rule="evenodd"/>
    <path id="Chad" d="M594.241,239.735l-9.016-4.91-8.975-4.91-2.173,1.409.644,3.985.805.644.08.845.926.886-.443,1.087-.725,5.192-.08,3.341-2.778,2.415-.926,3.381.966.926v1.65l1.449.08-.2,1.167.885,1.65.2,1.691-.08,1.73,1.248,2.335-1.248-.041-.644.161-1.007-.241-.483,1.207L574,266.9l1.006.443.322,1.046.725,1.771-.362.684,1.892-.161.4-.684.362.08.564.564,2.858-.966.926-1.007,1.167-.885-.241-.926.644-.241,2.173.161,2.093-1.167,1.61-2.817,1.127-1.007,1.409-.443V260.7l-.845-.725-.041-1.489-.483-1.007-.805.161.2-.966.564-1.046-.282-1.087.725-.765-.483-.6.564-1.57.966-1.892,1.932.161-.443-10.143Z" transform="translate(-501.745 -194.132)" fill="#f2f2f2" stroke="#000" stroke-linejoin="round" stroke-width="0.543" fill-rule="evenodd"/>
    <path id="Togo" d="M532.587,272.819l-1.972-.041-.161.764.966,1.328-.041,1.851.241,2.053.564.926L531.7,282l.161,1.288.6,1.61.483.886,1.852-.523-.564-1.771.08-5.877-.443-.523-.08-1.248-.805-.926-.684-.765.282-1.328Z" transform="translate(-491.089 -205.239)" fill="#f2f2f2" stroke="#000" stroke-linejoin="round" stroke-width="0.543" fill-rule="evenodd"/>
    <path id="Tunisia" d="M560.921,192.525l-.805-.4-.6-1.207-1.127-.041-.443-1.409,1.369-1.288.2-2.254-.764-.644-.041-1.207,1.007-1.288-.161-.523-1.771.966.041-1.328-1.489-.282-2.254,1.046-.4,1.328.4,2.5-.443,2.133-1.288,1.449L552.59,192l1.811,1.53v.6l1.368,1.046,1.046,4.549,1.046-.564.161-1.087-.282-1.046,1.489-1.007.6-.805,1.046-.725Z" transform="translate(-496.762 -181.617)" fill="#f2f2f2" stroke="#000" stroke-linejoin="round" stroke-width="0.543" fill-rule="evenodd"/>
    <path id="Tanzania" d="M623.592,314.339l-.8.322.926,1.449-.161,1.489-.644.322h0l.121,1.007.483.6v.805l-.564.564-.885,1.328-.845.926-.241.041-.121,1.087.443.362-.08,1.087.4,1.046-.523.966,1.812,1.73.121,1.57,1.087,2.616h0l.121.08.886.443,1.409.443,1.288.764,2.173.483.443.684h0l.161-.483,1.127,1.369.121,2.7.725.966v.041l.845-.121,2.7.725.564-.322,1.57-.041.845-.765,1.328.041,2.5-1.006,1.851-1.489h0l-.805-.564-.885-2.536-.725-1.57.161-1.248-.121-.764.684-1.57-.081-.644-1.409-.926-.121-1.449,1.127-3.18-3.22-2.535-.161-1.489-8.131-5.233h0l-1.127,1.127-.765,1.167.885.885-1.288.644-.282-.322-1.288.161-1.006.564-.644-.966.443-1.811.081-1.53h0l-2.5-.041Z" transform="translate(-514.514 -216.008)" fill="#f2f2f2" stroke="#000" stroke-linejoin="round" stroke-width="0.543" fill-rule="evenodd"/>
    <path id="Uganda" d="M630.851,296.139l-1.368,1.207-1.61-.041-1.811.6-1.409-.564-.926.684h0l-.121,3.019.926.322-.725.926-.886.684-.845,1.328-.483,1.207-.121,2.053-.523.966-.041,1.932.564.241,1.328-.764.805-.322,2.5.041h0l-.121-1.007,1.046-1.489,1.409-.362.966-.6,1.167.483.121.2v-.121l.644-1.046,1.087-1.691.845-1.892L632.22,299.2l-.282-1.288-1.087-1.771Z" transform="translate(-514.528 -211.292)" fill="#f2f2f2" stroke="#000" stroke-linejoin="round" stroke-width="0.543" fill-rule="evenodd"/>
    <path id="South_Africa" d="M612.118,387.594l-1.167-.241-.764.322-1.046-.443-.886-.041-3.22,1.891-2.093,1.892-.805,1.73-.684.966-1.207.2-.483,1.207-.241.805-1.449.6-1.771-.121-1.007-.725-.926-.322-1.087.6-.6,1.248-1.087.765-1.127,1.127-1.61.282-.443-.926.282-1.53-1.207-2.455-.564-.4-.443,9.5-2.012,1.288-1.167.2-1.328-.483-.966-.2-.322-1.087-.845-.725-1.087,1.288,1.409,3.3v.041l1.007,2.133,1.288,2.415-.08,1.932-.684.483.564,1.691-.08,1.53.241.684.121-.362.845,1.167.724.041.845.926.966-.081,1.409-.966,1.851-.4,2.254-1.007.885.121,1.328-.322,2.294.483,1.087-.483,1.288.4.322-.725,1.087-.121,2.335-1.007,1.73-1.167,1.65-1.53,2.7-2.616,1.369-1.852.725-1.288,1.007-1.328.483-.362,1.57-1.288.644-1.167.443-2.093.684-1.892h-1.65l-.523,1.127-1.328.282-1.207-1.409.041-.886.644-.966.282-.725.644-.2,1.087.483-.161-.926.564-2.858-.443-1.811-.886-3.622Zm-8.09,21.252-.805.241-1.489-1.973,1.288-1.61,1.248-1.007,1.047-.523.926.805.684.765-.764,1.248-.443.845-1.248.4-.443.805Z" transform="translate(-503.603 -234.886)" fill="#f2f2f2" stroke="#000" stroke-linejoin="round" stroke-width="0.543" fill-rule="evenodd"/>
    <path id="Zambia" d="M617.167,340.175l-.765-.2.161-.523-.4-.121-3.019.443-.644.282-.644,1.65.483,1.127-.483,3.019-.322,2.576.564.443,1.57,1.007.6-.483.121,2.778h-1.73l-.845-1.409-.805-1.127-1.73-.322-.483-1.369-1.369.805-1.811-.362-.725-1.127-1.409-.241-1.047.041-.121-.805-.765-.041.2.8-.282,1.207.362,1.207-.362.966.2.885L597,351.243l-.322,8.171,1.449,2.093,1.409,1.61,1.852-.6,1.449.161.845.564v.2l.4.2,2.5.282.684.282.764-.041,1.288-1.65,2.053-2.133.805-.2.282-.886,1.328-1.007,1.691-.362-.121-1.812,6.883-2.093-1.167-.684.765-2.375.725-.885-.362-2.133.483-2.053.4-.725-.483-2.173-1.046-1.127-1.288-.765-1.409-.443-.886-.443-.121-.08h0l.2.443-.4.161-.483-.564Z" transform="translate(-508.25 -222.484)" fill="#f2f2f2" stroke="#000" stroke-linejoin="round" stroke-width="0.543" fill-rule="evenodd"/>
    <path id="Zimbabwe" d="M619.354,381.7l2.5-2.9.644-1.851.362-.241.322-1.489-.322-.764.2-1.892.523-1.771.121-3.26-1.127-.805-1.046-.2-.443-.644-1.046-.523-1.851.041-.121-.966-1.691.362-1.328,1.007-.282.886-.805.2-2.053,2.13-1.288,1.65-.764.041-.684-.282-2.5-.282.764,2.053.443.443.644,1.489,2.415,2.817.926.282-.041.885.6,1.65,1.691.362,1.369,1.167.885.041,1.046.443.765-.322,1.167.241Z" transform="translate(-510.84 -228.988)" fill="#f2f2f2" stroke="#000" stroke-linejoin="round" stroke-width="0.543" fill-rule="evenodd"/>
    <path id="Somalia" d="M662.322,273.327l-1.046-1.087-.483-1.046-.725-.483-.8,1.369-.443.926.886,1.409.846,1.251.886.885,7.446,3.059,1.932-.041-6.2,7.688-2.978.121-1.972,1.811-1.449.041-.6.805-1.932,2.9.08,9.338,1.328,2.133.523-.6.523-1.369,2.455-3.1,2.133-1.932,3.341-2.576,2.254-2.053,2.576-3.5,1.892-2.858,1.852-3.743,1.288-3.3,1.007-2.858.523-2.737.443-.926-.081-1.368.161-1.489-.08-.684h-.845l-1.046.885-1.167.241-1.007.362-.725.08h0l-1.288.081-.765.443-1.127.2-1.932.765-2.455.322-2.093.644h-1.128Z" transform="translate(-523.538 -204.339)" fill="#f2f2f2" stroke="#000" stroke-linejoin="round" stroke-width="0.543" fill-rule="evenodd"/>
    <path id="Comoros" d="M662.97,352.555l-.161-.161h-.161v.08l.041.161.443.081-.161-.161Zm1.569-.6h-.04l-.08.041-.041.08-.041.121h-.362l.322.2.2.2.081.08.04-.08.041-.282-.121-.362Zm-2.254-.443.08-.121-.08-.282-.161-.322.041-.564-.081-.08h-.121l-.041.041-.041.121-.121.805.161.241.121.041.2.161Z" transform="translate(-525.113 -225.285)" fill="#f2f2f2" stroke="#000" stroke-linejoin="round" stroke-width="0.543" fill-rule="evenodd"/>
    <path id="São_Tomé_and_Principe" d="M550.794,309.019l.2-.322v-.2l-.121-.2h-.161l-.2.161-.121.161v.121l.041.282.041.121.121.08.2-.2Zm1.73-3.7.08-.161v-.081l-.041-.041-.041-.041-.08.041-.121.2.041.08.081.08Z" transform="translate(-496.255 -213.587)" fill="#f2f2f2" stroke="#000" stroke-linejoin="round" stroke-width="0.543" fill-rule="evenodd"/>
    <path id="Mayotte" d="M667.423,355.4v-.121l.08-.2v-.041l.041-.2-.121-.121h-.08l-.081-.121-.121.121.121.2-.041.121-.041.161.041.161.08.08.121-.041Z" transform="translate(-526.508 -226.438)" fill="#f2f2f2" stroke="#000" stroke-linejoin="round" stroke-width="0.543" fill-rule="evenodd"/>
</svg>
