<svg xmlns="http://www.w3.org/2000/svg" width="382.03" height="302.286" viewBox="0 0 382.03 302.286">
  <g id="Group_130" data-name="Group 130" transform="translate(-3645.572 1389.914)">
    <path id="Afghanistan" d="M747.206,182.07H744.26l-2.073-.273-1.364,1.582-1.145.382-.818.709-1.418-1.145-.545-2.945-.873-.164v-1.091l-1.745-.818-.927,1.255.109,1.418-.327.491-1.745-.055-.491,1.636-1.145-.709-1.8,1.145-.982-.436-2.345-.764h-1.582l-.873-.109-1.582-.927-.164,1.255-2.236.655.055,2.836-1.364,1.091-2.182.491-.218,1.636-2.127.436-3.218-1.309-.273,4.364-.273,2.564,1.364.491-.873,1.909,1.473,2.782.6,2.182,2.345.6.6,2.182-2.127,3.164,5.236,1.745,2.891-.491,1.8.436.491-.764,2.073.273,3.6-1.418-.436-2.945,1.255-1.964h2.182l.109-.927,2.182-.491,1.145.327.927-.982-.6-2.073.818-2.073,1.636-.873-1.636-2.291,2.782.109.491-1.255-.436-1.364,1.091-1.473-.764-1.745-1.036-1.527,1.309-1.527,2.891-.709,3.164-.436,1.309-.655,1.527-.382-.764-1.036Z" transform="translate(3062.546 -1435.95)" fill="#f2f2f2" stroke="#000" stroke-linejoin="round" stroke-width="0.545" fill-rule="evenodd"/>
    <path id="United_Arab_Emirates" data-name="United Arab Emirates" d="M700.3,222.869l-.709-1.2-1.636,2.127-2.018,2.236-1.8,2.345-1.8-.109-2.509-.109-2.291.545-.164-.927-.545.164.218.818,1.418,3.491L697.625,234l.545-.709-.055-1.418.764-1.418-.164-1.418,1.309-.709-.6-.436.055-2.291h1.527l-.709-2.727Z" transform="translate(3062.546 -1435.95)" fill="#f2f2f2" stroke="#000" stroke-linejoin="round" stroke-width="0.545" fill-rule="evenodd"/>
    <path id="Armenia" d="M664.9,177.324l-.491-2.4-1.364-.6-1.364-.927.545-1.091-1.691-1.2.382-.818-1.2-.6-.764-.927-3.764.545.709,1.2V172.2l2.291.818,1.309,1.036.545-.109.982.927h1.255l.109.545,1.527,2.018.982-.109Z" transform="translate(3062.546 -1435.95)" fill="#f2f2f2" stroke="#000" stroke-linejoin="round" stroke-width="0.545" fill-rule="evenodd"/>
    <path id="Azerbaijan" d="M660.043,173.943l-.545.109.654,1.309,1.745,1.582,2.018.491-1.527-2.018-.109-.545h-1.255l-.982-.927Zm5.673-5.073-2.345-2.073-.818-.109-.6.491,1.745,1.855-.327.382-1.527-.218-2.291-.982-.6.545.764.927,1.2.6-.382.818,1.691,1.2-.545,1.091,1.364.927,1.364.6.491,2.4,2.891-2.564,1.036-.273,1.036,1.036-.654,1.691,2.073,1.855.709-.164-.436-1.745.927-.818.218-1.2-.055-2.727,2.291-.273-1.091-.927-1.364-.109-1.909-2.454-1.855-1.745h0L667.3,168.27l-.273.818-1.309-.218Z" transform="translate(3062.546 -1435.95)" fill="#f2f2f2" stroke="#000" stroke-linejoin="round" stroke-width="0.545" fill-rule="evenodd"/>
    <path id="Bangladesh" d="M810.8,235.578l-2.454-5.509-.818.055-.109,2.182-1.909-1.8.6-1.964,1.309-.218.873-2.891-1.854-.6-2.727.055-2.945-.491-.654-2.4-1.473-.218-2.618-1.473-.654,2.345,2.509,1.855-1.691,1.309-.436,1.255,2.018.927-.218,2.073,1.418,2.618.873,2.836,1.2.327.927.382.327-.655,1.364.709.709-1.909-.491-1.418,2.782.109,1.527,2.018.818,1.691.436,1.745,1.091,1.8-.6-2.782,1.145.545-.273-2.509Z" transform="translate(3062.546 -1435.95)" fill="#f2f2f2" stroke="#000" stroke-linejoin="round" stroke-width="0.545" fill-rule="evenodd"/>
    <path id="Brunei" d="M882.421,296.395l1.473,1.8.6-1.2,1.473.109.055-2.236.055-1.691-2.509,1.909-1.145,1.309Z" transform="translate(3062.546 -1435.95)" fill="#f2f2f2" stroke="#000" stroke-linejoin="round" stroke-width="0.545" fill-rule="evenodd"/>
    <path id="Bhutan" d="M804.368,215.724l-1.473-.982-1.582-.055-2.291-.818-1.418.873-1.418,2.618.164.655,3,1.364,1.745-.545,2.564.218,2.4-.109-.218-2.127-1.473-1.091Z" transform="translate(3062.546 -1435.95)" fill="#f2f2f2" stroke="#000" stroke-linejoin="round" stroke-width="0.545" fill-rule="evenodd"/>
    <path id="China" d="M865.731,247.25l.327-1.964,1.091-1.527-.873-1.364-1.745-.055-3.164.982-1.2,1.527.545,3,2.673,1.091,2.345-1.691Zm7.2-107.18-3.327-3.327-2.4-2.018-2.073-1.473-4.2-3.327-3.218-1.255-4.636-.982-3.382.109-2.782.6-.927,1.636,2.018.818,1.364,1.8-.654,1.091.055,3.545,1.036,1.473-2.4,2.127-3.982-1.255.327,2.509.164,3.382,1.473,1.418,1.309-.436,2.945.545L851,145.8l2.782,1.091,3.927,2.345.382,1.2-2.345-.382-3.709.436-1.309.982-.764,2.236-3.436,1.309-1.691,1.8-3.218-.709-1.745-.273-.218,2.182,1.582,1.255,1.036,1.145-1.364,1.091-1.036,1.8-2.673,1.2-4.091.109-3.927,1.2-2.4,1.8-1.745-1.091-3.382.055-5.073-2.073-3-.491-3.491.436-6.109-.709-3,.055-2.564-1.964-2.673-3.109-1.855-.382-4.309-2.073-3.927-.491-3.491-.545-1.636-1.473-.709-3.982-3.164-2.727-4.418-1.255-3.109-1.8-1.8-2.4-.927.273-.982,2.291-2.073.327,1.364,3.382-.873,1.527-5.836-1.091.545,6.054-1.091.764-4.909,1.309,4.745,5.836-1.582.873.927,1.909-.109.764-3.709,1.855-.545,1.309-3.491.436-.327,2.182-3.109-.491-1.745.655-2.182,1.636.6.818-.545.818,1.636,3.218.873-.327,1.909.764.327,1.364.982,2.018.764,1.036,2.564,1.636,1.582,2.727,5.127,1.418,4.145,4.091.436,2.836,1.636,1.8.327,1.8-2.236-.491,1.745,3.818,3.382,2.182,4.636,2.4,1.036-.818,2.564,1.091,3.491,2.236,1.745.491,1.364,1.691,2.455.655L786.7,214.2l3.491.818,3.545.327,1.636-.764.818,2.782,1.418-2.618,1.418-.873,2.291.818,1.582.055,1.473.982,2.291-.436,2.127-2.618,2.891-2.182,2.673.818,1.745-1.418L818,212.015l-.654,1.473,3.327.491,1.636-.218,1.473,2.018,1.473.818.709,2.673.436,2.891-2.236,2.891.382,4.091,3.055-.545,1.255,3.164,2.018.709-.436,2.836,2.454,1.309,1.364.655,2.073-.982.327,1.418.382.818,1.582.055-1.036-3.927,1.473-.545,1.473-.818h2.345l2.891-.382L848,231.051l1.636,1.309,2.836.6-.109,2.018L854,236.4l3.218.873,1.309-.545,4.2,1.091-.491,1.364,1.2,2.509,1.636-.218.436-3.654,3.055-.491,3.927-1.745,1.364-1.745,1.255,1.145,1.527-1.582,3.327-.382,3.6-2.891L887,226.905l1.8-4.145,1.255-4.582,1.145-3.764,1.527-.273-.055-2.782-.436-2.782-2.073-1.091-1.364-1.855,1.527-.927-.873-2.564-2.945-2.673-2.945-3.164-2.509-3.436-3.873-1.909.491-2.509,2.073-1.745.545-1.909,3.654-.982-1.309-1.855-1.855-.109-3.164-1.364L875.494,183l-2.673-1.036L872,180.379l-2.564-.545-2.564-2.4.655-1.636,2.727-.164.654-2.236,1.964-2.4,1.854-1.2,2.4,1.8-1.036,2.291,1.255,1.364-.764,1.636,2.618-.982,1.309-1.582,3.436-1.036,1.145-2.182,2.073-1.855.545-2.4,1.964,1.091,2.509.109-1.473-1.8,3.436-1.418-.055-1.909,3,1.964h0l-1.036-1.691,1.364-.055-2.073-3.982-2.564-2.891,1.582-1.2,3.709.6-.327-3.273-1.527-3.709.218-1.255-.709-3.054-3.764.982-1.418,1.364h-4.091l-3.273-3.164-4.854-2.454-5.4-1.036Z" transform="translate(3062.546 -1435.95)" fill="#f2f2f2" stroke="#000" stroke-linejoin="round" stroke-width="0.545" fill-rule="evenodd"/>
    <path id="Georgia" d="M654.534,163.743l-4.091-1.582-4.2-.545-2.455-.6-.273.382,1.2,1.036,1.636.382,1.854,1.255,1.145,2.291-.164,1.473,2.945-.164,3.055,1.636,3.764-.545.6-.545,2.291.982,1.527.218.327-.382-1.745-1.855.6-.491-1.909-.764-1.145-1.364-2.782-.709-1.582.545-.6-.655Z" transform="translate(3062.546 -1435.95)" fill="#f2f2f2" stroke="#000" stroke-linejoin="round" stroke-width="0.545" fill-rule="evenodd"/>
    <path id="Indonesia" d="M901.021,347.612l.273-.927-.982-1.036-1.527-1.091-2.891.709,3.818,2.4,1.309-.055Zm11.4-.327,2.182-2.618.055-1.036-.273-.709-3.109,1.418-1.527,2.127-.382,1.145.327.436,2.727-.764ZM893,340.194l-.873,1.2-1.691.055-1.2,1.964,1.636.055,2.127-.491,3.6-.655-.654-1.527-1.909.327L893,340.194Zm15.327,0-2.836,1.255-2.073.273-1.855-1.036-2.455.709L899,342.649l4.036.436,4.691-.982.6-1.909Zm-43.363-4.582-.382-1.255-1.255-.273-2.4-1.309-3.709-.218-2.236,3.327,2.782.218.436,1.527,5.454,1.418,1.309-.436,2.236.327,3.436,1.309,2.836.655,3.164.273,2.782-.109,3.218,1.364,3.6-1.309-3.6-2.073-4.527-.6-.982-2.236-5.618-1.691-.709,1.418-5.836-.327Zm79.962-1.964.109-1.636-.655-1.036-.709,1.2-.654,1.2.164,2.618ZM922.566,324.1l-.764-1.145-3.109.164.545,1.473,2.127.655,1.2-1.145Zm9.873-1.309-3.327-.982-3.764.164-.818,1.909,2.127.109,1.745-.218,2.509.273,2.564,1.418-1.036-2.673Zm11.454-6.709-.436-1.309-4.909-1.418-1.582,1.145-4.145.818,1.255,1.745,2.727.655,1.145,2.018,4.527.055.218.873-2.182-.055-3.382,1.255,2.291,1.691-.055,1.527.655,1.255,1.145-.273.982-1.691,4.473,3.218,2.509.273,5.782,2.945,1.255,2.891.545,3.764-2.018.982-1.527,2.836,3.873-.109.873-.982,3,.709,2.509,2.836.818-11.345.545-11.291-3.273-.655-2.236-1.255-2.564-1.2h-2.727l-3.6,2.073-2.673,3.709L944.6,321.7Zm-27.272-8.945-.545-.764-3,2.509-3.545.164-3.873-.491-2.4-1.036-2.564,2.618-.655,1.418-1.582,5.236-.491,2.727-1.309,2.291.873,2.345,1.255.055.327,3.327-1.036,3.218,1.255,1.036,1.964-.545.164-4.964-.109-4.036,2.073-1.036-.382,3.382,2.127,2.018-.436,1.364.709.927,3.054-1.309-1.636,2.836,1.145,1.2,1.691-1.036.164-2.236-2.564-4.036.6-1.2-2.782-4.418,2.727-1.364,1.418-2.018,1.309.491.273-1.582-5.727,1.145-1.691,1.582-2.727-3.054.491-2.618,2.673-.545,5.073-.164,2.945.709,2.345-.709,2.4-3.436Zm10.582,1.036-.327-1.418-1.8-.327-.273-1.909-.982,1.255-.545,2.782.927,4.473,1.2,2.182.873-.436-1.255-1.8.491-2.127,1.582.327.109-3Zm-33.218-2.454.491-1.582-2.345-3.273,1.636-3.164-2.727-.545h-3.491l-.927,3.927-1.091,1.2-1.473,4.854-2.454.709-2.945-.982-1.473.327-1.745,1.745-1.964-.218-1.964.655-2.127-1.909-.545-2.345-1.8,2.291-.327,3.218.436,3.055,1.418,2.945,1.527.982.382,4.636,2.509.436,1.964-.218,1.091,1.691,3.654-1.255,1.527,1.091,2.182.218,1.091,2.127,3.545-1.582.436,1.255,1.364-5.291.164-3.491,3-2.345-.109-3.164.982-2.345,3.654-.436-3.545-3.218Zm-37.472,26.672.382-5.345.927-4.364L856.4,320.5l-2.236-.273-1.036-1.964-.491-2.4-1.091-.109-1.745-1.2,1.255-2.836-2.345-1.582-1.8-2.891-2.618-2.4-3.109-.055-3-3.709-1.745-1.473-2.455-2.345-2.836-3.382-4.8-.655-1.964-.164.327,1.745,3.327,3.818,2.4,1.964,1.691,3,2.782,2.182,1.2,2.673.927,3,2.673,2.891,2.236,4.854,1.473,2.618,2.236,2.836,1.2,2.073,3.818,2.836,2.454,2.891,3.382-.055Z" transform="translate(3062.546 -1435.95)" fill="#f2f2f2" stroke="#000" stroke-linejoin="round" stroke-width="0.545" fill-rule="evenodd"/>
    <path id="India" d="M771.314,207.324l-4.636-2.4-3.382-2.182-1.745-3.818,2.236.491-.327-1.8-1.636-1.8-.436-2.836-4.145-4.091-2.018,2.945-3.109.545-4.636-.873-1.036,1.527,1.745,3.055,1.582,2.345,2.727,1.691-2.018,2.018.545,2.454-2.127,3.436-1.145,3.545-2.455,3.654-3.491-.273-2.673,3.6,2.182,1.582.709,2.673,1.909,1.745.982,3h-6.545l-1.745,2.291L740.5,232.8l1.036,1.364-1.309,1.255,4.364,4.2,2.182.436,4.145-2.073.927,3.218.436,4.254,1.364,4.418,1.964,6.709,3.164,4.8.709,2.127,1.091,4.364,1.855,3.327,1.2,1.636,1.364,3.491,1.691,4.854,3,3.273,1.2-.982.927-2.4,2.727-.982-.982-1.145,1.2-2.618,1.582-.164-.382-5.891,1.036-3.327-.382-2.891-1.036-4.473.654-2.673,1.364-.164,2.618-1.255,1.418-.873-.164-1.582,2.727-2.291,2.018-2.182,2.891-4.091,4.036-2.291,1.309-2.073-.491-2.618,3.6-.709,2.018.055.273-1.309-.873-2.836-1.418-2.618.218-2.073-2.018-.927.436-1.255,1.691-1.309-2.509-1.855.655-2.345,2.618,1.473,1.473.218.654,2.4,2.945.491,2.727-.055,1.855.6-.873,2.891-1.309.218-.6,1.964,1.909,1.8.109-2.182.818-.055,2.455,5.509,1.309-.818-.491-1.473.491-1.145-.491-3.6,2.509.764.818-2.836-.164-1.691,1.145-2.945-.491-1.964,3.327-2.4,2.236.6-.709-2.127.873-.655-.491-1.309-3.327-.491.655-1.473-1.909-2.127-1.745,1.418-2.673-.818-2.891,2.182-2.127,2.618-2.291.436,1.473,1.091.218,2.127-2.4.109-2.564-.218-1.745.545-3-1.364-.164-.655-.818-2.782-1.636.764.055,1.473.818,2.236-.055,1.364-2.509.055-3.709-.818-2.345-.327-2.073-1.745-4.145-.491-4.2-1.909-3.164-1.691-3.109-1.364.491-3.218,1.527-1.582Z" transform="translate(3062.546 -1435.95)" fill="#f2f2f2" stroke="#000" stroke-linejoin="round" stroke-width="0.545" fill-rule="evenodd"/>
    <path id="Iran" d="M661.9,176.942l-1.745-1.582-.655-1.309-1.8.982,1.582,3.982-.382,1.091,2.018,2.836h0l2.564,4.254,2.018,1.036.545,2.073-1.255,1.2-.273,2.727,2.509,3.327,3.818,1.855,1.909,2.673-.109,2.509h.927l.273,1.8,1.855,1.855.927-1.364,2.018,1.145,1.527-.545,2.782,4.582L685.3,215.4l3,.982,3.327,2.673,3.764,1.145,2.782-1.691,2.182-.6,1.527.6,1.745,4.254,3.436.436,3.327.818,5.727,1.036.654-4.036,4.036-1.8-.491-1.582-1.473-.545-.545-3.109-3.054-1.473-1.527-2.127-1.745-1.8,2.127-3.164-.6-2.182-2.345-.6-.6-2.182-1.473-2.782.873-1.909-1.364-.491.273-2.564.273-4.364-.873-3-2.127-.109-3.982-3.109-2.345-.382-3.545-1.8-2.073-.327-1.145.655-1.909-.109-1.636,2.018-2.4.655-.109.873-4.309.927-4.145-.6-2.345-1.8-2.836-.709-1.364-2.618-.709.164-2.073-1.855.655-1.691-1.036-1.036-1.036.273-2.891,2.564-.982.109-2.018-.491Z" transform="translate(3062.546 -1435.95)" fill="#f2f2f2" stroke="#000" stroke-linejoin="round" stroke-width="0.545" fill-rule="evenodd"/>
    <path id="Iraq" d="M658.516,182.67l-3.382-.491-1.145.545-1.145,2.236-1.473.873.654,2.564-.491,4.254-6,3.654,1.691,4.2,3.654.927,4.636,2.454,9.109,6.927,5.564.273,1.745-3.327,2.018.273,1.745.218-1.855-1.855-.273-1.8h-.927l.109-2.509-1.909-2.673-3.818-1.855-2.509-3.327.273-2.727,1.255-1.2-.545-2.073L663.48,187.2l-2.564-4.254h0l-1.255.6-1.145-.873Z" transform="translate(3062.546 -1435.95)" fill="#f2f2f2" stroke="#000" stroke-linejoin="round" stroke-width="0.545" fill-rule="evenodd"/>
    <path id="Israel" d="M636.971,196.633l-.764.055-.218.6h-.982l-.055.055-.327.873-.327,2.618-.6,1.582.218.218-.764,1.145h0l2.127,5.018.382.927.927-5.564-.218-1.309-1.309.436.055-.927.655-.436-.764-.382.382-2.345,1.091.491.382-1.091h-.055l.327-.545-.164-1.418Z" transform="translate(3062.546 -1435.95)" fill="#f2f2f2" stroke="#000" stroke-linejoin="round" stroke-width="0.545" fill-rule="evenodd"/>
    <path id="Jordan" d="M647.225,200.506l-1.691-4.2L640.3,199.96l-3.436-1.364-.382,1.091.218,2.127-.327,1.036.218,1.309-.927,5.564.164.491,3.327.545,1.145-1.091.6-1.255,2.182-.436.382-1.2.927-.545-3.327-3.491,5.673-1.691.491-.545Z" transform="translate(3062.546 -1435.95)" fill="#f2f2f2" stroke="#000" stroke-linejoin="round" stroke-width="0.545" fill-rule="evenodd"/>
    <path id="Japan" d="M923.166,193.579l-2.454-.709-.6,1.473-1.8-.436-.709,2.073.655,1.636,2.291.982-.055-2.018,1.145-.818,1.691,1.145.709-2.127-.873-1.2Zm13.309-10.527-1.964-3.654.709-3.491-1.527-2.836-4.418-4.745-2.618.655.109,2.127,2.782,3.873.545,4.309-.927,1.364-2.455,3.545-2.727-1.691v6.273l-3.436-.709-5.236,1.036-1.036,2.4-2.127,1.8-.6,2.182-2.345,1.091,2.182,2.345,2.236,1.036.491,3.109,1.909,1.364,1.364-1.473-.436-5.891-3.982-2.564,3.327-.055,2.727-1.636,4.691-.764,1.309,2.618,2.509,1.309,2.4-3.982,4.964-.218,2.945-1.636.327-2.509-1.364-1.745-.327-2.836Zm-6.436-24.109-2.891-1.145-5.673-3.491,1.036,2.618,2.345,4.636-2.836.218.327,2.564,2.509,3.327h3.109l-.873-3.709,5.891,2.291.218-3.327,3.491-.927-3.273-3.764-.927,1.418-2.454-.709Z" transform="translate(3062.546 -1435.95)" fill="#f2f2f2" stroke="#000" stroke-linejoin="round" stroke-width="0.545" fill-rule="evenodd"/>
    <path id="Kazakhstan" d="M713.879,122.071l-4.909-.709-1.691,1.364-5.891,1.2-.927.818-9.164,1.145-.764,1.145,2.727,2.236-2.127.873.818.927-1.964,1.582,5.127,2.291-.109,1.636-3.764-.164-.436.982-3.982-1.745-4.145.109-2.345,1.364-3.6-1.309-6.491-2.345-4.091.109-4.418,3.6.382,2.509-3.273-1.964-1.145,3.709.927.655-.927,2.564L660.589,147l1.964-.109,2.291,2.236.109,1.745,1.527.545,2.4-.709,2.727-1.473,2.564.818,2.673-.164,1.036,2.127.327,3.273L675.7,154.8l-2.182.545.491,2.455-2.727-.327.327,1.091,1.745.873,2.018,3,3.491,1.145.818,1.145-.382,1.418.382.818.982-1.091,3-.709,2.073.927,2.673,2.673,1.364-.164-3.382-12.436,6.491-1.964.6.273,4.964,2.454,2.618,1.255,3.545,3,3.109-.491,4.691-.273,4.091,2.454.818,3.382,1.364.055,1.418,2.727,3.6.109,1.255,1.636h1.036l.491-2.454,2.945-2.345,1.364-.655.164-1.473,1.691-.436,4.964,1.145-.273-1.964,1.364-.709,4.418,1.418.873-.382,4.691.109,4.255.327,1.8,1.2,1.909.491-.927-1.909,1.582-.873-4.745-5.836,4.909-1.309,1.091-.764-.545-6.054,5.836,1.091.873-1.527-1.364-3.382,2.073-.327.982-2.291L764.06,139.8l-3.273.491-1.8-1.418-2.127-.655-2.236-1.964-1.745-.6-3.382.873-4.527-1.964-.6,1.8-9.873-8.454-4.527-2.564.436-1.036-4.964,3.109-2.4.218-.654-1.8-3.818-1.145-2.345.818-2.345-3.436Z" transform="translate(3062.546 -1435.95)" fill="#f2f2f2" stroke="#000" stroke-linejoin="round" stroke-width="0.545" fill-rule="evenodd"/>
    <path id="Kyrgyzstan" d="M756.642,165.052l-1.909-.491-1.8-1.2-4.255-.327-4.691-.109-.873.382-4.418-1.418-1.364.709.273,1.964-4.964-1.145-1.691.436-.164,1.473.982.327-1.691,2.236,2.509,1.255,1.745-.873,3.873,1.8-2.836,2.455-2.236-.327-.764,1.091-3.218-.6.327,2.018,2.945-.273,3.873,1.091,5.182-.491.545-.818-.6-.818,2.182-1.636,1.745-.655,3.109.491.327-2.182,3.491-.436.545-1.309,3.709-1.855.109-.764Z" transform="translate(3062.546 -1435.95)" fill="#f2f2f2" stroke="#000" stroke-linejoin="round" stroke-width="0.545" fill-rule="evenodd"/>
    <path id="Cambodia" d="M858.967,262.8l-2.836-1.255-1.091,2.345-2.673-1.309-2.891-.545-3.873.709-1.636,2.836,1.145,4.2,1.855,3.6,1.418,1.8,2.564.491,2.564-1.364,3.164-.273-1.527-2.073L860,269.286l-.055-4.2-.982-2.291Z" transform="translate(3062.546 -1435.95)" fill="#f2f2f2" stroke="#000" stroke-linejoin="round" stroke-width="0.545" fill-rule="evenodd"/>
    <path id="Korea" d="M893.058,180.924l3.382,3-1.855.6,2.836,3.709.6,2.618,1.145,1.909,2.454-.273,1.745-1.473,2.291-.655.273-1.964-1.854-4.091-1.8-2.291L897.8,177.87l.055.873-1.145.218-1.909.164-.382,1.582-1.309-.109-.055.327Z" transform="translate(3062.546 -1435.95)" fill="#f2f2f2" stroke="#000" stroke-linejoin="round" stroke-width="0.545" fill-rule="evenodd"/>
    <path id="Kuwait" d="M673.952,208.033l-2.018-.273-1.745,3.327,2.673.327.927,1.691,2.073-.109-1.309-2.618.164-.818-.764-1.527Z" transform="translate(3062.546 -1435.95)" fill="#f2f2f2" stroke="#000" stroke-linejoin="round" stroke-width="0.545" fill-rule="evenodd"/>
    <path id="Lao_PDR" data-name="Lao PDR" d="M858.967,262.8l.109-3.491-1.091-2.455-2.618-2.4-2.345-3.054-3.109-4.091-3.982-2.073.709-1.255,1.8-.927-1.636-3L843.095,240l-1.854-3.109-2.182-2.782-1.473.545,1.036,3.927-1.582-.055-.382-.818-2.236,2.236-.436,1.309,1.418,1.036.491,2.073,2.073.164-.218,3.654.545,3.109,2.891-2.073.982.655,1.745-.109.436-1.2,2.345.218,2.673,2.836.709,3.436,2.836,3,.273,2.945-.818,1.582,2.673,1.309,1.091-2.345,2.836,1.255Z" transform="translate(3062.546 -1435.95)" fill="#f2f2f2" stroke="#000" stroke-linejoin="round" stroke-width="0.545" fill-rule="evenodd"/>
    <path id="Lebanon" d="M636.971,196.633l.491-1.909,1.418-1.309-.654-1.364-1.309-.164-.055.109-1.145,2.455-.709,2.836h.982l.218-.6.764-.055Z" transform="translate(3062.546 -1435.95)" fill="#f2f2f2" stroke="#000" stroke-linejoin="round" stroke-width="0.545" fill-rule="evenodd"/>
    <path id="Sri_Lanka" data-name="Sri Lanka" d="M781.187,290.559l1.255-.982.327-3.6-1.636-3.6-1.582-2.454-2.236-1.909-1.036,5.618.764,4.964,1.527,2.782,2.618-.818Z" transform="translate(3062.546 -1435.95)" fill="#f2f2f2" stroke="#000" stroke-linejoin="round" stroke-width="0.545" fill-rule="evenodd"/>
    <path id="Myanmar" d="M836.659,237.705l-.327-1.418-2.073.982-1.364-.655-2.455-1.309.436-2.836-2.018-.709L827.6,228.6l-3.054.545-.382-4.091,2.236-2.891-.436-2.891-.709-2.673-1.473-.818-1.473-2.018-1.636.218.491,1.309-.873.655.709,2.127-2.236-.6-3.327,2.4.491,1.964-1.145,2.945.164,1.691-.818,2.836-2.509-.764.491,3.6-.491,1.145.491,1.473-1.309.818.273,2.509-1.145-.545.6,2.782,2.509,2.836,1.855.491-.218,1.2,2.945,4.036,1.036,3.218-.491,4.309,1.964.818,1.745.327,3.164-2.509,1.745-1.691,1.691,2.836,1.091,4.418,1.418,4.145,1.418,1.8.109,3.764,1.2,2.073L833,275.014l.491,2.618,1.2-3.6,1.418-3.218-1.527-3.164-.109-1.636-.545-1.909-2.291-2.782-.927-1.745.927-.6.764-3.055-1.582-2.291-2.236-2.509-1.909-3.054,1.2-.6.818-3.764,2.127-.164,1.527-1.527,1.636-.764.436-1.309,2.236-2.236Z" transform="translate(3062.546 -1435.95)" fill="#f2f2f2" stroke="#000" stroke-linejoin="round" stroke-width="0.545" fill-rule="evenodd"/>
    <path id="Mongolia" d="M803.823,137.507,801.8,135l-3.6-.818-2.618-.436-3.764-1.364-.709,3.491,2.182,1.964-1.309,2.345-4.309-.873-2.727-.109-2.564-1.582-2.782-.055-2.891-1.036-3.218,1.582-3.6,2.945-2.564.545,1.8,2.4,3.109,1.8,4.418,1.255,3.164,2.727.709,3.982,1.636,1.473,3.491.545,3.927.491,4.309,2.073,1.854.382,2.673,3.109,2.564,1.964,3-.055,6.109.709,3.491-.436,3,.491,5.073,2.073,3.382-.055,1.745,1.091,2.4-1.8,3.927-1.2,4.091-.109,2.673-1.2,1.036-1.8,1.364-1.091-1.036-1.145-1.582-1.255.218-2.182,1.745.273,3.218.709,1.691-1.8,3.436-1.309.764-2.236,1.309-.982,3.709-.436,2.345.382-.382-1.2-3.927-2.345L851,145.8l-1.364,1.255-2.945-.545-1.309.436-1.473-1.418-.164-3.382-.327-2.509-3,.273-2.127-1.145-1.8-.382-2.455,2.4-3.164.545-1.964.873-3.654-.545H822.8l-2.673-1.691-3.545-1.636-2.945-.436-3.109.436-2.127.6-4.582-1.418Z" transform="translate(3062.546 -1435.95)" fill="#f2f2f2" stroke="#000" stroke-linejoin="round" stroke-width="0.545" fill-rule="evenodd"/>
    <path id="Malaysia" d="M841.949,290.559l-2.564-1.527-.491.6.764,1.473-.218,2.564,1.145,1.855.545,2.891,1.854,2.345.436,1.745,3.654,2.727,2.945,2.618,2.182-.273.055-1.145L851,303.377l-1.145-.982-.273-2.073-.327-1.145.273-1.582-.273-2.345L847.84,292.9l-1.909-2.073-.709-.327-.927,1.418-2.018.436-.327-1.8Zm54,6-.655-1.691,2.073-.218.164-1.309-2.618-1.091-2.073-.927-.218-1.527-1.691-1.745h-1.255l-1.364,2.727-2.236,2.4-.055,1.691-.055,2.236-1.473-.109-.6,1.2-1.473-1.8L881,298.577l-2.073,2.727-3.654.764-1.309.655-.491,2.945-2.4.655-2.236-1.2.545,2.345,2.127,1.909,1.964-.655,1.964.218,1.745-1.745,1.473-.327,2.945.982,2.454-.709,1.473-4.854,1.091-1.2.927-3.927h3.491l2.727.545Z" transform="translate(3062.546 -1435.95)" fill="#f2f2f2" stroke="#000" stroke-linejoin="round" stroke-width="0.545" fill-rule="evenodd"/>
    <path id="Nepal" d="M793.732,215.342l-3.545-.327L786.7,214.2l-2.727-1.527-2.454-.655-1.364-1.691-1.745-.491-3.491-2.236-2.564-1.091-1.036.818-1.527,1.582-.491,3.218,3.109,1.364,3.164,1.691,4.2,1.909,4.145.491,2.073,1.745,2.345.327,3.709.818,2.509-.055.055-1.364-.818-2.236-.055-1.473Z" transform="translate(3062.546 -1435.95)" fill="#f2f2f2" stroke="#000" stroke-linejoin="round" stroke-width="0.545" fill-rule="evenodd"/>
    <path id="Oman" d="M709.624,238.8l1.145-1.091.436-.982.873-2.073-.055-.764-1.145-.436-.873-1.145-1.582-2.018-1.8-.6-2.236-.491-1.8-1.255-1.582-2.345h-1.527l-.055,2.291.6.436-1.309.709.164,1.418-.764,1.418.055,1.418,1.582,2.454-1.418,6.927-8.782,3.491,2.836,5.727,1.145,2.4,1.364-.164,1.964-1.2,1.691.327,1.364-.982-.109-1.364,1.145-.873h1.854l.655-.709.109-1.691,1.8-1.309h1.418l.218-.436-.545-2.291.327-1.745.545-.818,1.364.164.927-2.4Zm-9.054-16.582.109-1.418-.382-.327-.709,1.2.709,1.2Z" transform="translate(3062.546 -1435.95)" fill="#f2f2f2" stroke="#000" stroke-linejoin="round" stroke-width="0.545" fill-rule="evenodd"/>
    <path id="Pakistan" d="M757.242,188.888l-5.127-1.418-1.582-2.727-2.564-1.636-1.527.382-1.309.655-3.164.436-2.891.709-1.309,1.527,1.036,1.527.764,1.745-1.091,1.473.436,1.364-.491,1.255-2.782-.109,1.636,2.291-1.636.873-.818,2.073.6,2.073-.927.982-1.145-.327-2.182.491-.109.927h-2.182l-1.255,1.964.436,2.945-3.6,1.418-2.073-.273-.491.764-1.8-.436-2.891.491-5.236-1.745,1.745,1.8,1.527,2.127,3.054,1.473.545,3.109,1.473.545.491,1.582-4.036,1.8-.654,4.036,4.145-.491,4.854-.055,5.4-.655,2.673,2.618,1.145,2.509,2.291.873,1.745-2.291h6.545l-.982-3-1.909-1.745-.709-2.673-2.182-1.582,2.673-3.6,3.491.273,2.454-3.654,1.145-3.545,2.127-3.436-.545-2.455,2.018-2.018-2.727-1.691-1.582-2.345-1.745-3.054,1.036-1.527,4.636.873,3.109-.545,2.018-2.945Z" transform="translate(3062.546 -1435.95)" fill="#f2f2f2" stroke="#000" stroke-linejoin="round" stroke-width="0.545" fill-rule="evenodd"/>
    <path id="Philippines" d="M918.857,282.868l-.327-1.255-.436-1.745-2.618-1.636.436,2.673-2.127.109-.382,1.527-2.291.927-1.2-1.527-1.527,1.309-1.854.927-1.036,2.945.6,1.036,2.127-1.964,1.473.164.818-1.473,2.073,1.636-.818,1.691,1.036,2.509,3.709,2.018.764-1.636-1.145-2.564,1.309-1.745,1.364,3.491.818-3.164-.327-1.909-.436-2.345Zm-7.909-6.436V273.1l-1.964,3.327.273-2.291-1.636.164-.164,2.182-.654.982-.545.927,2.073,2.4.873-1.036.764-2.182.982-1.145Zm-16.418,3.327,1.418-2.4,1.854-1.909-.818-2.836-1.309,3.436-1.582,2.4-2.073,2.182-1.309,2.4,3.818-3.273Zm9.491-8.945.654,1.636-.055,1.8.273,1.582,1.8-1.036L908,273.323l-.109-1.418H905.93l-1.909-1.091Zm10.909-.927-.982-1.309L911,268.523l2.182,2.618.164,1.309-1.8-.273.654,2.127.927.164.382,2.454,1.364-.764-.927-2.182-.218-1.145,2.454.927-1.255-3.873Zm-12.491-3.164-1.2-1.255-2.618-.109,1.855,2.618L902,269.723l.436-3Zm-3.491-18.872h-1.8l-.491,3.164.6,5.4-1.418-1.091.654,3.273.655,1.527,1.8,2.018.218-1.255.982.764-.818.927.055,1.418,1.582.764,2.727-.491,2.182,2.073.6-1.309,1.364,1.855,2.618,1.691.109-1.582-1.091-.873.055-1.854-4.091-1.964-1.255.436-1.691-.382-1.091-2.782.055-2.782,1.636-1.145.327-2.891-1.473-2.509.218-1.418-.382-.873-.818.873-2.018-.982Z" transform="translate(3062.546 -1435.95)" fill="#f2f2f2" stroke="#000" stroke-linejoin="round" stroke-width="0.545" fill-rule="evenodd"/>
    <path id="Dem._Rep._Korea" data-name="Dem. Rep. Korea" d="M897.094,164.888h0l-3-1.964.055,1.909-3.436,1.418,1.473,1.8-2.509-.109-1.964-1.091-.545,2.4-2.073,1.855-1.145,2.182,1.8.927,1.855.382.436.545.218,1.909.6.655-.491.382-.055,1.582,1.036.545.873.327.436.655.709-.273v-.709l1.691.709.055-.327,1.309.109.382-1.582,1.909-.164,1.145-.218-.055-.873-2.345-1.527-1.418-.545.109-.382-.655-1.527.709-.927,1.582-.545.545-1.036.164-.6,1.036-.764L896,167.561l.164-1.145.491-1.091,1.2.164h0l-.764-.6Z" transform="translate(3062.546 -1435.95)" fill="#f2f2f2" stroke="#000" stroke-linejoin="round" stroke-width="0.545" fill-rule="evenodd"/>
    <path id="Palestine" d="M636.48,199.688l-1.091-.491-.382,2.345.764.382-.654.436-.055.927,1.309-.436.327-1.036-.218-2.127Z" transform="translate(3062.546 -1435.95)" fill="#f2f2f2" stroke="#000" stroke-linejoin="round" stroke-width="0.545" fill-rule="evenodd"/>
    <path id="Qatar" d="M686.17,226.633l.436-2.073-.273-2.018-1.036-1.091-.764.382-.6,1.8.436,2.564.982.655.818-.218Z" transform="translate(3062.546 -1435.95)" fill="#f2f2f2" stroke="#000" stroke-linejoin="round" stroke-width="0.545" fill-rule="evenodd"/>
    <path id="Russia" d="M726.7,51.872l-2.455-2.182-7.418-2.236L711.7,46.308l-3.382.491-2.891,1.582,3.164.436,3.6,1.745,4.364.927,6.273.709,3.873-.327ZM629.226,47.89l.491-.327-3.109-.491-1.527.382-.709.545-.818-.655-2.836.055-3.382.436,4.2.055-.6.709,2.4.545,1.964-.382.055-.382,1.582-.164,2.291-.327Zm109.362,5.4-.818-.982-6.818-1.418-1.636-.164-1.2.273.654,3.273,9.818-.982Zm8.291,3.436-5.018-.382,1.855-.655-4.473-.818-3.327,1.036L735.37,57l.818,1.145-3.764-.055-2.891,1.418-2.345-.6-5.073.273.164.709-5.018.382-2.673,1.309-2.291.109-.654,1.8,3,1.418-4.2.382-5.182-.164-3.164.6,2.618,2.945,3.764,2.345-5.236-1.636-4.309.164-2.782,1.091,2.454,2.073-2.673-.545-1.145-2.727L692.5,67.908l-.982.055,1.964,2.018L690.97,71.89l4.418,2.291.218,2.945,1.582,1.582,2.564.273.218,1.909,2.4,1.691L701.334,84l.273,1.473-2.018.764-.273,1.091-2.891-.436,1.909-4.254-.273-1.964-3.654-1.8-2.073-3.982-2.018-2.018L688.352,72l.436-2.291-1.582-1.582-6.164-.764-1.145.545.273,2.564-2.345,2.564.655.927,2.564,2.236.055,1.418,2.891.273.436.6,3.164,1.582-.545,1.527-10.091-3.327-3.6-.927-6.982-.873-.655.927,3.218,1.691-1.473,1.964-3.491-1.745-2.727,1.2-4.145.055L655.953,81.6l-2.891-.327,1.364-1.8-1.745-.109-6.709,2.509-4.145,1.418.218,1.909-3.273.655-2.182-1.036-.654-1.636,2.727-.382L636.7,81.162l-6.654-.982,2.345,1.855-.436,1.745,2.564,1.8-.6,2.073-2.509-1.036-2.182-.164L624.862,89.4l2.291,2.236-1.745.764-6.218-1.909-1.145,1.145,1.8,1.309.109,1.473-2.073-.764-3.273-.927-1.036-3.164-.545-1.418-4.364-2.182,1.582-.382,10.963,2.291,3.491-.818,2.018-1.582-.873-1.964-2.182-1.418-9.6-3.327-6.327-.709-4.145-1.745-1.964.982h0l-3.491,1.2-1.745.273.218,2.018,3.927,2.018-1.527,2.236,3.491,3.436-.927,2.618,2.673,2.236-.491,2.018,3.982,2.127-.491,1.582-1.8,1.8-4.309,4.036h0l2.891,1.527-2.454,1.745h0l.491.545-1.418,1.855,1.364,3-.873,1.036,1.309.764.545,1.527,1.145,1.964,2.836.818.545.764,1.255-.382,2.618.764.545,1.582-.327.873,2.018,2.127,1.2.6-.055.6,1.855.6.927.873-.873.709-2.127-.109-.436.327.818,1.091,1.091,2.127h0l.982.109.545-.764.818.164,2.618-.273,2.073,1.855-.491.709.382,1.036,2.182.109,1.2,1.473.109.655,3.6,1.2,1.909-.545,1.964,1.582,1.582-.055,4.145,1.091.218,1.036-.709,1.745.982,1.855-.164,1.145-2.564.273-1.2.927.218,1.527,2.291-.545.218.709-3.709,1.418,1.745,1.309-1.745,2.836-1.855.545,2.727,1.964,3.382,1.309,4.036,2.782.273-.382,2.454.6,4.2.545,4.091,1.582.6.655,1.582-.545,2.782.709,1.145,1.364,1.909.764.818.109,2.345,2.073,1.309.218.273-.818,1.418-1.364h0l-3.982-3.982-.218-2.236L661.3,157.47l1.909-3.436,2.509-.6.764-2.018-1.527-.545-.109-1.745-2.291-2.236-1.964.109-2.891-2.345.927-2.564-.927-.655,1.145-3.709,3.273,1.964-.382-2.509,4.418-3.6,4.091-.109,6.491,2.345,3.6,1.309,2.345-1.364,4.145-.109,3.982,1.745.436-.982,3.764.164.109-1.636-5.127-2.291,1.964-1.582-.818-.927,2.127-.873-2.727-2.236.764-1.145,9.164-1.145.927-.818,5.891-1.2,1.691-1.364,4.909.709,2.345,3.436,2.345-.818,3.818,1.145.655,1.8,2.4-.218,4.964-3.109-.436,1.036,4.527,2.564,9.873,8.454.6-1.8,4.527,1.964,3.382-.873,1.745.6,2.236,1.964,2.127.655,1.8,1.418,3.273-.491,2.345,2.073.927-.273,2.564-.545,3.6-2.945,3.218-1.582,2.891,1.036,2.782.055,2.564,1.582,2.727.109,4.309.873,1.309-2.345-2.182-1.964.709-3.491,3.764,1.364,2.618.436,3.6.818,2.018,2.509,4.582,1.418,2.127-.6,3.109-.436,2.945.436,3.545,1.636,2.673,1.691h2.454l3.654.545,1.964-.873,3.164-.545,2.454-2.4,1.8.382,2.127,1.145,3-.273,3.982,1.255,2.4-2.127-1.036-1.473-.055-3.545.655-1.091-1.364-1.8-2.018-.818.927-1.636,2.782-.6,3.382-.109,4.636.982,3.218,1.255,4.2,3.327,2.073,1.473,2.4,2.018,3.327,3.327,5.4,1.036,4.854,2.454,3.273,3.164h4.091l1.418-1.364,3.764-.982.709,3.054-.218,1.255,1.527,3.709.327,3.273-3.709-.6-1.582,1.2,2.564,2.891,2.073,3.982-1.364.055,1.036,1.691h0l.764.6h0l-.218-1.091,2.182-2.455,2.782,1.636,1.745-.055,2.4-1.964.545-2.018,1.145-3.873,1.036-3.927-.709-2.345.545-4.909-2.836-5.4-3-3.982-.709-3.382-2.564-2.782-6.927-3.654-3.055-.218-.164,1.636L886.894,126l-3.109-2.073-4.364-.382,2.673-7.691L884,109.58l7.145-.982,8.127.545,1.364-1.527,4.309.436,2.345,2.345,3.491-.327,4.582-.873-4.2-1.909v-5.345l4.964-1.036,6.6,3.873,1.964-3.491-1.745-2.564,2.564-.273,3.545,4.418-1.309,2.509-.436,3.273.164,4.091-3.109.709,1.527,1.473-.055,1.964,3.491,4.527,8.727,7.309,5.727,4.8,3.109,2.345.873-3.109-2.454-3.382,3.109-.818-2.945-3.764,2.727-1.691-2.564-1.418-1.854-2.727,2.236-.109-4.909-4.691-3.654-.764-1.582-1.309-.6-3.054-1.691-2.127,3.818.436.709-1.364,2.564,1.2L944,104.671l6.218,2.182-.927-1.418,1.091-1.964.818-2.182,1.691-.382,3.545-2.345,5.345.655-.491-.818-2.073-1.255-2.236-.873-4.964-2.509L947.6,92.126l3.327.218,1.091-1.364h0L934.076,79.035l-5.127-1.255-8.563-1.418-4.309.164-8.291-.764.982,1.255,4.636,1.855-1.364.982-7.745-2.618-3.709.327-5.018-.6-3.818.109-2.127.6-3.927-.873-2.782-2.073-3.545-1.2-5.018-.491-8.018.545L857.55,71.4,853.3,69.762l-21.872-1.855-1.145,1.2,5.073,2.618-4.091-.382-.545.818-5.291-.873-2.727.764-5.073-1.309,1.636,3L814.405,72.6l-5.454-2.236-.218-1.2-3.273-1.8-5.345-1.418h-3.327l-5.073-.491,2.564,2.127-9.382-.436-2.127-1.255-7.254-.491-2.891.436-.055.709L769.406,64.8l-1.255.491-3.927-.655-3.054-.382.6-.818,3.6-1.527,1.255-.818-1.309-1.364-3-1.036-6.273-1.255-5.891-.055-1.036.655-2.236-1.309ZM658.407,73.962l-5.4-2.345-1.691-2.345,1.8-2.673,1.527-2.727,4.691-2.564L664.68,60l6.164-1.309.709-.818-2.291-1.036-3.6.327-2.673.982-6.382.491L651.1,60.326,647.389,61.8l1.364,1.2-3.6,2.4,2.127.382-2.945,2.345.873,1.527-1.854.6,1.036,1.527,4.309.764,1.2,1.255,7.309.382,1.2-.218ZM829.677,60.49l-9.763-1.418-5.564-.109-1.854.491,1.854,1.855,6.764,1.745,2.455-.655,7.745.109-1.636-2.018Zm13.745,1.255-6.382-.709-4.473-.382.927.873,5.618,1.091,3.709.218.6-1.091ZM836.6,66.926l-1.364-.764-4.527-1.036-2.236.273-.436,1.091.6.109,4.8.327H836.6Zm88.689,6.709-3.273-1.964-.764,1.2,1.909.873ZM591.263,124.852l-.327-.818.109-.927-1.2-.491-2.727-.6-3.436,1.091-.382,1.418,3.218.382Zm321.649,11.891-3.927-3.382-2.782-3.273-3.709-3.164-2.673-2.182-.709.436,2.4,1.527-1.036,1.527,3.709,4.527,4.255,3.273,3.491,4.527,1.309,2.509,3,3.709,2.073,3.273,2.509,2.836-.055-2.618,3.545,2.073-1.636-2.4-5.182-3.436-2.018-4.909,4.854,1.091-7.418-5.945Z" transform="translate(3062.546 -1435.95)" fill="#f2f2f2" stroke="#000" stroke-linejoin="round" stroke-width="0.545" fill-rule="evenodd"/>
    <path id="Saudi_Arabia" data-name="Saudi Arabia" d="M670.189,211.087l-5.564-.273-9.109-6.927-4.636-2.454-3.654-.927-.491.545-5.673,1.691,3.327,3.491-.927.545-.382,1.2-2.182.436-.6,1.255-1.145,1.091-3.327-.545-.273,1.364v1.2l-.327,1.909H636.7l1.745,2.4,2.018,2.782,1.364,2.564.927.818.927,1.8-.109.764,1.145,2.018,1.636.709,1.527,1.364,1.964,3.818V235.8l.491,2.4,2.182,3.327,1.364.545,2.236,2.4,1.036,2.836L658.9,250.2l1.636,1.255.327,1.364.982,1.036.491,1.527,1.255-1.145-.382-1.473.655-1.691,1.309.927.818-.327,3.491-.109.545.382,2.945.327,1.145-.164.873,1.145,1.364-.545,1.909-3.654,2.727-1.582,8.563-1.309,8.782-3.491,1.418-6.927-1.582-2.454-.545.709-9.164-1.745-1.418-3.491-.218-.818-.654-1.309-.818.218-.982-.655-.545-.873-.491-1.145-.927-.982-.545-1.145.218-1.145-.327-1.473-2.182-1.418-.654-1.255L677.334,216l-1.473-3-2.073.109-.927-1.691-2.673-.327Z" transform="translate(3062.546 -1435.95)" fill="#f2f2f2" stroke="#000" stroke-linejoin="round" stroke-width="0.545" fill-rule="evenodd"/>
    <path id="Syria" d="M645.535,196.306l6-3.654.491-4.254-.654-2.564,1.473-.873,1.145-2.236-3.218.6-1.527-.109-3.109,1.364h-2.345l-1.636-.655-3,.982-1.036-.709.055,1.964-.654.818-.655.764-.545,1.418.6,2.727,1.309.164.654,1.364-1.418,1.309-.491,1.909.164,1.418-.327.545h.055l3.436,1.364,5.236-3.654Z" transform="translate(3062.546 -1435.95)" fill="#f2f2f2" stroke="#000" stroke-linejoin="round" stroke-width="0.545" fill-rule="evenodd"/>
    <path id="Thailand" d="M852.367,262.577l.818-1.582-.273-2.945-2.836-3-.709-3.436-2.673-2.836-2.345-.218-.436,1.2-1.745.109-.982-.655-2.891,2.073-.545-3.109.218-3.654-2.073-.164-.491-2.073-1.418-1.036-1.636.764-1.527,1.527-2.127.164-.818,3.764-1.2.6,1.909,3.054,2.236,2.509,1.582,2.291-.764,3.054-.927.6.927,1.745,2.291,2.782.545,1.909.109,1.636,1.527,3.164-1.418,3.218-1.2,3.6-.709,3.327-.164,2.127.655,1.964.382-2.073,1.582,1.691,1.745,1.909.6,1.745,1.309,1.309.491-.6,2.564,1.527.327,1.8,2.018-.436.927-1.418-1.691-1.8-1.855-.436-1.8-1.964-.764-3-1.418-3.164-2.018-.109-.382-2.509.764-3.054,1.2-5.073-.109-3.818,2.673-.055-.164,2.727,2.564-.055,2.891,1.582-1.145-4.2,1.636-2.836,3.873-.709,2.891.545Z" transform="translate(3062.546 -1435.95)" fill="#f2f2f2" stroke="#000" stroke-linejoin="round" stroke-width="0.545" fill-rule="evenodd"/>
    <path id="Tajikistan" d="M733.133,172.2l-1.145.109-.709-.982.109-1.582-3.491.818-.273,2.182-.818,1.909-2.4-.164-.327,1.527,2.291.873,1.309,2.564-.709,3.6.982.436,1.8-1.145,1.145.709.491-1.636,1.745.055.327-.491-.109-1.418.927-1.255,1.745.818v1.091l.873.164.545,2.945,1.418,1.145.818-.709,1.145-.382,1.364-1.582,2.073.273h2.945l-.982-2.018-.327-1.364-1.909-.764-.873.327-1.636-3.218-5.182.491-3.873-1.091-2.945.273-.327-2.018,3.218.6.764-1.091Z" transform="translate(3062.546 -1435.95)" fill="#f2f2f2" stroke="#000" stroke-linejoin="round" stroke-width="0.545" fill-rule="evenodd"/>
    <path id="Turkmenistan" d="M723.042,182.288l-.436-2.182-4.2-1.473-3.382-1.745-2.291-1.636-3.818-2.4-2.345-3.491-1.091-.655-3,.164-1.255-.709-1.036-2.673-4.254-1.8-1.8,1.964-2.073,1.2.873,1.691-3.164.055-1.364.164-2.673-2.673-2.073-.927-3,.709-.982,1.091,1.364,2.182-.273-2.454,2.018-.873,1.309,1.964,2.509,2.018-2.182,1.091-2.891-.818.055,2.836,1.909.218-.218,2.4,2.455,1.145.382,3.709.982,2.455,2.4-.655,1.636-2.018,1.909.109,1.145-.655,2.073.327,3.545,1.8,2.345.382,3.982,3.109,2.127.109.873,3,3.218,1.309,2.127-.436.218-1.636,2.182-.491L718.242,186l-.055-2.836,2.236-.655.164-1.255,1.582.927.873.109Z" transform="translate(3062.546 -1435.95)" fill="#f2f2f2" stroke="#000" stroke-linejoin="round" stroke-width="0.545" fill-rule="evenodd"/>
    <path id="Timor-Leste" d="M914.6,344.667l2.673-.982,3.273-1.527,1.2-.927-1.091-.436-.982.436-2.182.109-2.673.764-.436.818.273.709-.055,1.036Z" transform="translate(3062.546 -1435.95)" fill="#f2f2f2" stroke="#000" stroke-linejoin="round" stroke-width="0.545" fill-rule="evenodd"/>
    <path id="Turkey" d="M636.317,168.488l-5.291-2.4-4.636.109-3.109.927-3.054,2.182-5.4-.436-.873,2.618-4.309.109-2.782,3.327,1.964,1.636-1.091,2.727,2.291,1.964,2.018,3.491,3.164-.055,2.945,1.909,1.964-.436.491-1.473,3.109.109,2.509,1.909,4.364-.382,1.691-2.018,2.509.818,1.745-.327-.927,1.309,1.255,1.636.655-.764.654-.818-.055-1.964,1.036.709,3-.982,1.636.655h2.345l3.109-1.364,1.527.109,3.218-.6,1.145-.545,3.382.491,1.145.873,1.255-.6h0l-2.018-2.836.382-1.091-1.582-3.982,1.8-.982-1.309-1.036L655.9,172.2v-1.691l-.709-1.2-3.055-1.636-2.945.164-3,1.745-2.454-.327-3.164.545-4.255-1.309Zm-27.054,2.182,1.091-1.036,3.327-.218.382-.818-2.564-1.091-.491-1.309-2.454-.436-2.727,1.091,1.473.873-.654,2.127-.6.382.055.709,1.036,1.582,2.127-1.855Z" transform="translate(3062.546 -1435.95)" fill="#f2f2f2" stroke="#000" stroke-linejoin="round" stroke-width="0.545" fill-rule="evenodd"/>
    <path id="Taiwan" d="M895.785,233.014l.655-5.564.055-2.127-1.582-1.036-1.8,2.618-1.036,3.436.818,2.564,2.182,2.945.709-2.836Z" transform="translate(3062.546 -1435.95)" fill="#f2f2f2" stroke="#000" stroke-linejoin="round" stroke-width="0.545" fill-rule="evenodd"/>
    <path id="Uzbekistan" d="M730.788,165.324l-1.364.655-2.945,2.345-.491,2.454h-1.036l-1.255-1.636-3.6-.109-1.418-2.727-1.364-.055-.818-3.382-4.091-2.455-4.691.273-3.109.491-3.545-3-2.618-1.255-4.964-2.454-.6-.273-6.491,1.964L689.77,168.6l3.164-.055-.873-1.691,2.073-1.2,1.8-1.964,4.255,1.8,1.036,2.673,1.255.709,3-.164,1.091.655,2.345,3.491,3.818,2.4,2.291,1.636,3.382,1.745,4.2,1.473.436,2.182h1.582l2.345.764.709-3.6-1.309-2.564-2.291-.873.327-1.527,2.4.164.818-1.909.273-2.182,3.491-.818-.109,1.582.709.982,1.145-.109,2.236.327,2.836-2.454-3.873-1.8-1.745.873-2.509-1.255,1.691-2.236-.982-.327Z" transform="translate(3062.546 -1435.95)" fill="#f2f2f2" stroke="#000" stroke-linejoin="round" stroke-width="0.545" fill-rule="evenodd"/>
    <path id="Vietnam" d="M857.222,237.269,854,236.4l-1.636-1.418.109-2.018-2.836-.6L848,231.051l-2.236,1.855-2.891.382h-2.345l-1.473.818,2.182,2.782L843.095,240l3.709.055,1.636,3-1.8.927-.709,1.255,3.982,2.073,3.109,4.091,2.345,3.054,2.618,2.4,1.091,2.455-.109,3.491.982,2.291.055,4.2-4.854,2.673,1.527,2.073-3.164.273-2.564,1.364,2.455,2.018-.709,2.345,1.255,2.182,3.6-3.218,2.236-2.891,3.327-2.236,2.345-2.291-.218-6.109-2.182-6.382-2.236-2.782-3.054-2.182-3.491-4.527-2.891-3.654.273-2.4,2.018-3.273Z" transform="translate(3062.546 -1435.95)" fill="#f2f2f2" stroke="#000" stroke-linejoin="round" stroke-width="0.545" fill-rule="evenodd"/>
    <path id="Yemen" d="M693.534,254.287l-1.145-2.4-2.836-5.727-8.563,1.309-2.727,1.582-1.909,3.654-1.364.545-.873-1.145-1.145.164-2.945-.327-.545-.382-3.491.109-.818.327-1.309-.927-.655,1.691.382,1.473-1.255,1.145.218,1.473-.327.709.382,1.582-.6.164.927,1.418.709,2.564.545,1.036v1.854l.873,2.073,2.127.164.982-.491,1.473.109.436-.927.818-.218.6-.927.764-.218,2.564-.164,1.909-.655,1.691-1.473.927.218,1.309-.164,2.564-2.454,4.8-1.636,2.891-1.473V256.8l.491-1.582,2.127-.927Z" transform="translate(3062.546 -1435.95)" fill="#f2f2f2" stroke="#000" stroke-linejoin="round" stroke-width="0.545" fill-rule="evenodd"/>
    <path id="Hong_Kong" data-name="Hong Kong" d="M875.385,235.032v-.218l-.218-.109H875l.055.109.218.273.109-.055Zm-.709,0-.055-.273.109-.164-.491.164-.055.164v.055l.109.055h.382Zm.873-.655-.055-.164-.109-.055-.055-.164-.055-.109h0l-.164-.055-.109-.055h-.218l-.055.055h-.109l-.109.109h0v.109l-.273.218v.109l.164.109.273-.055.327.109.436.164v-.273l.109-.055Z" transform="translate(3062.546 -1435.95)" fill="#f2f2f2" stroke="#000" stroke-linejoin="round" stroke-width="0.545" fill-rule="evenodd"/>
    <path id="Maldives" d="M757.678,300.868l.055-.055V300.7l-.055-.055h-.055l-.055.109v.109Zm.164-3.218.055-.109v-.218l-.055.055-.055.109v.055l-.055.055v.055h.109Z" transform="translate(3062.546 -1435.95)" fill="#f2f2f2" stroke="#000" stroke-linejoin="round" stroke-width="0.545" fill-rule="evenodd"/>
    <path id="Singapore" d="M851.44,307.468l.055-.109-.109-.109-.164-.055-.273-.109-.327.055-.164.327.491.218.491-.218Z" transform="translate(3062.546 -1435.95)" fill="#f2f2f2" stroke="#000" stroke-linejoin="round" stroke-width="0.545" fill-rule="evenodd"/>
  </g>
</svg>
