<svg xmlns="http://www.w3.org/2000/svg" xmlns:xlink="http://www.w3.org/1999/xlink" width="300" height="300" viewBox="0 0 300 300">
    <path d="M150.543,0c83.143,0,150.543,65.866,150.543,147.116s-67.4,147.116-150.543,147.116S0,228.367,0,147.116,67.4,0,150.543,0Z" fill="#fff"/>
    <path d="M262.121,104.6l2.614,1.836h2.438v-4.593l7.686-.729,7.3,5.322h11.986l.843-.755q-1.8-5.942-4.072-11.661l-7.842.128-3.921-4.222-.693-6.761-4.026,2.149-2.157,8.315-5.81-6.051-.235-5.718-5.607-4.727-2.065-2.015h-6.5l2.046,5.674,7.842,4.273,1.359,1.414-1.7.832.078,4.477-3.817,1.561-3.268-.7-2.039-2.821,5.3.275,1.431-1.919-11.731-7.746-.9-3.3-4.764,4.222-4.83-.972-7.378,9.364-1.451,3.665-4.706.416-6.96.045-4.163-1.919-1.261-8.079,1.5-3.838,7.084-1.516,7.725,1.516.948-4.183-3.268-.761,1.118-6.518,7.777-1.19,5.437-7.516,5.614-.921,5.065.736h1.869l-1.033-7.036-6.156,2.431-2.17-5.277-3.555-.544-.653-3.614,2.915-3.109,6.934-2.661,1.784-3.121C197.36-8.826,119.344-12.4,62.51,28.176l7.581-.058,3.379,1.829,6.366,1.343.5,2.45,10.123.365-1.372-3.2-9.006-.192L82.195,28.8l-.739-2.328h-8.13l8.869-6.48h8.5l3.993,5.386,6.627.365,3.993-3.793,3,1.465-5.5,5.258s-7.614.134-7.241.134a24.15,24.15,0,0,1,.654,5.117l9.235-.249,1-2.437,6.365-.371.752-3.665-3.745-.64,1.248-3.3,2.869-.851,9.993.486-5.509,4.893.889,3.787,5.745.857-.373-6.844,5.5-2.814,9.731-1.126,14.11,6.115v5.258l4.5,1.1-2.255,4.158h-6.372L148,43.041,133.446,39.67,144.889,33.7l-4.359-3.627L130.661,31.3l-.863.876h0l-.15.2-2.843,2.891-4.7.377.373,2.29,1.64.64-.065.755-3.823.531-.281,2.168-3.653.185-.654-4.311-6.535,1.919L95.71,47.5l1.5,5.4,3.745,2.392,7.49,1.011v8.315l3.464-.544,3.163-6.435,7.967-2.469v-10l4.431-3.275,10.712,2.475-.752,6.607h2.876L148.15,47.2l.379,8.673,5.758,3.422-.242,5.117-5.49,1.829.373,1.7,6.62,2.949-.137,3.544-1.915.16a.5.5,0,0,0,0-.1l-8.352-2.52-.353-2.623h0l2.444-1.644V65.32l-2.614-.64-.654,2.207-4.575.7-.457-.147v.224l-1.595.237-1.307-2.559-1.5-.64h-3.268l-1.49,1.2v2.661l2.8.915,2.771.384-.621.269L132.2,72.874,131.086,71.5l-2.444-.64-6.66,6.128.869.7-9.8,5.328L103.67,92.44l-.654,4.19-9.267,5.961-4.575,4.522.51,9.044-6.372-2.93.046-5.29H65.628l-9.15,4.548-3.987,7.2-1.582,5.706,2.614,5.533,7.235.863,11.5-7.522,1.006,3.729-3.51,6.486,8.751,1.465.876,13.228,11.992,2,7.62-8.622,9.248,1.842,3.268,4.42,8.869-.512.248-2.559,4.875,2.315,5.5,8.43,9.489.128,3.5,6,.5,7.33,10.5,3.908,13.241.134L172.1,180.2l5.882,1.842-1.124,5.149-6.431,8L168.547,212.9l-5.81,4.477-8.712-.211-2.869,4.887,2.131,9.185-9.378,11.731-2.993,5.386-8.934,4.2-5.882.876-.235,2.437,4.124,1.158-.5,2.629-3.693,3.48,2.242,2.77,4.444.122-.248,3.352-1.183,3.307-.379,2.686,6.575,5.418-.876,2.814-8.947-.166-8.9-7.6-6.934-11.929.967-11.513-5.228-6.85,2.124-11.609-3.117-.851V207.895s-8.744-6.486-9.248-6.486-4.627-1.1-4.627-1.1l-.915-4.759L80.182,181.606l1.124-5.008.373-8.194,7.842-5.386L88.4,153.845,76.908,153l-8.947-10.029-6.372-1.727-4.117-.742.5-3.665-5.228-.729v2.066l-13.123-3.2-5.281-7.906,2.15-3.838L28.153,111.38l-1.425-8.68H23.363l1.118,8.43,5.745,8.68-.654,3.428L24.7,122.5l-5.993-10V100.871l-6.241-2.936V89.562C-16.836,157,9.06,235.262,73.193,273.084s146.931,23.661,194.157-33.208h-4.96V230.1l-5.738-7.561V210.773l-4.333-4.273-.386-4.893,5.568-10.394L246.959,172.99l1.235-12.364-9.489-.959-3.5-3.422H228.83l-3.268,2.93H214.348l-.379.979h-6.254l-14.378-15.991.163-12.492,2.372-.851.9-4.8h-3.372l-1.379-5.008,16.607-11.731v-8.315l8.13-4.42,3.268.32H226.7l5.228-2.75L248.8,92.837v8.437ZM219.955,52.15l1.372-2.072,4.941-.979L227.5,54.97l2.614,4.151,1.745,1.964,3.183,1.215-3,3.492-5.81.544H221.87l.49-5.072,3.634-.736-.307-2.386L222.3,56.064l-2.366-1.586V52.143Zm-8.091,9.166,3-4.708,4.045-.921,2.876,1.222-.261,3.2-6.182,4.279h-3.49v-3.07Zm-81.693,18.1-3.131.256.17-2.13,1.4-1.708,1.882,1.446Zm10.973-3.761-2.137.179-.431,2.021-1.647,1-2.614.217c-.091-.64-.144-1.068-.144-1.068h-1.026V75.829h4.307l.889-2.245,1.712-.032,1.961.4Z" fill="#006994"/>
</svg>
