<svg xmlns="http://www.w3.org/2000/svg" xmlns:xlink="http://www.w3.org/1999/xlink" width="225" height="177" viewBox="0 0 225 177">
  <g id="Group_18" data-name="Group 18" transform="translate(-4544.827 380.571)" clip-path="url(#clip-path)">
    <g id="world" transform="translate(4548.09 -376.957)">
      <path id="Albania" d="M551.291,153.672,550,155.678l.324,1.23h0l.647.647-.324,1.23-.065,2.783.453,1.942,1.942,1.359.129.906.647.259,1.359-1.942.065-1.359,1.036-.583v-1.036l-1.489-1.036-.582-1.683.259-1.359h0l-.324-1.489-.841-.388-.841-1.036-.841.324-.259-.777Z" transform="translate(-419.258 -15.749)" fill="#f2f2f2" stroke="#000" stroke-linejoin="round" stroke-width="0.511" fill-rule="evenodd"/>
      <path id="Austria" d="M547.117,135.386l-1.489-.777-1.489.194-2.589-1.23-1.1.324-1.683,1.618-2.459-1.294-.971,1.877-1.1.518.647,2.589-.259.712-1.1-.841-1.553-.129-2.2.777-2.848-.194-.388,1.036-1.683-1.1-.971.194.129.712-.453,1.036,1.489.712,1.683.129,2.006.583.324-.777,3.107-.712.841,1.424,4.66,1.036,2.718.259,1.553-.906,2.783-.065.583-.712.841-2.589-.712-.841h1.812l.129-1.683-.453-1.359.194-.518Z" transform="translate(-426.28 -21.087)" fill="#f2f2f2" stroke="#000" stroke-linejoin="round" stroke-width="0.511" fill-rule="evenodd"/>
      <path id="Belgium" d="M513.348,125.9l-2.848.841-2.33-.324h0l-2.459.777.453,1.424,1.424.065,1.553,1.553,2.2,1.877,1.618-.259,2.848,1.812.259-2.265.841-.129.259-2.718-1.812-.906-2.006-1.747Z" transform="translate(-431.021 -23.125)" fill="#f2f2f2" stroke="#000" stroke-linejoin="round" stroke-width="0.511" fill-rule="evenodd"/>
      <path id="Bulgaria" d="M577.837,150.949l-1.942-.453-2.589-1.424-3.754.906-1.489,1.036-4.854-.194-2.589-.647-1.23.324-1.165-1.683-.712.906.453,1.489,1.812,1.683-1.1,1.23-.453,1.294.388.453-.453.583,1.812,1.294.518,2.654,2.46.129,2.524-1.1L568,160.787l2.977-.388-.194-1.942,3.236-1.294,2.912.518-1.359-2.265.841-2.848Z" transform="translate(-417.261 -17.039)" fill="#f2f2f2" stroke="#000" stroke-linejoin="round" stroke-width="0.511" fill-rule="evenodd"/>
      <path id="Bosnia_and_Herz." data-name="Bosnia and Herz." d="M544.024,145.694l-1.489.065-.647.841-1.23-.906-.582,1.618,1.747,1.877.841,1.23,1.618,1.489,1.294.906L547,154.432l3.042,1.553.259-2.2.971-.906.583-.388.777-.194.324-1.877-1.748-1.489.647-1.747H550.69l-1.553-.906-2.265.065-2.848-.647Z" transform="translate(-421.893 -17.868)" fill="#f2f2f2" stroke="#000" stroke-linejoin="round" stroke-width="0.511" fill-rule="evenodd"/>
      <path id="Belarus" d="M572.467,112.4l-3.366-.971-2.977,1.489-1.683.647.583,1.683-2.265,1.294-.324,2.2-3.107,1.424h-2.977l.388,1.747,1.1,1.489.194,1.553-1.747.777,1.23,1.877.324,1.747,1.424-.194,1.553-1.036,2.395-.129,3.236.324,3.624.971,2.46.065,1.294.583,1.036-.712.971.971,2.783-.194,1.294.388-.129-2.006.777-.906,2.654-.194h0l-1.295-2.524-.971-1.294.518-.388,2.524.129,1.036-.841-1.1-1.036-2.2-.712.065-.712-1.424-.712-2.395-2.524.388-1.036-.647-1.877-3.107-.906-1.489.453-.647-.906Z" transform="translate(-417.587 -26.969)" fill="#f2f2f2" stroke="#000" stroke-linejoin="round" stroke-width="0.511" fill-rule="evenodd"/>
      <path id="Switzerland" d="M526.191,138.639l-3.5-1.23-.647.906H519.33l-.841.647L517,138.575l.129,1.036-2.265,2.265v1.812l1.553-.583,1.165,1.748,1.424.841,1.553-.194,1.748-1.359.583.647,1.553-.129.583-1.618,2.459.518,1.359-.712.194-1.618-1.683-.129-1.489-.712.453-1.036-.129-.712Z" transform="translate(-428.59 -20.068)" fill="#f2f2f2" stroke="#000" stroke-linejoin="round" stroke-width="0.511" fill-rule="evenodd"/>
      <path id="Czech_Rep." data-name="Czech Rep." d="M538.429,127.093l-1.359.388-.906-.453-.712.777-2.2.777-1.1.971-2.2.841.647,1.23.453,1.683,1.683.971,1.877,1.683,2.459,1.294,1.683-1.618,1.1-.324,2.589,1.23,1.489-.194,1.489.777.388-.906,1.424.065,1.035-.388.065-.388.582-.194.129-.906.712-.194.388-.712h.971l-1.683-2.006-2.33-.194-.453-1.294-2.2-.388-.388.971-1.748-.777.065-1.1-2.395-.388-1.553-1.23Z" transform="translate(-424.582 -22.826)" fill="#f2f2f2" stroke="#000" stroke-linejoin="round" stroke-width="0.511" fill-rule="evenodd"/>
      <path id="Germany" d="M538.859,119.787l-1.553-1.23L533.745,117l-1.618,1.1-3.042.712-.065-1.359-3.172-.906-.129-1.489-1.942.582-2.33-.518.259,2.2.777,1.424-1.942,1.942-.647-.841-2.524.194-.583.841.647,1.294-.647,3.624-.712,1.489H514.2l.712,4.142-.259,2.718.647.906-.13,1.747,1.553,1.036,4.6.777-1.489,2.718-.324,2.912h2.718l.647-.906,3.495,1.23.971-.194,1.683,1.1.388-1.036,2.848.194,2.2-.777,1.553.129,1.1.841.259-.712-.647-2.589,1.1-.518.971-1.877-1.877-1.683-1.683-.971-.453-1.683-.647-1.23,2.2-.841,1.1-.971,2.2-.777.712-.777.906.453,1.359-.388-1.489-2.524.065-1.359-.906-2.136-1.294-1.424.777-1.036-.906-2.006Z" transform="translate(-428.766 -26.004)" fill="#f2f2f2" stroke="#000" stroke-linejoin="round" stroke-width="0.511" fill-rule="evenodd"/>
      <path id="Denmark" d="M532.693,114.83l-1.1-1.942-4.336,1.294.583,1.618,3.3,2.2,1.553-3.171Zm-5.566-3.3-1.683-.582-.453-1.036.841-1.294-.065-1.942-2.33,1.036-.971,1.1-2.589.259-.777,1.1-.453,1.036.259,3.948,1.359,2.2,2.33.518,1.942-.582-.971-1.942,2.006-2.783.906.453.647-1.489Z" transform="translate(-427.584 -28.232)" fill="#f2f2f2" stroke="#000" stroke-linejoin="round" stroke-width="0.511" fill-rule="evenodd"/>
      <path id="Estonia" d="M560.529,101l-3.56.582-3.5,1.036.583,2.2,2.136,1.359.971-.518.065,2.265,2.395-.647,1.359.453,2.848,1.424h2.46l1.036-1.23-1.618-3.56,1.683-2.2-.583-.647h0l-2.977.129Z" transform="translate(-418.334 -29.74)" fill="#f2f2f2" stroke="#000" stroke-linejoin="round" stroke-width="0.511" fill-rule="evenodd"/>
      <path id="Finland" d="M563.551,74.646l.518-2.459-3.689-1.359-3.754,1.165-.712,2.524-2.2,1.553-3.042-.841-3.43.194-3.3-1.877-1.359.906L546.4,76.2l4.66,2.395,1.1,5.437,1.23,1.424,4.142,1.683.582,1.489-1.683.777L550.8,93.35l-2.136,2.33-.971,2.136,1.877,3.366-.065,3.689,3.042,1.23,2.006,2.006,4.6-.777L564,105.971l5.178-.324h0l5.113-4.789,2.136-2.136.583-1.877-4.725-2.524.583-2.395L569.7,89.273l1.1-3.107-4.142-4.077,1.812-2.654-4.66-2.395-.259-2.395Z" transform="translate(-421.227 -37.754)" fill="#f2f2f2" stroke="#000" stroke-linejoin="round" stroke-width="0.511" fill-rule="evenodd"/>
      <path id="United_Kingdom" data-name="United Kingdom" d="M487.054,119.641l-3.171-2.395-2.524.194.518,2.071-.712,2.071,1.877-.065,2.265.841Zm8.414-15.727-3.56.324-2.33-.259-2.395,3.107-1.23,3.948,1.424,1.942.065,3.754,1.683-1.812.906,1.036-1.1,1.748.647,1.036,3.689.712h.065l2.006,2.459-.518,2.265h0l-4.6-.388-.647,2.589,1.683,2.136-3.3,1.23.841,1.553,4.854.647h0l-2.783.841-4.725,4.207,1.618.777,2.265-1.489,2.913.453,2.136-1.877,1.424.777,5.372-1.1,4.207.065,2.783-2.136-1.23-2.006,1.553-1.165.324-2.524-3.754-.777-.841-1.489-1.877-4.466-2.071-.647-2.654-4.6-.259-.388-3.107-.259,2.718-3.43.841-3.171h-3.236l-3.042.518,3.236-4.142Z" transform="translate(-437.541 -28.966)" fill="#f2f2f2" stroke="#000" stroke-linejoin="round" stroke-width="0.511" fill-rule="evenodd"/>
      <path id="Greece" d="M566.3,181.675l-.518,1.812,4.272.777v.712l4.919-.388.324-1.23-1.812.518v-.712l-2.524-.324-2.654.259-2.006-1.424Zm7.443-24.206-1.747-1.036.194,1.942-2.977.388-2.524-1.359-2.524,1.1-2.46-.129-.647.129-.453.712-1.812-.065-1.23.841-2.136.388v1.036l-1.036.583-.065,1.359-1.359,1.942.323,1.23,1.877,2.33,1.489,1.942.841,2.783,1.489,3.3,2.977,1.877,2.2-.065-1.553-3.689,2.136-.453-1.23-2.136,3.236,1.1-.259-2.395-1.747-1.165-2.071-1.942,1.165-.906-1.812-1.942-1.036-2.459.583-.841,1.942,2.071h1.877l1.618-.647-2.524-2.33,3.948-1.036,1.747.388,2.071.129.712-.453.777-2.524Z" transform="translate(-418.47 -15.015)" fill="#f2f2f2" stroke="#000" stroke-linejoin="round" stroke-width="0.511" fill-rule="evenodd"/>
      <path id="Croatia" d="M547.289,143.855l-2.589-1.683-1.036-.518-2.524,1.1-.194,1.618-1.1.388.129,1.1-1.294-.065-1.165-.647L537,145.8l-2.265-.129-.13.065v1.424l1.1,1.294.841-1.683,2.136.647.194,1.294,1.618,1.683-.647.324,2.977,2.913,3.107,1.165,2.006,1.424,3.236,1.489h0l.324-.647-3.042-1.553-1.424-1.618-1.294-.906-1.618-1.489-.841-1.23-1.747-1.877.583-1.618,1.23.906.647-.841,1.489-.065,2.848.647,2.265-.065,1.553.906h0l1.1-1.489-1.1-1.165-.971-1.553h0l-1.165.583-2.718-.777Z" transform="translate(-423.346 -18.941)" fill="#f2f2f2" stroke="#000" stroke-linejoin="round" stroke-width="0.511" fill-rule="evenodd"/>
      <path id="Hungary" d="M554.785,134.9l-1.036.259-.647.971-1.424.453-.388-.259-1.489.647-1.23.129-.194.777-2.654.518-1.23-.453-1.683-1.036-.129,1.683H540.87l.712.841-.841,2.589.518.065.777,1.359,1.036.518,2.589,1.683,2.718.777,1.165-.583h0l2.395-1.036,2.071.129,2.459-.712,1.683-2.783,1.23-2.718,1.877-.841-.388-1.036-1.877-1.1-.647.388-3.56-1.23Z" transform="translate(-421.716 -20.734)" fill="#f2f2f2" stroke="#000" stroke-linejoin="round" stroke-width="0.511" fill-rule="evenodd"/>
      <path id="Ireland" d="M486.963,119.521l-2.265-.841-1.877.065.712-2.071-.518-2.071-2.395,1.812-4.336,3.042,1.359,3.948-2.718,4.142,4.336.583,5.631-2.33,2.524-3.5Z" transform="translate(-439.198 -26.127)" fill="#f2f2f2" stroke="#000" stroke-linejoin="round" stroke-width="0.511" fill-rule="evenodd"/>
      <path id="Iceland" d="M474.009,81.16l-4.466-.259-4.725,1.877-3.3-.971-4.466,1.942-3.819-2.459-4.207.518L446.7,84.2l5.631.841-.065,1.036-5.048.712,5.7,1.747-2.977,1.618,7.573,1.165,3.624.518,2.524-.647L472,88.668l3.948-2.718L473.1,83.49l.906-2.33Z" transform="translate(-446.696 -35.078)" fill="#f2f2f2" stroke="#000" stroke-linejoin="round" stroke-width="0.511" fill-rule="evenodd"/>
      <path id="Italy" d="M547.343,175.567l-2.589.324-3.366.453-4.013-.388-.388,2.2,4.854,2.136,1.747.453,2.718,1.553.583-2.136-.583-1.294Zm-21.811-12.232-1.618,1.23-1.812-.194.841,2.33.259,4.919,1.359,1.1,1.294-1.359,1.553.259.259-5.437-2.136-2.848Zm9.255-22.2-.841-1.424-3.107.712-.324.777-2.006-.583-.194,1.618-1.359.712-2.459-.518-.583,1.618-1.553.129-.583-.647-1.747,1.359-1.553.194-1.424-.841-.129,1.1,1.036,1.553-1.1,1.165.971,3.107,1.747.518-.323,1.747,1.359-.324,1.812-1.812,1.489-.582,2.718,1.359,1.683.453,1.23,3.883,2.33,2.33,3.171,2.589,2.718,1.812,2.524.259,1.489,1.618,2.2.777,1.1,1.747,1.424.518,1.165,2.071,1.489,2.395-.712.841-.518,2.265.065,1.294,1.359-.324,1.618-3.624,1.359-.259.259-2.136-2.524-1.489,1.23-2.654,2.912.647,2.006,1.942.518-1.489-.388-.777-3.042-2.071-2.524-1.23-3.107-1.489.906-.777-.906-.906-2.589.065-3.883-3.236-1.877-3.3-3.171-2.006-1.23-2.006.324-1.165-.259-1.942,2.524-1.424,2.654.583-.906-1.747.194-1.942-4.66-1.036Z" transform="translate(-428.06 -19.457)" fill="#f2f2f2" stroke="#000" stroke-linejoin="round" stroke-width="0.511" fill-rule="evenodd"/>
      <path id="Lithuania" d="M566.221,113.744l-3.236-1.877-1.618-.259-.583-.841-2.848.388-5.113-.259-3.236,1.23,1.1,3.236,3.236.712,1.424.582-.129,1.1.388.971,1.618.388.906,1.23h2.977l3.107-1.424.324-2.2,2.265-1.294-.583-1.683Z" transform="translate(-419.366 -27.145)" fill="#f2f2f2" stroke="#000" stroke-linejoin="round" stroke-width="0.511" fill-rule="evenodd"/>
      <path id="Luxembourg" d="M515.306,132.8l.13-1.747-.647-.906-.841.129-.259,2.265.712.324Z" transform="translate(-428.902 -21.997)" fill="#f2f2f2" stroke="#000" stroke-linejoin="round" stroke-width="0.511" fill-rule="evenodd"/>
      <path id="Latvia" d="M567.389,107.836H564.93l-2.848-1.424-1.359-.453-2.395.647-.129,2.977-2.33.065-2.848-2.912-2.589,1.359-1.1,2.395.324,2.912,3.236-1.23,5.113.259,2.848-.388.583.841,1.618.259,3.236,1.877,1.683-.647,2.977-1.489-1.359-2.33-.647-1.812-1.553-.906Z" transform="translate(-419.434 -28.422)" fill="#f2f2f2" stroke="#000" stroke-linejoin="round" stroke-width="0.511" fill-rule="evenodd"/>
      <path id="Moldova" d="M573.4,147.389l.777-.453.323-1.359.712-1.294-.324-.712.647-.324.388.582,1.942.129.777-.324-.647-.388.129-.647-1.294-.971-.712-1.683-1.23-.712v-1.359l-1.618-1.036-1.294-.194-2.524-1.23-2.071.388-.712.583,1.035.388,1.165,1.23,1.23,1.683,2.2,2.395.388,1.748-.13,1.747Z" transform="translate(-414.83 -20.598)" fill="#f2f2f2" stroke="#000" stroke-linejoin="round" stroke-width="0.511" fill-rule="evenodd"/>
      <path id="Macedonia" d="M561.1,156.142l-1.812-1.294-1.553.065-1.1.259-.712.13-1.877.647-.065.777h-.453l-.259,1.359.582,1.683,1.489,1.036,2.136-.388,1.23-.841,1.812.065.453-.712.647-.129-.518-2.654Z" transform="translate(-418.388 -15.436)" fill="#f2f2f2" stroke="#000" stroke-linejoin="round" stroke-width="0.511" fill-rule="evenodd"/>
      <path id="Montenegro" d="M553.52,153.911l.259-.388-1.294-.777-1.165-.453-.518-.518-.971-.712-.583.388-.971.906-.259,2.2-.324.647h0l1.489.777,1.036,1.359.712.259h0l-.323-1.23,1.294-2.006.259.777.841-.324Z" transform="translate(-419.869 -16.442)" fill="#f2f2f2" stroke="#000" stroke-linejoin="round" stroke-width="0.511" fill-rule="evenodd"/>
      <path id="Netherlands" d="M515.938,126.1h1.877l.712-1.489.647-3.624-.647-1.294L516,119.562l-4.207,1.683-2.524,5.76-1.618,1.1h0l2.33.324,2.848-.841,2.006,1.747,1.812.906-.712-4.142Z" transform="translate(-430.505 -24.809)" fill="#f2f2f2" stroke="#000" stroke-linejoin="round" stroke-width="0.511" fill-rule="evenodd"/>
      <path id="Norway" d="M569.037,74.273l-4.466.712-4.725-.194-3.3,2.848-4.336-.194-5.5,1.489-6.537,4.4-4.142,2.589-5.7,6.925-4.6,5.048-5.242,3.754-7.249,3.107-2.524,2.33,1.23,8.673,1.23,4.077,4.142,1.942,3.883-.906,5.5-4.4,2.136,2.33,1.1-2.136,2.2-2.589.583-4.466-2.006-1.877-.647-4.919,1.489-3.43,2.783.065.841-1.424-1.165-1.23,3.689-5.113,2.2-3.948,1.424-2.524,2.589.065.388-2.006,5.113.583V81.587l1.618-.194,1.359-.906,3.3,1.877,3.43-.194,3.042.841,2.2-1.553.712-2.524,3.754-1.165,3.689,1.359-.518,2.459,2.071-.324,4.142-1.424h0L574.732,77.7l3.107-.906-8.8-2.524ZM554.409,52.721l-3.624-.647-1.23-1.1-4.66.583,1.683.971-1.424.777,4.336.712ZM537.97,47.349l-3.107-1.036-3.3.129-.647.971h-3.236l-1.424-.971-6.019,1.036,2.071,2.265,4.919,2.459,3.689.906-1.942,1.1,5.437,1.877,2.848-.129.583-2.524,1.942-.582.777-2.2,5.5-1.165Zm15.663-2.006-5.89-.647-2.071.777-3.43-.647-6.731.777,2.783,1.294h3.3l.583.841,6.86.453,6.537-.324,2.783-1.553-4.725-.971Z" transform="translate(-429.69 -44.695)" fill="#f2f2f2" stroke="#000" stroke-linejoin="round" stroke-width="0.511" fill-rule="evenodd"/>
      <path id="Poland" d="M550.382,117.1l-2.977-.065-.324-.906-3.107-.712-3.689,1.359-4.6,1.812-2.006,1.1.906,2.006-.777,1.036,1.294,1.424.906,2.136-.065,1.359,1.489,2.524,1.553,1.23,2.395.388-.065,1.1,1.747.777.388-.971,2.2.388.453,1.294,2.33.194,1.683,2.006.194.259,1.23-.582,1.747,1.424,1.812-.841,1.553.388,2.2-.518,3.171,1.489.712.259-1.036-1.812,2.459-3.3,1.489-.453.194-1.165-2.006-3.43-.324-1.747-1.23-1.877,1.747-.777-.194-1.553-1.1-1.489-.388-1.748-.906-1.23-1.618-.388-5.631.065-3.819-.453Z" transform="translate(-423.591 -25.909)" fill="#f2f2f2" stroke="#000" stroke-linejoin="round" stroke-width="0.511" fill-rule="evenodd"/>
      <path id="Portugal" d="M480.916,176.244l-.259-1.359,1.294-1.618.518-1.1-1.165-1.23,1.035-2.783-1.294-2.459,1.424-.324.194-1.942.582-.582.129-3.171,1.553-1.1-.841-2.006-1.942-.129-.583.518h-1.942l-.777-2.006-1.359.583-1.23,1.036.065,1.359.583,1.424.065,1.747-.841,2.459-.259,1.618-1.424,1.489-.388,2.718.777,1.553,1.489.388.259,2.589-.647,3.3,1.812-.453,1.747.582Z" transform="translate(-439.429 -15.409)" fill="#f2f2f2" stroke="#000" stroke-linejoin="round" stroke-width="0.511" fill-rule="evenodd"/>
      <path id="Romania" d="M570.77,136.182h-1.359l-.647.971-2.33.388-1.036.582-1.553-.971h-2.071L559.7,136.7l-1.23.841-1.877.841-1.23,2.718-1.683,2.783-2.459.712,1.877,1.618.518,1.23,2.071.971.453,1.618,2.006,1.165.906-.841.906.453-.712.712.647.647,1.165,1.683,1.23-.324,2.589.647,4.854.194,1.489-1.036,3.754-.906,2.589,1.424,1.942.453.259-4.789,1.036.324,1.489-.841-.259-1.036-1.553-.712-1.424.647-1.553-.712-.841-1.812.129-1.748-.388-1.747-2.2-2.395-1.23-1.683-1.165-1.23-1.035-.388Z" transform="translate(-418.932 -20.394)" fill="#f2f2f2" stroke="#000" stroke-linejoin="round" stroke-width="0.511" fill-rule="evenodd"/>
      <path id="Serbia" d="M556.627,146.676l-2.071-.971-.518-1.23-1.877-1.618-2.071-.129-2.395,1.036h0l.971,1.553,1.1,1.165-1.1,1.489h1.165l-.647,1.748,1.747,1.489-.324,1.877-.777.194.971.712.518.518,1.165.453,1.294.777-.259.388.777-.324.324-1.294.582-.259.518.582.647.259.518.647.518.194.712.712h.518l-.324.971-.324.453.129.324,1.1-.259,1.554-.065.453-.582-.388-.453.453-1.294,1.1-1.23-1.812-1.683-.453-1.489.712-.906-.647-.647.712-.712-.906-.453-.906.841-2.007-1.165-.453-1.618Z" transform="translate(-419.869 -18.656)" fill="#f2f2f2" stroke="#000" stroke-linejoin="round" stroke-width="0.511" fill-rule="evenodd"/>
      <path id="Slovakia" d="M559.817,133.828l-3.171-1.489-2.2.518-1.553-.388-1.812.841-1.747-1.424-1.23.583-.194-.259h-.971l-.388.712-.712.194-.129.906-.583.194-.065.388-1.035.388-1.424-.065-.388.906-.194.518.453,1.359,1.683,1.036,1.23.453,2.654-.518.194-.777,1.23-.129,1.489-.647.388.259,1.424-.453.647-.971,1.036-.259,3.56,1.23.647-.388.453-1.618.712-1.1Z" transform="translate(-421.377 -21.535)" fill="#f2f2f2" stroke="#000" stroke-linejoin="round" stroke-width="0.511" fill-rule="evenodd"/>
      <path id="Slovenia" d="M543.678,141.953l-.777-1.359-.518-.065-.583.712-2.783.065-1.554.906-2.718-.259-.194,1.942.906,1.747-.712.324,2.265.129.518-.647,1.165.647,1.294.065-.129-1.1,1.1-.388.194-1.618Z" transform="translate(-423.36 -19.24)" fill="#f2f2f2" stroke="#000" stroke-linejoin="round" stroke-width="0.511" fill-rule="evenodd"/>
      <path id="Sweden" d="M558.049,84.694l-1.23-1.424-1.1-5.437-4.66-2.395-3.819-1.747-1.618.194V76.15l-5.113-.583-.388,2.006-2.589-.065-1.424,2.524-2.2,3.948-3.689,5.113,1.165,1.23-.841,1.424-2.783-.065-1.489,3.43.647,4.919,2.006,1.877-.583,4.466-2.2,2.589-1.1,2.136,2.718,5.437,2.848,4.336,1.294,3.689,3.43-.194,1.424-3.042,3.689.324,1.294-3.56.388-6.472,2.977-.841,2.136-4.272-3.107-2.136-2.33-2.589,1.359-5.243,4.984-3.171,3.948-2.913-.777-2.265,2.2-2.524,4.531-.971Z" transform="translate(-425.886 -36.993)" fill="#f2f2f2" stroke="#000" stroke-linejoin="round" stroke-width="0.511" fill-rule="evenodd"/>
      <path id="Turkey" d="M604.177,158.647,597.9,155.8l-5.5.129-3.689,1.1-3.624,2.589-6.408-.518-1.035,3.107-5.113.129-3.3,3.948,2.33,1.942-1.294,3.236,2.718,2.33,2.395,4.142,3.754-.065,3.495,2.265,2.33-.518.583-1.747,3.689.129,2.977,2.265,5.178-.453,2.006-2.395,2.977.971,2.071-.388-1.1,1.553,1.489,1.942.777-.906.777-.971-.065-2.33,1.23.841,3.56-1.165,1.942.777h2.783l3.689-1.618,1.812.129,3.819-.712,1.359-.647,4.013.582,1.359,1.036,1.489-.712h0l-2.395-3.366.453-1.294-1.877-4.725,2.136-1.165-1.553-1.23-2.718-.971v-2.006l-.841-1.424-3.624-1.942-3.495.194-3.56,2.071-2.912-.388-3.754.647-5.048-1.553Zm-32.1,2.589,1.294-1.23,3.948-.259.453-.971-3.042-1.294-.583-1.553-2.912-.518L568,156.7l1.747,1.036-.777,2.524-.712.453.065.841,1.23,1.877,2.524-2.2Z" transform="translate(-414.476 -15.287)" fill="#f2f2f2" stroke="#000" stroke-linejoin="round" stroke-width="0.511" fill-rule="evenodd"/>
      <path id="Ukraine" d="M589.4,123.244l-3.107.324-.971-.194-.647.906-1.165-.129h0l-2.654.194-.777.906.129,2.006-1.294-.388-2.783.194-.971-.971-1.036.712-1.294-.582-2.459-.065-3.624-.971-3.236-.324-2.395.129-1.553,1.036-1.424.194,2.006,3.43-.194,1.165-1.489.453-2.46,3.3,1.036,1.812-.712-.259-.712,1.1-.453,1.618,1.877,1.1.388,1.036,1.23-.841,2.071.453H562.8l1.553.971,1.036-.583,2.33-.388.647-.971h1.359l.712-.582,2.071-.388,2.524,1.23,1.295.194,1.618,1.036v1.359l1.23.712.712,1.683,1.294.971-.129.647.647.388-.777.324-1.942-.129-.388-.582-.647.324.324.712-.712,1.294-.323,1.359-.777.453,1.553.712,1.424-.647,1.553.712,2.136-2.977.841-2.2,2.912-.518.453,1.553,5.178.971,1.1.906-2.912,1.359-.453.777,3.754,1.165-.388,1.877,1.942.841,4.077-2.33,3.43-.712.388-1.424-3.3.259-1.747-.971-.647-2.524,2.524-1.489,2.977-.194,1.942-1.294,2.524-.324-.259-1.812,1.424-1.1,3.042-.324.194-1.359-1.165-2.2.841-2.071-.259-1.23-4.919-1.294-1.877.065-2.33-1.877-2.265.647-4.272-1.424-.129-.777-1.424-1.747-2.589-.129-.453-1.23.583-.841-2.459-2.2Z" transform="translate(-417.886 -23.831)" fill="#f2f2f2" stroke="#000" stroke-linejoin="round" stroke-width="0.511" fill-rule="evenodd"/>
      <path id="France" d="M534.255,162.912l-.712-3.366-2.071,1.489-.647,1.489.906,2.718,1.553.777Zm-20.387-32.944-1.553-1.553-1.424-.065-.453-1.424-2.783.777-.906,3.3-7.314,3.107-2.977-1.683.906,4.531-5.307-1.036-4.142.841.259,2.977,4.854,1.553,2.33,2.006,3.3,4.207-.647,7.961-1.747,2.395,1.294,1.553,6.084,1.812,1.23-.841,3.689,1.812,3.883-.518.324-2.395,4.789-1.294,6.472,1.036,2.912-2.2.324-1.747-1.747-.518-.971-3.107,1.1-1.165-1.035-1.553.129-1.1-1.165-1.747-1.553.583V144.66l2.265-2.265-.13-1.036,1.489.388.841-.647.324-2.912,1.489-2.718-4.6-.777-1.553-1.036-.906.065-.712-.324-2.848-1.812-1.618.259-2.2-1.877Z" transform="translate(-435.748 -22.853)" fill="#f2f2f2" stroke="#000" stroke-linejoin="round" stroke-width="0.511" fill-rule="evenodd"/>
      <path id="Spain" d="M511.35,170.865v-.129h-.324l-.194-.259-.065.129-.065.129v.129h.324l.259.065.065-.065Zm-.518-1.036h.194l.388-.453v-.194l-.194-.129-.712.129-.129.194v.194l-.194.065-.065.259.065.129.518.065ZM499.7,151.642l-5.307-.129-2.718.194-3.495-.647h-4.4l-4.013-.712-4.789,2.912,1.294,1.683-.259,2.848,1.23-1.036,1.359-.582.777,2.006h1.942l.583-.518,1.942.129.841,2.006-1.553,1.1-.13,3.171-.583.583-.194,1.942-1.424.324,1.294,2.459-1.036,2.783,1.165,1.23-.518,1.1-1.294,1.618.259,1.359,3.107.647.906,2.395,1.294,1.424,1.618.388,1.359-1.618,2.136-1.489,3.236.065h4.336l2.459-3.236,2.524-.841.777-2.718,1.942-1.877-1.294-2.395,1.294-3.3,2.006-2.265.324-1.359,4.272-.841,3.107-2.718-.194-2.265-3.883.518-3.689-1.812-1.23.841-6.084-1.812-1.294-1.553Zm16.828,14.627.065-.194.065-.129.065-.065-.129-.129v-.065l.129-.129-.129-.065-.841.259-.453.259-1.359.971v.194l.065.129h.259l.13.259.259-.259.194-.065.194.065.194.129.065.388.065.129.388.065.583.259.259-.129.324-.194.129-.388.194-.324.194-.324.194-.259-.065-.259-.194-.065-.194-.065-.324.129Zm3.883-.194.065-.259v-.065l-.324-.453-.583-.194-.647.065-.065.065v.259l.065.065.388.065,1.036.453h.065Z" transform="translate(-439.185 -16.632)" fill="#f2f2f2" stroke="#000" stroke-linejoin="round" stroke-width="0.511" fill-rule="evenodd"/>
      <path id="Andorra" d="M504.124,154.408l.065-.129.065-.129v-.065l-.129-.065-.453-.13-.194-.065-.129.065-.129.13-.065.194.065.065v.259l.065.129h.259l.194-.065.324-.194h.065Z" transform="translate(-431.7 -15.708)" fill="#f2f2f2" stroke="#000" stroke-linejoin="round" stroke-width="0.511" fill-rule="evenodd"/>
      <path id="Faeroe_Is." data-name="Faeroe Is." d="M484.677,96.3V96.1l-.065-.194V95.78h-.065l-.324-.065-.065-.129h-.065v.129l.065.259.324.259.194.129h.065l-.065-.065ZM485,94.939v-.065l-.129-.129-.324-.129-.13-.065-.129.065v.129l.065.065.259.065.259.194h.065l.065-.129Zm-1.553-1.23-.129-.065-.324.065H482.8l.065.194.388.129h.388l.129-.065-.065-.129-.259-.129Zm1.618-.324-.518-.129-.388-.194-.647.065.453.712.518.453.259.129v-.194l-.259-.324-.065-.065v-.065l.065-.065h.129l.194.129h.129l.129-.453Zm.647-.129-.194-.129-.259-.259v.583h.065l.194.065.194-.259Z" transform="translate(-437.106 -31.9)" fill="#f2f2f2" stroke="#000" stroke-linejoin="round" stroke-width="0.511" fill-rule="evenodd"/>
      <path id="Liechtenstein" d="M523.946,140.106v-.129l.065-.129-.065-.065-.065-.129-.065-.065v-.129l-.065-.065v-.129l-.065-.065-.129.388v.324l.065.129h.065l.259.065Z" transform="translate(-426.28 -19.593)" fill="#f2f2f2" stroke="#000" stroke-linejoin="round" stroke-width="0.511" fill-rule="evenodd"/>
      <path id="Malta" d="M539.082,176.121l-.129-.129-.324-.324-.324-.065.065.388.259.259h.324l.129-.129Zm-.906-.777h0v-.129l-.194-.065-.259.065.065.065.194.129Z" transform="translate(-422.518 -10.044)" fill="#f2f2f2" stroke="#000" stroke-linejoin="round" stroke-width="0.511" fill-rule="evenodd"/>
      <path id="Cyprus" d="M588.329,178.6l-.194-.065-.324.129-.259.259-.259.194-.324-.194.129.583.388.712.129.194.194.129.712.194h.583l.129.065.129.259h.259V180.8l.129-.129.194-.129h.194l.388-.065.388-.129.324-.259.583-.647h.777l.388-.065-.129-.259-.065-.065-.259-.324-.129-.259.065-.388,1.618-1.23.324-.324-.518.129-.388.259-.259.129-.453.259-1.489.518-.518.065h-.518l-.647-.065-.583-.129v.453l-.129.388-.388.129-.194-.065Z" transform="translate(-409.437 -9.677)" fill="#f2f2f2" stroke="#000" stroke-linejoin="round" stroke-width="0.511" fill-rule="evenodd"/>
    </g>
  </g>
</svg>
