<svg xmlns="http://www.w3.org/2000/svg" xmlns:xlink="http://www.w3.org/1999/xlink" width="241.273" height="147.525" viewBox="0 0 241.273 147.525">
    <path id="Belize" d="M262.4,252.944l.459-.721.328-.065.426-.557.328-1.049-.1-.2.3-.754-.131-.328.426-.886.1-.59h-.361l.033-.3h-.328l-.82,1.279-.3-.262-.23.1-.033.328-.23,1.639-.394,2.361h.525Z" transform="translate(-169.607 -123.395)" fill="#f2f2f2" stroke="#000" stroke-linejoin="round" stroke-width="0.544" fill-rule="evenodd"/>
    <path id="Canada" d="M290.638,107.478l-.23-.983-.82.623.164.688,1.836.852.623-.131,1.082-.82-1.541.033-1.115-.262Zm4.721-5.214.066-.361-1.344-.852-1.935-.525-.623.2,1.148.951,1.869.623.82-.033Zm-100.108,1.213.066-1.115-1.049-.851-.131-.951-.033-.688-1.344-.23-.787-.3-1.344-.459-.459.492-.2,1.082,1.41.361-.131.59.951.721v.721l2.066.918.984-.3Zm110.206-4.426,1.279-1.246.459-.557-.688-.1-1.607.721-1.377,1.148-2.656,3.213-1.738,1.213.525.557-1.246.721.066.623,3.148.033,1.77-.1,1.443.492-1.443.951.951.066,2.394-1.77.394.262-.82,1.672.984.394.754-.066,1.148-1.8-.164-1.279.1-1.082-1.213.361.918-1.508-1.41-.623-.885.492-1.279-.557.787-.688-.951-.426-1.246.656,1.607-1.77ZM188.464,92.1l-.623.656-.459.852.3.623-.2.918.23.918h.623l-.066-1.607L190.6,92.2l-1.607.164-.525-.262Zm92.105-15.411-.131-.394-.556-.031-.918.557-.131.131.033.557.557.164,1.148-.983Zm-3.148-1.049.262-.361-1.968-.033-1.607.886v.493l.984.066,2.328-1.049ZM276.405,70.2l-.885-.164-1.639,1.7L272.7,73.18l-1.869.919,2.066-.2-.262,1.115,2.689-.984,2.033-.984.262.852,1.935.426,1.607-.59-.623-.59-1.115.131.426-.886-1.213-.557-1.113-.623-.492-.492-.918.3.3-.82Zm14.624-2.689,1.213-.557.328-.23.459-.754-.754-.492-1.377.23-1.246,1.017-.23.852,1.607-.066ZM266.832,64l-.262-.656-.1-.328-.525-.328-.983-.492-1.607.754-1.639.557,1.148.787,1.246-.2,1.344.525Zm7.345-.688-2.164-.328,1.869-.852-.131-1.968-.623-.754-1.475-.262L269,60.392l-1.8,1.9.951.688.525,1.082-2.066,1.8-1.049-.066-2.034,1.443,1.377-1.7-1.574-.59-1.475.3-.787,1.115-1.935-.033-2.361.262-1.673-.787-1.639.131-.492-.951-.688-.426-1.246.164-1.7.1-1.443.59.656.754-2.293.917L245.784,66l-1.443.328-3.869.2-2.1-.394,2.787-.852-.92-.918-1.443.131-1.541-.328-2.459-.623-1.246-.754-1.475-.1-1.082.525-1.935.3,1.279-1.344-3.082,1.181L226.8,61.8l-.688-.2-1.246.82-1.475.394-.066-.721-2.687.458-2.886.754-1.7-.2-2.3.524-2.033.754-1.213-.164-1.082-.852-1.935-.426h0l-7.968,6.622L187.906,80.2l1.377.033.886.525.2.852.066,1.279,2.492-1.082,2.1-.623-.164.984.23.787.557.886-.361,1.377-.492,2.23L196.3,88.69,195.284,89.9l-1.672.951h0l-.82,1.017.688,1.443-1.017,1.607,1.344.852-1.181,1.213-.426,1.8,2.263.82.525.886,1.77,2h44.8l.426-.787h.525l-.262,1.115.328.328,1.049.131,1.508.328,1.246.623,1.443-.262,1.738.525h0l1.049-.787,1.049-.328.59-.492.492-.262,1.312.394,1.082.066.262.262.033,1.148,1.7.328-.557.557.394.623-.623.754.59.262-.623.688h0l.394.066.426-.3.164.459,1.115.23,1.246.033,1.246.2,1.312.394.262.656.459,1.541-.787.656-1.246-.262-.328-1.246-.3,1.279-1.246,1.115-.262.951-.361.557-1.344.656h0l-1.213,1.115-.656.721.886.131,1.475-.656.951-.557.525-.1.852.2.557-.3.918-.262,1.541-.262h0l.1-.59-.1.033-.557.1-.59-.2.754-.688.623-.23,1.279-.3,1.508-.3.59.394.623-.459.623-.262.3.131.033.033,2.2-1.377.886-.394h5.575l.328-.525.557-.1.82-.3.886-.918,1.049-1.607,1.8-1.541.361.557,1.213-.361.492.59-.918,2.787.688,1.148,1.935-.262,2.656-.066-3.41,1.672-.492,1.7,1.213.164,2.328-1.475,1.9-.787,4-1.213,2.459-1.344-.852-.721.328-1.475-2.328,2.3-2.82.262-1.8-1.017L289.1,106.6l.2-2.23,2-1.344L290.215,102l-2.492.2-3.968,1.7-3.574,2.689-1.512.327,2.557-1.869,3.312-2.721,2.361-.886L288.769,100l1.7-.164,2.394.033,3.279.426,2.82-.328,2.557-1.672,2.853-.721,1.377-.688,1.377-.754.656-2.23-.361-.754-1.115-.262V91.216l-.754-.623-2.263-.525-.918-1.115L300.8,87.838l1.115-1.213-.656-2.328-.852-2.459-.328-1.7-1.41.886-2.426,2.131L293.589,84.2l-.525-1.115-1.213-.328.721-2.394.852-1.607L290.9,78.59l-.033-.721-1.181-1.082-.983-.656-1.475.492-1.377-.164-2.164-.525-1.279.426-1.246,2.951-.328,1.738-2.886,2,1.017,1.476.164,1.639-.557,1.312L277.03,88.82,274.57,90.2l-2.951.918.557,1.049-.721,3.148-1.836,2.066L268.111,98l-1.443-1.9-.033-2.23.557-1.968,1.181-1.7L266.8,90l-2.459-.131-1.181-.82-1.574-.525-.557-.951-1.082-.721-2.3-.852-2.328.394.23-1.476.492-1.8-1.968-.328,1.607-2.23,1.607-1.508,3.082-2.131,2.82-1.508,1.836-.23.951-1.213,1.672-.787,2.1-.131,2.525-1.246.951-.787,2.426-1.541,1.049-.918,1.049.557,2.131-.3,3.541-1.246.754-.886-.262-.951,1.639-.951.557-.886-1.148-.852-1.77-.262-1.8-.131-1.508,1.935-2.131,1.508-2.361,1.312-.426-1.213,1.377-1.312-.721-1.148-2.852,1.377,1.41-1.8Zm-24.757-6.2-.918-.328-4.624,1.049-1.672.656-2.557,1.279,1.77.459,2.033-.033-3.771.688v.623l1.837.033,2.951-.131,2.131.394-2.033.328-1.8-.1-2.328.3-1.082.2.2,1.377,1.377-.2,1.344.492-.1.82,2.557-.164,3.673-.262,3.082-.59,1.639-.131,1.869.492,2.2.262L258.206,64l-.23-.688,2.3-.131.852-.787-1.639-.82-1.377-.852.787-1.181.886-1.672-.721-.656-.983-.3-1.377.262-.918,1.738-1.41.688.721-1.672-.557-.557-2.394.886-.848-.853-3.41.492,1.541-.787Zm12.821-.492-.557-.361-1.77.066-.688.23.721,1.181Zm35.315.525-1.443-.918-2.754-.164-.688.1-.557.59.656.918.3.1,1.574-.23,1.344.033,1.344.033.23-.459Zm-12.92-.1L286.506,56l-3.672.427-1.9.688L278.6,58.621l-1.082,1.7,1.837.033-2,.755.59.623,1.934.262,2.394.492,4.525.394,2.59-.2,1.049-.525.656.59,1.082.1.656,1.082-1.148.459,2.328.59,1.508.852.164.623-.132.787-2.82,1.77-1.049.886.066.656-3.017.23-2.624.033-1.77,1.377.787.623,4.263-.3.3-.525,1.541.886,1.541.951-.787.525,1.246.918,2.492,1.082,3.508.754.1-.656-.918-1.148-1.148-1.607,2.787,1.508,1.541.492,1.181-1.344V72.524l-.328-.492L301,71.212l-.885-1.082.754-1.049,1.9-.23,1.246,1.77,1.312.787,3.508-2.131L309.921,68l-2.1-.1-1.049-1.672-1.935-.394-2.525-1.148,2.951-.82L305,62.227l-.721-.688-2.721-.688-.623-1.082-2.689.394.361-.754-1.183-.819-2.23-.852-1.7.688-2.951.492,1.082-1.115-.754-1.737-3.805.688L284.734,58.1l-.1-1.049Zm-16.395-1.115-2.328.787.3,1.115-2.426-.23-.557.557,1.9,1.279.3.656,1.115.164,2.754-.656,1.672-1.541-1.246-.721,1.968-.787.164-.492-2.459.2-1.148-.328Zm7.312,1.77,1.837-.328,3.279-1.476-2-.394-2.557-.066-1.7.459-1.377.688-.82.852-.59,1.476,1.41.066Zm-37.607,2.361.852-.754,2.984-1.181,4.525-1.181,2.1-.426-.525-.688-.623-.492-3.082-.066-1.344-.361-4.59.262-.1,1.017-2.492,1.082-2.426,1.246-1.41.721,1.935.886-.2.754,4.394-.82Zm40.693-6,.1-.525-.459-.557-2.263.426-1.443.721,1.049.426,1.672.131,1.344-.623Zm-2.853-2.82-.361.23-1.574-.1-2.492.525-1.246-.033-1.41,1.246,2.164-.131-1.121.952,1.049.262,2.23-.164,1.9-1.213.918-.82Zm-12.821.82.59-.754-1.017-.164-1.869.557-.23,1.541-2-.131-.918-.951-2.689-.525-1.77.459-3.8,1.574,1.344.262,5.837-.164-3.476.721-.492.525,1.935-.033,4-.721L262.933,54l1.672-.754.754-.787-1.213-.066-1.41.262.23-.59Zm18.1-1.409-2.328-.1-1.246.656.852.492,2.3.2.459.688-.721.787-.492.918,2.787.525,1.8.2,2.623-.033,3.8-.262,1.41.2,2.2-.328,1.148-.459.328-.656-.754-.623-1.9-.1-2.624.131-2.3.361-1.672-.131-1.574-.1-.394-.361-1.017-.361.918-.623-.459-.525-2.394.033-.754-.525ZM256.471,49.8l-1.968.23L252.7,50l-3.967,1.017-3.8,1.213h0l1.181.328,2.3-.23,3.213-.688,1.246-.1,1.7-.524Zm26.4.2.328-.164-.492-.3-2.361-.033-.2.426,2.1.1.623-.033Zm-19.149-.262,1.049-.459-1.344-.262-1.935.164-1.672.492,1.082.492Zm2.557-1.377-1.082-.3L264.668,48l-1.869.426-.328.23h1.968Zm15.215.82.983-.557-.754-.525-.557-.1-1.443-.033-.688.59-.23.59.525.361,2.164-.328ZM277,48.784l.033-.721-2.426-.557-2-.2-.688.557.918.361-1.738.459,2.525.066,1.312.492,1.7.164Zm17.608-2,.2-.918-1.54-.263-1.541-.3-.525-.721-2.689.066.1.3-1.279.1-1.344.426-1.607.623-.1.623.656.492h2.13l-1.41.394-.688.525.525.623,2.2.2,2.23-.131,3.443-1.115,2.1-.426-.852-.492Zm25.74-4.525-2.3-.066-2.263-.1-3.345.2-.459-.131-3.377.066-2.1.131-1.672.2-1.639.656-.754-.328-1.279-.066-2.2.459-2.426.2-1.344.033-1.968.262-.361.426.82.394.262.525,1.443.492,4.066-.1,2.361.164-2.361.492-.721-.131-3.05-.066-.361.721.983.557-.918.525-2.459.361-1.607.557,1.574.3.557.983L291,49.309l-.82.1-.656,1.115-2.623.361-.656.754,2.2.1,1.607.2,3.837-.262,2.755.459,4.132-.984.328-.361-2.1.066.164-.361,2.131-.459,1.181-.623,2.23-.426,1.639-.525-.262-.721,1.082-.262-1.41-.2,3.639-.131,1.049-.3,2.59-.262,3.05-1.148,2.23-.361,3.377-.82h-2.426l1.279-.3,2.951-.262,3.181-.525.361-.361-1.7-.328-2.2-.133-2.787-.1Z" transform="translate(-139.969 -41.673)" fill="#f2f2f2" stroke="#000" stroke-linejoin="round" stroke-width="0.544" fill-rule="evenodd"/>
    <path id="Costa_Rica" d="M274.46,273.3l-.459.426-.557-.131-.262-.426-.557-.164-.459.262-1.148-.557-.3.262-.459.394.492.3-.3.656-.033.656.23.426.557.2.394.59.394-.525-.1-.59.459.361.1.623.623.262.688.426.492.492.033.459-.23.361.361.426.951.459.131-.394.164-.426-.033-.394.262-.23-.361-.328.033-.82.721-.2-.787-.885-.655-.849-.394-1.115Z" transform="translate(-172.943 -133.426)" fill="#f2f2f2" stroke="#000" stroke-linejoin="round" stroke-width="0.544" fill-rule="evenodd"/>
    <path id="Cuba" d="M287.064,232.1l-1.607-.688-1.41-.033-1.541-.164-.459.23-1.377.2-.983.426-.886.459-.492.754-1.017.656.721.2.951-.23.3-.525.754-.033,1.443-1.082,1.77.1-.754.525.59.426,2.3.328.492.426,1.607.557,1.049-.066.262,1.181.557.59,1.148.131.688.557-1.344,1.148,2.59-.2,1.246.164,1.213-.1,1.246-.262.262-.492-1.279-.852-1.312-.1.2-.557-1.017-.426h-.623l-.984-.918-1.377-1.312-.59-.492-1.7.262-.623-.787Z" transform="translate(-175.74 -116.917)" fill="#f2f2f2" stroke="#000" stroke-linejoin="round" stroke-width="0.544" fill-rule="evenodd"/>
    <path id="Dominican_Rep." d="M315.409,246.524v.59l.459.328L316.72,246l.656-.3.2.525.721-.131.361-.394.59.1.852-.066.82.426.754-.852-.82-.754-.787-.066.1-.623-.983.033-.262-.721-.459.033-1.017-.525L316,242.655l-.262.361.066,1.148-.23.787-.492.361.394.623-.066.59Z" transform="translate(-190.775 -121.467)" fill="#f2f2f2" stroke="#000" stroke-linejoin="round" stroke-width="0.544" fill-rule="evenodd"/>
    <path id="Guatemala" d="M258.667,249.87l-1.672-.033h-1.7l-.131,1.181h-.852l.59.688.623.492.164.459.262.131-.129.689h-2.328l-1.082,1.7.23.394-.262.492-.131.623.885.852.82.426,1.115.033.918.361.065-.328.688-.525.361-.23-.066-.23.459-.131.426-.525-.1-.426.164-.394.918-.59.918-.787-.492-.262-.2.3-.557-.361h-.531l.394-2.361.23-1.639Z" transform="translate(-165.774 -124.324)" fill="#f2f2f2" stroke="#000" stroke-linejoin="round" stroke-width="0.544" fill-rule="evenodd"/>
    <path id="Honduras" d="M272.395,258.236l-.426-.59-.623-.328-.492-.459-.525-.394-.262-.033-.82-.3-.361.164-.492.066-.426-.131-.557-.131-.262.23-.59.23-.852.066-.82-.2-.3.131-.164-.2-.525.033-.426.361-.2-.065-.918.787-.918.59-.164.394.1.426-.426.525.492.164.361.426.525.328.033.3.82-.262.361.164.23.23-.2.82.557.2.23.656.59-.1.262-.492h.262l.066-1.017.426-.066h.394l.459-.557.492.426.2-.262.361-.23.688-.59.1-.426.164.033.262-.492.2-.066.3.3.361.1.426-.262h.459l.656-.262.3-.3.623.066Z" transform="translate(-169.239 -126.818)" fill="#f2f2f2" stroke="#000" stroke-linejoin="round" stroke-width="0.544" fill-rule="evenodd"/>
    <path id="Haiti" d="M312.681,242.995l-1.508-.328-1.115-.063-.459.557,1.115.328-.1.787.721.918-.688.459-1.377-.164-1.639-.3-.23.688.918.623.886-.361,1.082.131.885-.131,1.181.361.065-.59-.394-.623.492-.361.23-.787Z" transform="translate(-187.72 -121.447)" fill="#f2f2f2" stroke="#000" stroke-linejoin="round" stroke-width="0.544" fill-rule="evenodd"/>
    <path id="Jamaica" d="M298.219,248.769l1.279-.033-.262-.59-.885-.492-1.213-.2-.394-.066-.787.131-.262.492.951.754.983.328.59-.328Z" transform="translate(-183.062 -123.352)" fill="#f2f2f2" stroke="#000" stroke-linejoin="round" stroke-width="0.544" fill-rule="evenodd"/>
    <path id="Mexico" d="M221.6,212.581l-1.181-.459-1.279-.656-.262-.983-.066-1.475-.787-1.181-.328-1.213-.525-1.443-1.017-.82-1.443.033-1.574,1.639-1.312-.623-.721-.623-.131-1.148-.262-1.082-.787-.918-.688-.656-.426-.721h-3.05l-.262.852h-4.919l-3.508-1.443-2.328-1.017.328-.426-2.3.23-2.066.164.066,1.869.23,1.672.23,1.344.262,1.312.852.59.951,1.475-.328.951-.886.754-.688-.1-.2.164.754,1.213.951.492.328.557.3-.3,1.017.951.688.656.033,1.115-.394,1.541.82.525,1.082,1.017.951,1.181.23,1.279h.328l.885-.754.131-.394-.492-.918-.525-.951-.852-.066.131-1.115-.3-.983-.328-.918-.164-1.935-.852-1.049-.2-.754-.394-.525v-1.344l-.328.033-.033-.721-.23-.164-.131-.459-.886-1.443-.361-.852.328-1.574.033-.984.59-.852.787.557.623-.066,1.017.82-.3.787.131,1.607.492,1.541-.131.656.557,1.017.754,1.115.885.164.1,1.443.787,1.017.82.492-.59,1.312.23.492,1.344.852.623,1.312,1.474,1.6,1.246,2.1.426,1.049v.82l.459.951-.1.721-.525.525.1.59-.623.23.262,1.017.721,1.312,1.738,1.181.623.951,1.77.656.984.131.394.557,1.377.983,1.935.984,1.312.3,1.574.951,1.312.394,1.213.557.951-.23,1.574-.787,1.017-.131,1.443.525.852.688,1.8,2.263.131-.623.262-.492-.23-.394,1.082-1.7h2.329l.131-.688-.262-.131-.164-.459-.623-.492-.59-.688h.847l.131-1.181h1.7l1.672.033.033-.328.23-.1.3.262.82-1.279h.328l.394-.033.394.525.658-1.639.394-.885-.3-.361.59-1.279,1.148-1.246.2-1.017-.394-.426-1.115.164-1.574-.066-1.968.492-1.312.557-.394.59-.394,1.77-.59,1.213-1.279.852-1.181.361-1.41.361-1.41.2-1.672.59-.623-.852-1.837-.557-.59-1.049-.23-1.181-.983-1.541-.131-1.639-.394-1.017-.164-1.115.361-1.017.59-2.82.59-1.475,1.017-1.837-.688.066Z" transform="translate(-141.292 -103.788)" fill="#f2f2f2" stroke="#000" stroke-linejoin="round" stroke-width="0.544" fill-rule="evenodd"/>
    <path id="Nicaragua" d="M274.215,259.6l-.623-.066-.3.3-.656.262h-.459l-.426.262-.361-.1-.3-.3-.2.066-.262.492-.164-.033-.1.426-.688.59-.361.23-.2.262-.492-.426-.459.557h-.394l-.426.066-.066,1.017h-.262l-.262.492-.59.1-.131.131-.3-.328-.23.328.852.951.721.656.328.688.82.852.59.656.3-.262,1.148.557.459-.262.557.164.262.426.557.131.459-.426-.262-.361-.033-.557.394-.525-.066-.557.23-.885.3-.23.033-.918-.066-.557.131-.918.3-.82.459-.721-.1-.754.131-.459.2-.2Z" transform="translate(-171.059 -128.183)" fill="#f2f2f2" stroke="#000" stroke-linejoin="round" stroke-width="0.544" fill-rule="evenodd"/>
    <path id="Panama" d="M289.12,280.241l-.656-.59-.557-.623-.82-.361-1.017-.066.1-.2-1.017-.131-.656.623-1.148.426-.82.525-.885.164-.492-.525-.164.164-.754-.1.066-.426-.623-.754-.721.2-.033.82.361.328-.262.23.033.394-.164.426-.131.394.2.328.1-.459h.787l.459.23.754.164.328.82.59.131.262-.361.262,1.246.852-.1.3-.3.492-.3-.82-1.115.2-.426.426-.1.754-.525.394-.721.82-.131.886.59.328.688.459.131-.492.557.328,1.148.59.59.3-1.017.59.164.361-.623-.361-1.246Z" transform="translate(-176.323 -135.638)" fill="#f2f2f2" stroke="#000" stroke-linejoin="round" stroke-width="0.544" fill-rule="evenodd"/>
    <path id="El_Salvador" d="M262.577,263.769l.2-.82-.23-.23-.361-.164-.82.262-.033-.3-.525-.328-.361-.426-.492-.164-.459.131.066.23-.361.23-.688.525-.066.328.459.426,1.017.131.721.426.623.2,1.082.033.23-.492Z" transform="translate(-168.242 -129.006)" fill="#f2f2f2" stroke="#000" stroke-linejoin="round" stroke-width="0.544" fill-rule="evenodd"/>
    <path id="United_States" d="M211.175,113.6h-.527l-.426.787H165.662l-.525,1.672-.787,1.672-.755.525.361-1.935-1.9-.688-.459.394-.131.951-.59,1.77-1.377,2.721-1.312,1.837-1.312,1.836-1.77,1.9-.361,1.541-.918,1.738-1.279,1.7.328,1.115-.623,1.7.492,1.77.426.721-.262.492.131,2.951.82,2.131-.26,1.149.328.328,1.508.23.426.557.918.1-.033.623.721.23.688,1.213-.1,1.049,2.066-.164,2.3-.23-.328.426,2.328,1.017,3.508,1.443h4.919l.262-.852h3.05l.426.721.688.656.787.918.262,1.082.131,1.148.721.623,1.312.623,1.574-1.639,1.443-.033,1.017.82.525,1.443.328,1.213.787,1.181.066,1.476.262.984,1.279.656,1.181.459.688-.066-.2-.721.131-1.017.328-1.443.623-.918,1.213-1.017,1.968-.886,2-1.541,1.607-.492,1.148-.131,1.148.459,1.607-.262,1.082,1.115,1.246.066.787-.394.557.3.426-.262-.3-.426.23-.82-.164-.557.787-.328,1.377-.131,1.541.23,2.033-.262.983.492.656.984.3.1,2-.951.623.328.987,1.736.262,1.148-.656,1.377.131.82.525,1.607.656,1.8.59.459.131.918.852.262.557-.262.656-1.279.23-.82.3-1.41-.394-2.426.164-.886-.492-1.475-.23-1.77.033-1.443.59-1.476,1.148-1.246,1.213-.984,2.263-1.344.426-.721,1.082-.754.918-.131,1.443-1.246,1.968-.623,1.508-1.574.3-2.131.033-.721-.459-.131.492-2.033-.984-.688,1.049.328v-1.344l.623-.885-.328,1.738.656.82-.951,1.443.131.066,1.443-1.672.787-.82.2-.82-.3-.361-.033-1.148.394.525.361.131-.033.525,1.7-1.607.82-1.475-.459-.1.688-.59-.131.262h1.082l2.557-.623-.361-.394-2.59.394,1.574-.59,1.017-.1.787-.1,1.344-.361.787.033,1.246-.328.328-.557-.361-.459-.066.721-.688-.033-.2-1.082.361-1.082.459-.426,1.279-1.213,1.935-.59,1.968-.688,2.066-.983-.066-.656L252,121.112l.918-2.787-.492-.59-1.213.361-.361-.557-1.8,1.541L248,120.686l-.886.918-.82.3-.557.1-.328.525h-5.575l-.885.394-2.2,1.377.066.3-.2.787-1.511.655-1.279-.164-1.312-.066-.852.23-.1.59h0l-.033.2-1.9,1.213-1.475.59-.951.262-1.213.557-1.312.3-.819-.1-.885-.426.885-.787h0l.656-.721,1.213-1.115h0l.23-.82.164-1.148-.525-.23-1.41.918-.3-.033.1-.492,1.246-.82.525-.918.23-.918-.886-.787-1.213-.426-.557.787-.459.2-.721,1.017.131-.688-.852.492-.688.656-.852,1.017-.426.852.033,1.246-.59,1.312-1.082.984-.459.3-.525.23h-.59l-.1-.131-.033-1.082.23-.525.23-.492.2-.983.82-1.148.951-1.41L220.062,122h-.23l-1.77,1.312-.131-.23.951-.754,1.541-1.312,1.213-.164,1.443-.426,1.213.23h.033l1.541-.164-.492-.82h0l-.394-.066h0l-.459-.1-.131-.557-1.672.164-1.639.459-.821-.754-.82-.262,1.017-1.082-1.738.656-1.606.688-1.508.492-.686-.69-1.8.426.131-.3,1.508-.852,1.541-.82,1.935-.688h0l-1.738-.525-1.443.262L213.8,115.5l-1.508-.328-1.049-.131-.328-.328.262-1.115ZM132.282,98.224l2.263-.918v-.59l-.852-.131-1.115.3-2.1.688-.721.885.23.525Zm-12.69-5.377.754-.754-.951-.164-1.869.328.262.525.525.361,1.279-.3Zm.394-7.312-1.015.72.131.164,1.377-.131.1.361.557.394,1.607-.394.394-.2-1.082-.262-.525-.492-1.115.2-.426-.361ZM160.94,72.353l-1.443-.361-3.345.918-1.049-.1-3.607.754-1.574.2-2.557.82-1.574.852-2.821.819-2.492.033-2.066.951,1.049.557.23.754-.262.886.754.688-.394,1.148-3.017.066,1.41-.918h-1.115l-4.3.885-2.982.753.328,1.082-.394.721,1.475.459,2.263-.23.59.426.951-.426,2-.394h.886l-1.935.688.361.328-.82.852-1.8.59-.82-.164-2.3.886-.59-.3-1.344.131-1.738.985-2.492,1.017-1.9,1.115.1.787L121.3,91.7l.459.459.164.886,2.361-.361.131.688-1.082.688-1.181,1.148h.918l2.361-.754-.525.951,1.181-.688-.131.984,1.574-.721.131.361,2.361-.59-2.033,1.115-1.869,1.476-1.869.688-.754.394L120.118,99.6l-1.607.787-2.131.23-2.787,1.082-2.164.59-2.656.918-.131.328,3.279-.557,1.968-.656,2.263-.656,2-.557.918.164,2.656-.852L123.2,99.5l3.443-1.017,1.279-.852,2.164-.59,2.492-.82,2.918-1.377-.066-.951,3.639-1.344,2.426-1.279,3.017-1.049-.131.459-2.2.59-2.721,1.869-1.049,1.148,2.1-.426,2-.623,2.131-.426.951-.1,1.148-1.344,2.066-.394.852.82,1.968.886,2.2-.164,1.869.656,1.049.361,1.082,2,1.213.557,2.328.066,1.344.131-.886,1.8.525,1.607-1.082,1.7.82.623.2.721h0l1.672-.951,1.017-1.213-1.508-1.246.492-2.23.361-1.377-.557-.886-.23-.787.164-.983-2.1.623L159.1,94.781l-.066-1.279-.2-.852-.886-.525-1.377-.033,11.608-10.624,7.968-6.624h0l-1.148-.23-1.344-.525-2.131.262-.721-.23-2.328-.164-2.033-.525-1.574.164-1.607-.3.656-.394-2.066-.1-1.082.328.164-.787Z" transform="translate(-108.642 -53.568)" fill="#f2f2f2" stroke="#000" stroke-linejoin="round" stroke-width="0.544" fill-rule="evenodd"/>
    <path id="Anguilla" d="M341.732,248.361l.033-.066-.066-.033-.262.164v.035Z" transform="translate(-201.261 -123.698)" fill="#f2f2f2" stroke="#000" stroke-linejoin="round" stroke-width="0.544" fill-rule="evenodd"/>
    <path id="Antigua_and_Barb." d="M345.217,251.635l.066-.033v-.1l-.033-.033-.033-.066-.131-.066-.164.164v.066l.033.1.2.033.066-.066Zm.066-1.148v-.162l-.033-.066h-.1l-.033-.033h-.033l-.033.033.033.2.164.1.033-.066Z" transform="translate(-202.647 -124.48)" fill="#f2f2f2" stroke="#000" stroke-linejoin="round" stroke-width="0.544" fill-rule="evenodd"/>
    <path id="Bahamas" d="M306.744,230.2l.066-.2-.1-.033-.164.23-.2.1h-.1l-.23-.1h-.164l-.131.164-.2.033.033.033v.066l-.066.1v.065l.033.1.492-.033.426-.066.23-.3Zm.262-.656-.131-.1-.131.1.033.1.23-.1Zm0-1.9-.131-.066-.1.164.1.033.23-.033.164.033.164.131.1-.066-.033-.033-.131-.1-.2-.033H307.1l-.1-.033Zm-2.164.426.23-.2.23-.1.3-.361-.033-.3.065-.131-.2.033-.033.1-.033.1.1.131v.066l-.066.131-.1.033-.033.066-.1.033-.131.164-.262.2-.066.1.131-.066Zm.394-1.049-.2-.066-.066-.131-.131-.033-.033.066v.066l.033.131.066-.033.262.131.131-.1Zm-1.344-.361v-.23l-.131-.164-.2-.131-.033-.394-.1-.23-.065-.2-.131-.262v.164l.033.033.033.2.131.3.033.131-.033.131-.131.033-.033.066.164.1.262.1.164.426.033-.066Zm-1.344-1.148-.164-.1-.066-.1-.23-.23-.1-.033-.066.131.131.033.3.23.131.066h.065Zm2.394-1.312-.033-.1h-.033l-.1.033-.1.3h.1l.164-.23Zm-5.771-.361-.066-.1-.1.066h-.164l-.066.033h-.131l-.1.066.131.262.1.1.033.328.066.033-.033.23.361.033.131-.262v-.557l-.1-.164-.131.2-.131-.1.2-.129v-.033Zm4.23.1-.328-.459v-.066l-.164-.492-.1-.033-.033.033-.033.066.131.131v.131l.1.066.131.361.131.131-.033.1-.131.1-.033.066h.033l.2-.033h.131v-.1Zm-3.443-1.7.164-.066h0l-.1-.066h-.23l-.131.033-.066.066.033.033.131.033.2-.033Zm-.788.656-.164-.2-.1-.3-.066-.131.033-.164-.1-.131-.2-.131-.1.033.033.361-.066.2-.262.361.033.131h0l.033.066-.164.131v-.1l-.2.033.1.164.2.131.1.033.1-.066v.164l.1.131.033.131.1-.1.2-.065.066-.066.23-.131v-.066l.033-.2.033-.23Zm2.2-1.639-.1-.164-.033.033-.033.131-.1.131.164-.033.131.033.2.164.23.066.1.2.2.2v.2l-.131.2-.033.23-.2.033.033.033.1.1.033.131.066.065v-.23l.1-.262.131-.426-.033-.1-.1-.1-.23-.3-.23-.1-.262-.23Zm-2.886-2.59-.164-.131-.065.131v.033l-.033.1-.164.131-.164.033-.23-.2-.066-.033.262.361.1.033h.131l.3-.1.525-.164.557-.066.033-.066-.033-.1-.262.066-.328-.033-.065.066h-.131Zm2,1.7.066-.1.131-.59.262-.2.033-.394-.164-.164-.131-.066-.033-.066.033-.066-.066-.033-.1-.066-.131-.2-.131-.131-.23-.033-.2-.033-.131-.033-.164.1h.262l.492.1.23.492.164.131.033.131-.066.131v.131l-.1.164-.033.262-.1.131-.23.164.131.066.1.2.066-.033Z" transform="translate(-183.817 -111.738)" fill="#f2f2f2" stroke="#000" stroke-linejoin="round" stroke-width="0.544" fill-rule="evenodd"/>
    <path id="Bermuda" d="M343,199.613l.131-.2H343.1l-.164.164-.2.066.033.033h.033Z" transform="translate(-201.779 -104.264)" fill="#f2f2f2" stroke="#000" stroke-linejoin="round" stroke-width="0.544" fill-rule="evenodd"/>
    <path id="Barbados" d="M351.011,265.908l.131-.131-.1-.1-.2-.262-.1.033v.328l.033.1.164.1.066-.066Z" transform="translate(-204.965 -130.523)" fill="#f2f2f2" stroke="#000" stroke-linejoin="round" stroke-width="0.544" fill-rule="evenodd"/>
    <path id="Cayman_Is." d="M286.938,243.975l-.033-.1-.033.033v.2h.23l.1-.065h.2l-.033-.066-.262-.033-.033.033-.066.033-.066-.033Zm2.623-.755h0l-.033-.033h-.035l-.1.033h-.066l-.033.033-.033.033h.066l.131-.066h.1Zm.262-.033.164-.066h0l-.033-.033h-.033l-.033.033h-.035l-.164.1h.066l.066-.033Z" transform="translate(-179.551 -121.64)" fill="#f2f2f2" stroke="#000" stroke-linejoin="round" stroke-width="0.544" fill-rule="evenodd"/>
    <path id="Dominica" d="M346.034,258.2l.1-.23-.033-.328-.065-.131-.262-.1v.066l-.033.164.1.262.033.361Z" transform="translate(-202.972 -127.338)" fill="#f2f2f2" stroke="#000" stroke-linejoin="round" stroke-width="0.544" fill-rule="evenodd"/>
    <path id="Grenada" d="M344.127,269.633l.164-.066.066-.361-.1-.033-.1.1-.1.164v.131l-.066.1.131-.033Z" transform="translate(-202.278 -132.017)" fill="#f2f2f2" stroke="#000" stroke-linejoin="round" stroke-width="0.544" fill-rule="evenodd"/>
    <path id="St._Kitts_and_Nevis" d="M342.669,251.848v-.1l-.066-.066h-.1v.164l.066.065Zm-.164-.23-.033-.065-.033-.033-.066-.131-.131-.131-.065.033-.033.066v.033h0l.1.1.131.033.066.131.066-.033Z" transform="translate(-201.542 -124.889)" fill="#f2f2f2" stroke="#000" stroke-linejoin="round" stroke-width="0.544" fill-rule="evenodd"/>
    <path id="Saint_Lucia" d="M346.883,263.3l.033-.394-.033-.164-.066.033-.1.131-.131.2-.033.1v.2l.2.131.131-.23Z" transform="translate(-203.297 -129.459)" fill="#f2f2f2" stroke="#000" stroke-linejoin="round" stroke-width="0.544" fill-rule="evenodd"/>
    <path id="Montserrat" d="M343.962,253.491l-.033-.164H343.9l-.066.131v.1l.1.033Z" transform="translate(-202.213 -125.713)" fill="#f2f2f2" stroke="#000" stroke-linejoin="round" stroke-width="0.544" fill-rule="evenodd"/>
    <path id="Puerto_Rico" d="M327.1,248.375v-.033h.033v-.033l.033-.033h0v-.033H327v.066l.065.033h0v.033Zm4.459-.1.23-.066v-.035l-.131-.033h-.2l-.164.066.033.066h.23Zm-1.213-.721-.033-.066h-.066l-1.148-.033-.426-.066-.1.033-.1.033-.033.131-.065.066-.1.066.033.1.033.066.066.131-.033.164-.066.328.1.065.23-.033.1.033.1.033.131-.033.131-.065.3.033.164-.033.2.1.131-.033.066.033h.3l.3-.066.262-.164.1-.164.131-.1.2-.131v-.3l-.23-.033-.2-.1-.361-.033h-.033l.033.066h-.033l-.065-.033Z" transform="translate(-195.518 -123.351)" fill="#f2f2f2" stroke="#000" stroke-linejoin="round" stroke-width="0.544" fill-rule="evenodd"/>
    <path id="Sint_Maarten" d="M341.491,248.972h0l.066.066.1.033.033-.033v-.066Z" transform="translate(-201.282 -123.98)" fill="#f2f2f2" stroke="#000" stroke-linejoin="round" stroke-width="0.544" fill-rule="evenodd"/>
    <path id="Turks_and_Caicos_Is." d="M315.113,235.717l-.033.131v.066l.065.033.2-.033.033-.033.065-.033v-.029l-.131.033Zm1.181.2.066-.066-.066-.066-.23-.065-.066.033v.1h.2l.1.1v-.033Zm-.361-.164-.033-.033-.033-.2H315.7v.066l.033.066h.033l.033.066.1.066.033-.033Z" transform="translate(-190.774 -118.628)" fill="#f2f2f2" stroke="#000" stroke-linejoin="round" stroke-width="0.544" fill-rule="evenodd"/>
    <path id="St._Vin._and_Gren." d="M345.5,266.685h0v-.033h.033v-.033h0v-.033H345.5v.033h0v.033h-.033v.033Zm.23-.623.033-.066.033-.033h0l-.033-.033h0v.033L345.7,266h0v.033h0v.035h-.033l.033.033h0l.033-.033Zm.1-.361.1-.065.033-.2-.033-.131h-.066l-.1.033-.065.1-.033.164.131.131Z" transform="translate(-202.863 -130.48)" fill="#f2f2f2" stroke="#000" stroke-linejoin="round" stroke-width="0.544" fill-rule="evenodd"/>
    <path id="British_Virgin_Is." d="M337.06,247.351l.1-.065-.066-.033h-.131l-.1.066.033.033h.164Zm.361-.131.131-.131-.164.033-.065.066.033.033h.066Zm.262-.59h-.23l.033.033h.1l.1.033h0v-.066Z" transform="translate(-199.441 -123.048)" fill="#f2f2f2" stroke="#000" stroke-linejoin="round" stroke-width="0.544" fill-rule="evenodd"/>
    <path id="U.S._Virgin_Is." d="M336.243,249.09l-.23.066-.033.131h.361l.23-.1h-.2l-.131-.1Zm.3-1.148-.164-.033-.066.066h0l.1.033Zm-.361.033-.065-.066-.1-.033-.131.033.164.1Z" transform="translate(-199.051 -123.545)" fill="#f2f2f2" stroke="#000" stroke-linejoin="round" stroke-width="0.544" fill-rule="evenodd"/>
    <path id="Martinique" d="M346.993,260.812l-.066-.23-.033-.066-.066-.1.033-.1v-.033H346.8l-.1-.164-.2-.1h-.1l-.066.066v.1l.1.3.066.065.164.066-.131.131v.033l.033.1h.3l.066.1.033-.033.033-.131Z" transform="translate(-203.21 -128.377)" fill="#f2f2f2" stroke="#000" stroke-linejoin="round" stroke-width="0.544" fill-rule="evenodd"/>
    <path id="Guadeloupe" d="M345.927,255.673l.066-.066v-.1l-.066-.1-.066.033-.065.1v.1l.033.033h.1Zm-.623-.262.065-.066v-.394l.033-.1-.066-.033-.066-.065-.2-.066-.033.033-.066.1.033.492.066.164.066.033.164-.1Zm.525-.459.262-.066-.3-.2-.066-.131v-.1l-.131-.1-.066.066-.033.1.033.164-.1.131.033.131.131.033.23-.033Z" transform="translate(-202.669 -126.124)" fill="#f2f2f2" stroke="#000" stroke-linejoin="round" stroke-width="0.544" fill-rule="evenodd"/>
    <path id="Greenland" d="M445.682,41.53l-8.487-.13-3.852.1-1.632.424-3.754-.033-4.146.685-.522.555,2.187.685-2.024-.424-1.469-.1-2.285-.457-3.461.685-.882-.392h-3.4l-3.558.2-2.905.326-.065.588-1.73.163-4.766.949-1.5.555,2.644.49-.914.522-4.864.718-5.06.718-.718.555,2.089.653,4.734.392-2.448.065-3.558.49,1.241,1.012.979.49,3.069-.1,3.3-.065,2.481.1,2.612.947-.457.685,1.175.62.457,1.73.326,1.175.457.62-2.285,1.567.849.424,1.436-.261.849.588,1.73,1.11-2.448-.457h-1.241l-.979.914-.49,1.175,1.371.588,1.306-.261.849-.261,1.8-.62L406.8,63.6l-.849.751L403.635,65,401.35,67.06l.653.653-1.11,1.306,1.208,1.7-.49,1.632.229,1.208,1.567,2.317.261,1.828,1.012,1.044h2.905l1.632,1.535,2.122-.1,1.338-1.861,1.143-1.567-.1-1.436,2.808-1.5,1.077-1.208.457-1.273,1.535-1.143,2.122-.424,1.991-.457.979-.065,3.331-1.273,2.416-1.861L432,65.427l1.5-.033,4.081-.588,3.95-1.4,3.885-1.5-1.8-.1-3.461-.065,1.73-.914-.163-1.175,1.371.979.882.685,2.383-.326-.2-1.4L444.7,58.572l-1.632-.424.783-.457,2.35.685.163-.751-1.338-1.11h1.763l1.828-.261.555-.588-1.306-.685,2.808-.1-1.306-1.4,1.338-.163.033-1.371-2.025-.816,2.089-.522,1.894-.033-1.176-1.044.359-1.665,1.175-.947,1.6-1.044-2.612-.065,3.689-.229.718-.326,4.766-.947-.522-.555-3.264-.261-5.517.49-3,.49,1.469-.751-.751-.457-2.285.392-3.167-.457-3.95.163-.457-.229,5.974-.13,4.211-.065,2.155-.457-6.431-.947Z" transform="translate(-221.061 -41.4)" fill="#f2f2f2" stroke="#000" stroke-linejoin="round" stroke-width="0.545" fill-rule="evenodd"/>
</svg>
