<svg xmlns="http://www.w3.org/2000/svg" width="212.505" height="153.325" viewBox="0 0 212.505 153.325">
  <g id="Group_129" data-name="Group 129" transform="translate(-2955.495 1290.446)">
    <path id="Australia" d="M941.82,453.811l-1.636-.273-1.036,1.582-.327,2.945-1.145,2.182-.273,2.891,1.636.109.436.164,3.6-2.345.327.927,2.182-2.673,1.745-1.2,2.454-3.982-1.527-.273-2.618.655-1.855.491-1.964-1.2Zm27.327-93.98.273-1.255.055-1.964-.873-1.745.055-1.473-.709-.436L968,350.83l-.654-1.745-1.255,1.309-.218.982-.818,1.909-.982,1.855.327,1.145-.655.709-.818,2.618.055,2.018-.382.982.164,1.691-1.418,2.727-.709,1.909-.927,1.582-.927,1.855-2.236,1.145-2.673-1.145-.273-1.091-1.364-.873h-.873l-1.8-2.073-1.364-1.2-2.127-1.091-2.127-1.909-.055-.982,1.364-1.691,1.145-1.745-.164-1.418,1.036-.109,1.364-1.364,1.091-1.855-1.2-1.745-.818.655-1.091-.273-1.909.982-1.745-1.091-.927.382-2.454-.873-1.473-1.473-1.909-.818-1.691.491,2.127,1.145-.164,1.745-2.618.655-1.527-.382-1.964,1.2-1.582,2.018.327.818-1.473.927-1.855,2.782.327,1.909-1.855-.327h-1.909l-1.364-2.073-2.018-1.582-1.527.436-1.418.491-.164.873-1.309-.382-.164.982-1.636.6-.927,1.364-1.909,1.691-.764,2.618-1.255-.709-1.2,1.691.818,1.636-1.418.655-.764-3-2.618,2.945-.436,1.909-.382,1.364-2.073,1.8-1.091,1.855-1.909,1.527-3.327,1.036-1.691-.109-.818.327-.6.764-1.909.382-2.564,1.309-.764-.436-1.418.273-2.509,1.255-1.745,1.473-2.618,1.145-1.691,2.4.218-2.618-1.691,2.509-.055,2.018-.709,1.745-.818.818L871.4,396.7l.491,1.036.055,1.091.873,2.727-.382,1.8-.545-1.364-1.255-.982.218,3.218-.927-1.527.055,1.527.982,2.727-.327,2.727.927,1.364-.218,1.036.491,2.236-.709,1.964-.164,1.964.382,3.545-.382,2.018-1.2,2.4-.327,1.255-.818.818-1.582.436-.818,2.018,1.309.655,2.182,2.236h1.964l2.073.164,1.8-1.145,1.854-.982.764.164,2.454-1.855,2.073-.164,2.236-.382,2.291.655,1.964-.327,2.509-.109,1.636-1.418,1.255-1.8,2.836-.818,3.764-1.745,2.727.218,3.764-1.145,4.255-1.255,5.345-.327,2.182,1.691,2.018.109,2.891,2.073-.873.818.982,1.309.709,2.509-.873,1.855,1.582,1.418,2.345-2.782,2.345-1.145,3.654-3-.873,2.564-1.855,1.745-1.364,2.018-2.4,1.909,2.836-.655,2.564-2.4-.491,2.618-1.745,1.691,2.564.436.709,1.418-.218,1.8-.818,2.673.764,2.182,2.182,1.036,1.527.218,1.309.545,1.909.982,3.927-2.564,1.909-.655-1.473,1.855,1.418.6,1.473,1.527,2.564-1.473,2.073-1.364,3.436-1.473,3.273-.109,2.291-1.255.491-1.091,1.636-2.454,2.127-2.618,1.964-1.745,2.4-3.055,1.8-1.691,2.4-2.727,2.945-1.691,2.727-3.164,1.691-2.454.764-1.964,2.073-3.109,1.145-1.582,1.364-3.109-.382-2.945.927-2.127.6-2.018v-2.782l-1.527-2.782-1.036-1.364-1.582-2.127.382-3.655-.818.545-.873-1.527-1.364.764-.327-3.764-1.2-2.182.545-.818-1.691-1.527-1.745-1.636-2.891-1.8-.491-2.345.709-1.8-.218-3-.709-.382-.109-1.745-.109-3,.6-1.527-1.255-1.364-.764-1.473-2.127,1.309-.655-2.727Z" transform="translate(2089.546 -1610.95)" fill="#f2f2f2" stroke="#000" stroke-linejoin="round" stroke-width="0.545" fill-rule="evenodd"/>
    <path id="Fiji" d="M1078.182,367.848l-2.018,1.091-1.036.164-1.691.709.109,1.309,2.127-.709,2.127-.873.382-1.691Zm-6,4.418-.873.545-1.255-.436-1.473,1.2-.109,1.527,1.582.436,1.964-.491.982-1.8Z" transform="translate(2089.546 -1610.95)" fill="#f2f2f2" stroke="#000" stroke-linejoin="round" stroke-width="0.545" fill-rule="evenodd"/>
    <path id="New_Zealand" data-name="New Zealand" d="M1019.219,454.247l.491-1.418-3.164,1.582-1.855,1.855-1.745.873-3.218,2.509-3.054,1.745-3.818,1.745-3,1.309-2.345.6-6.164,3.327-3.491,2.509-.6,1.255,2.782.218.818,1.145,2.455.055,2.182-.982,3.436-1.527,4.418-3.382,2.564-2.236,3.382-1.255,2.182-.055.327-1.582,2.509-1.364,3.818-2.454,2.291-1.582,1.145-1.418.273-1.418-3.055,1.364.436-1.418Zm15.709-16.636,1.036-3.109-1.691-.927-.436-1.964-1.255.273-.218,2.509.436,3.109.491,1.473-.491.6-.327,2.4-1.309,2.236-2.291,2.727-2.891,1.2-.927,1.309,2.018,1.364-.436,1.909-3.764,2.782.764.491-.218.873,3.218-1.364,3.218-2.291,2.454-1.855.873-.655.818-1.473,1.527-1.091,2.073.109,2.291-2.073,2.782-3.109-1.145-.436-2.509,1.364-1.745-.273-1.582-1.145,1.255-2.673-.655-.982-1.582,2.4Z" transform="translate(2089.546 -1610.95)" fill="#f2f2f2" stroke="#000" stroke-linejoin="round" stroke-width="0.545" fill-rule="evenodd"/>
    <path id="Papua_New_Guinea" data-name="Papua New Guinea" d="M1009.456,335.776l.491-.982-1.309-1.2-1.364-2.182-.873-.818-.273-1.036-.436.382.491,2.618,1.2,2.182,1.2,1.364.873-.327Zm-11.563-4.691,1.145-2.127.218-1.909-.6-.545-1.855.055.218,2.018-1.8,1.255-.927,1.2-1.745.273-.218-1.855-.436.055-.545,1.691-1.691.273-2.727-.491-.327,1.036,1.691.982,2.454,1.036h1.582l1.636-.818,1.745-.873.545-.982,1.636-.273Zm-15.163,6.654-.491-2.345,2.836-.382-.6-1.8-4.964-2.182-.327-2.018-1.582-1.745-2.018-1.8L970.02,323.5l-5.236-2.4-.545,11.291-.818,11.345,3.109.109,1.691.6,2.509-1.2-.164-2.564,1.964-1.145,2.673-.982,3.818,1.527,1.309,3.055,1.582,1.909,2.127,2.182,3,.545,2.618.382.6.873,2.073-.218.436-.982-3.054-1.473.982-.655-2.291-.6.273-1.527-1.745.109-1.636-3.709-2.564-2.236Zm18.927-10.036-.273-1.8-1.091-1.145-1.145-1.418-1.255-.818-1.036-.764-1.582-.982-.873.818,2.127,1.036,1.691,1.473,1.309,1.145.654,1.309.436,2.073,1.036-.927Z" transform="translate(2089.546 -1610.95)" fill="#f2f2f2" stroke="#000" stroke-linejoin="round" stroke-width="0.545" fill-rule="evenodd"/>
    <path id="Vanuatu" d="M1041.037,369.212l-1.473-1.964-.327.927.709,1.527Zm-1.091-5.291-1.255-1.091-.491,2.673.273.982.655-.218.709.436.109-2.782Z" transform="translate(2089.546 -1610.95)" fill="#f2f2f2" stroke="#000" stroke-linejoin="round" stroke-width="0.545" fill-rule="evenodd"/>
    <path id="New_Caledonia" data-name="New Caledonia" d="M1034.873,390.593v-.164l-.218-.109-.109.273v.055l.109.055h.109l.109-.109Zm2.509-4.145-.054-.055v-.164l.054-.109-.218.109-.327.109.055.436-.055.218.164.055.054.164h.109l.382-.109.164-.6h-.218l-.109-.055Zm-1.636-.927.164-.273.055-.109-.109-.382-.164-.164.164-.545-.054-.109-.218-.109-.491.164-.055.109.273.055.109.109-.273.382-.273.055.055.273.109.218.382.109.164.218Zm-2.127-1.582.164-.164.164-.218-.054-.055v-.164l.109-.218.164-.055-.109-.109-.109-.055v.164l-.164.382-.055.164-.273.327h.164Zm-6.709-1.582-.327-.382-.055.109-.055.218v.164l.164.109.055.109-.055.273v.218l.327.491.055.382.164.327.273.273.218.273.436.764.109.273.218.164.545.655.218.218.218.109.491.382.327.164.164.273.327.164.436.218.054.109v.164l.055.164.273.218.327.164.055.109.055.109.164-.055.164.055.491.382.218-.055h.164l.273-.109.164-.218-.055-.6-.273-.273-.382-.218-.218-.273-.218-.273-.436-.545-.6-.545-.273-.109-.164-.218-.164-.055-.109-.164-.273-.164-.164-.327-.327-.327-.055-.164.055-.164-.055-.164-.218-.164-.109-.273-.109-.164-.218-.109-.382-.218-.873-1.036-.382-.327-.382.109-.327-.218Zm-12-3.273.109-.218.055-.436-.109.218-.109.545Z" transform="translate(2089.546 -1610.95)" fill="#f2f2f2" stroke="#000" stroke-linejoin="round" stroke-width="0.545" fill-rule="evenodd"/>
    <path id="Solomon_Is." data-name="Solomon Is." d="M1041.31,352.576l-.109-.109-.054-.218h-.164l-.164.055.109.327h.109l.273-.055Zm-19.418.436-.055-.109-.273-.218-1.036-.709-.218-.055-.055.055-.055.164.055.109.273.055v.055l.164.109.382.109.218.164.055.273.164.055.164.055.218-.109Zm17.454-3.6v-.055l.109-.164-.109-.055-.273-.055-.382.055-.164.109-.109.164h-.109v.109l.054.218.109-.055.109.055.273-.273h.218l.273-.055Zm-13.309-1.255-.055-.109-.109-.055-.491-.382-.273-.109h-.273l-.055.273v.164h.327l.218.109v.327l.109.109v.273l.654.491.382.218.382.055.218.109.273-.055.273.109.218-.055-.218-.164v-.218l-.273-.709-.164-.164-.273.055-.273-.109h-.218l-.382-.164Zm-.218-2.673-.327-.873-.109-.055.055.327.054.218-.054.273-.055.327.109.109.109-.109.218.273v-.491Zm-5.345-1.2-.164-.055-.218.164-.055.164-.055.382v.218l.164.382.164.273.164.164.109.109.491.055.927.055.491.218.491.109.218-.055.273-.109.055-.055-.055-.327-.109-.164-.218-.109-.109-.327-.273-.218-.491-.382h-.873l-.327.055-.6-.545Zm1.418-.982-.273.109v.164l.218.055.218.109.055.164h0l.109-.055.218.109.109-.164-.218-.273-.218-.164h-.055l-.164-.055Zm-3.054.436.164-.109v-.218h-.164l-.055-.109h-.109l-.164.109-.109.164.055.109h.218l.109.055h.055Zm-4.582-1.255-.055-.109-.164-.109h-.109l-.273.055.055.055.327.164.164.055.055-.109Zm1.691.218.164-.109-.055-.109-.055-.273-.218.382.055.109Zm-.273-.491v-.218l-.109-.055.218-.164-.055-.055-.327-.109-.109.109-.109.055-.055.055-.055.055-.055.273.109.218.218.109.327-.273Zm-2.182.109-.164-.218.055-.273.109-.055.109-.273-.055-.218-.109.055-.382.327-.055.164.327.436.164.109v-.055Zm7.091-.709-.109-.218v-.109l-.164-.109-.109.055-.055.164.055.109.218.164.164-.055Zm3.273-.655h-.109l-.055.055h-.273l-.055.109.327.6-.164.273.218,1.2.218.655.436.436v.109l.436.273.327.709.109.055.055-.109v-.327l-.273-.6.055-.436-.109-.164v-.164l-.109-.436-.327-.382-.164-.055-.109-.164.109-.327.109-.109.055-.164-.709-1.036Zm-9.054-.273-.327-.109-.109-.164v-.545l-.327-.164-.164.109-.327.382-.109.218-.273.164-.055.164v.218l.218.055.164-.218.491-.055.164.055v.218l.055.382.164.164.273.109.218.327.055-.164h.109l.109-.218-.164-.655-.164-.273Zm-3.545-.218.055-.273-.055-.491-.109.055v.109l-.055.218.109.436Zm1.745-.218.109-.109v-.491l-.109-.218-.109-.109-.273.055-.218.273v.273l.218.327H1013Zm-1.418-.655.109-.164.273-.382.055-.164-.273-.109-.218-.273-.218-.109-.164.218v.218l.273.327-.055.218.109.055.055.218.055-.055Zm9.545,2.127-.055-.273-.164-.218.218-.273-1.2-1.036-.164-.109-.218-.055-.273-.218-.273-.055-.273-.218-.109-.164-.327-.218-.327-.436-.818-.164.055.109.218.218.055.382.273.218.273.327.109.055.109.109.218.273.436.218.436.327.164.055.164.164.818.382.273.382.382.273v-.055Zm-11.891-5.018.109-.164-.382-.273-.109.164-.109.273.218.109.273-.109Zm4.964.818-.055-.055h-.164l-.218-.109-.382-.436-.109-.164-.109-.545-.218-.218-.764-.436-.436-.436-.382-.109-.109.109v.273l.109.164.545.491.6.927.545.545.436.055h.218v.055l.055.109.273.109.273-.218-.109-.109Z" transform="translate(2089.546 -1610.95)" fill="#f2f2f2" stroke="#000" stroke-linejoin="round" stroke-width="0.545" fill-rule="evenodd"/>
  </g>
</svg>
