<svg xmlns="http://www.w3.org/2000/svg" width="143.616" height="235.741" viewBox="0 0 143.616 235.741">
  <g id="Group_131" data-name="Group 131" transform="translate(-1164.741 1213.918)">
    <path id="Argentina" d="M365.339,502.192l.491-1.636-3.982-.818-4.2-1.964-2.345-2.509-1.636-1.527,3.218,7.363h2.727l1.582.109,1.8,1.145,2.345-.164Zm-27.49-113.507-4.036-.818-2.182,3.109.491.873-.6,3.6-3.054,1.745.873,5.782-.491,1.091,1.091,1.364-1.745,2.182-1.418,3.218-.491,3.164.927,3.382-1.145,3.545,2.673,5.945.873.655.709,3.218-.873,3.382.764,2.945-1.582,2.345.818,3.218,1.8,3.436-1.364,1.309.164,3.109.382,3.491,1.8,4.145-.873.655,1.964,3.873,1.691,1.255-.436,1.418,1.527.709.709,1.255-.982.6.982,2.018.6,4.473-.382,2.891.982,1.745-.055,2.127-1.473,1.473,1.691,3.6,1.418,1.2,1.691-.218.982,2.509,1.909,1.964,6.545.436,2.618.491,1.2.218-2.564-1.964-2.236-3.436.491-1.582,1.909-1.364.273-3.927,2.564-1.909-.109-3.054-2.836-.709-3.491-2.454-.055-2.564,1.582-1.691,2.564-.055.109-1.8-.655-3.327,1.582-2.127,2.236-1.036-1.364-1.745-1.2,1.091-2.182-1.036-1.364-3.382.818-.873,3.054,1.255,2.727-.491,1.364-1.2-.982-1.691-.055-2.618-1.091-2.073,3.164.327,5.564-.709,3.764-1.855,1.8-4.527-.164-1.745-2.127-1.527-.055-2.454-4.254-3-.164-1.8-.218-2.291.491-.764-.6-3.436.164-3.545.273-2.782,3.218-4.691,2.891-3.382,1.8-1.418,2.291-1.909-.273-2.782-1.691-2.018-1.418.655-.164,3.109-2.345,2.618-2.291.6-3.382-.545-3.109-.982,2.291-5.236-.6-1.527-3.218-1.364-3.927-2.564-2.509-.545-6.109-5.673-.545-.709-3.436-.164-.873,2.782-2.018-2.509Z" transform="translate(881.546 -1481.95)" fill="#f2f2f2" stroke="#000" stroke-linejoin="round" stroke-width="0.545" fill-rule="evenodd"/>
    <path id="Bolivia" d="M357.648,382.084l.873-.709-.436-1.964.709-1.527.273-2.727-.873-2.182-1.745-.927-.436-1.418.327-1.964L350.5,368.5l-1.473-4.036.873-.055-.164-1.527-.655-.982-.273-2.018-1.8-1.036-1.909.055-1.364-1.036-2.073-.655-1.309-1.309-3.436-.545-3.491-3.109.164-2.345-.491-1.364.218-2.564-3.982.6-1.527,1.255-2.618,1.418-.6,1.036-1.582.109-2.291-.327,3,5.618-.6,1.145.055,2.455.164,2.945-1.036,1.745.655,1.309-.6,1.145,1.527,2.891-1.527,3.764,1.691,2.345.655,2.509,1.745,1.473-.6,3.382,2.018,3.873,1.691,4.8,2.073-.491,2.182-3.109,4.036.818,2.018,2.509.873-2.782,3.436.164.545.709.818-4.145-.109-1.855,1.145-3.054,5.182-1.036,2.782.055,2.945,1.8.164,1.036Z" transform="translate(881.546 -1481.95)" fill="#f2f2f2" stroke="#000" stroke-linejoin="round" stroke-width="0.545" fill-rule="evenodd"/>
    <path id="Brazil" d="M359.448,305.5l-.764.109-1.691-.273-.982.927-1.418.6-.927.109-.382.709-1.473-.164-1.909-1.636-.164-1.582-.764-1.8.545-2.945.873-1.2-.655-1.636-1.036-.491.436-1.527-.709-.818-1.582.164.382.982-1.145,1.309-3.491,1.309-2.182.545-.927.818-2.4-.873-2.291-.436-.545.327,1.309.873-.164,2.345.382,2.182,2.618.273.164.764-2.236.982-.382,1.473-1.255.545-2.291.818-.6,1.036-2.4.273-1.636-1.855-.6.436-.545-2.073-.873-1.091-1.036,1.2-5.945-.055v2.127l1.8.382-.109,1.309-.6-.327-1.745.545V312.7l1.364,1.309.491,1.964L319.9,317.5l-1.2,9.491-2.782-.164-.382.545-2.509.655-3.382,2.345-.218,1.636-.709,1.2.382,1.855-1.8,1.036.055,1.473-.818.6,1.418,3.164,1.8,2.073-.545,1.527,2.018.164,1.255,1.855,2.673.109,2.4-2.073.109,5.291,1.418.382,1.636-.6,2.291.327,1.582-.109.6-1.036,2.618-1.418,1.527-1.255,3.982-.6-.218,2.564.491,1.364-.164,2.345,3.491,3.109,3.436.545,1.309,1.309,2.073.655L345.1,358.9l1.909-.055,1.8,1.036.273,2.018.655.982.164,1.527-.873.055L350.5,368.5l5.836.164-.327,1.964.436,1.418,1.745.927.873,2.182-.273,2.727-.709,1.527.436,1.964-.873.709,1.036,1.964.218,4.691,3.273.655,1.145-.655,2.127.927.655,1.036.545,3.164.491,1.364,1.091.164,1.091-.6,1.145.655.164,1.909-.164,2.073-.382,1.964,1.418-.655,1.691,2.018.273,2.782-2.291,1.909-1.8,1.418-2.891,3.382-3.218,4.691,1.855-.382,3.382,2.673,1.036-.109,3.382,2.236,2.618,1.909,2.073,2.345-1.036,1.636,1.145,2.018,1.582-2.018.818-3.273,1.745-1.636,2.127-2.727,2.455-6.109,1.855-1.909.436-1.691.164-3.491-.709-1.909.164-2.618,2.236-3.436,3.273-2.782,3.273-.982L399.1,393.1l4.636-1.309h3.218l.6-2.073,2.291-1.527.327-3.545,2.782-4.527.273-4.636.873-1.418.164-2.236.6-5.4-.545-6.491.764-2.564.764-.055,2.127-3,1.8-3.927,4.2-4.8,1.473-2.291,1.091-5.727-.545-2.127-1.091-4.418-1.145-1.091-2.618-.109-2.345-1.036-3.982-3.873-4.582-2.891-4.582.164L399.7,320.34l-3.545,1.091.436-1.909-1.473-2.073-5.127-2.073-3.873-1.255-2.291,2.236-.164-3.436-5.4-.545-.927-1.091,2.291-2.836-.055-2.4-1.636-.545-1.636-6.109-.709-1.909-1.036.164-1.909,3.164-.982,2.564-1.145,1.309-1.473.273-.436-.982-.655-.164-.982.982-1.309-.709-1.745-.764-1.473.382-1.255-.327-.273.982.491.709-.273.709-1.691-.273Z" transform="translate(881.546 -1481.95)" fill="#f2f2f2" stroke="#000" stroke-linejoin="round" stroke-width="0.545" fill-rule="evenodd"/>
    <path id="Chile" d="M353.667,493.737l-2.018-.382-1.8,1.364.109,2.236-.655,1.527-3.927-1.2-4.691-2.182-2.455-.709,5.291,3.709,3.436,1.745,4.091,1.855,2.891.491,2.345.982,1.636.273,1.255.055,1.745-.982.273-1.309-1.582-.109h-2.727l-3.218-7.363Zm-25.8-107.071-2.018-3.873.6-3.382-1.745-1.473-.655-2.509-1.691-2.345-.655,1.8-1.473.873,1.145,4.909.818,5.673-.055,7.745v7.2l.491,6.709-1.036,4.254,1.145,4.254-.273,2.891,1.745,5.182-.055,5.182-.655,5.564-.327,5.727-1.145.109,1.309,3.982,1.8,3.436-.6,2.345,1.036,6.327.818,4.8,1.909.491-.6-4.2,2.182.873.982,6.927-3.491-1.145,1.091,5.564-1.473,3,4.473.982-1.855,2.618.109,3.273,2.727,5.782,2.291,2.236.109,1.964,1.8,2.073,4.091,1.909h0l4.036,2.291,3.382,1.091,1.091-.055-.982-3.109,1.855-1.2.927-.818h2.291l-2.618-.491-6.545-.436-1.909-1.964-.982-2.509-1.691.218-1.418-1.2-1.691-3.6,1.473-1.473.055-2.127-.982-1.745.382-2.891-.6-4.473-.982-2.018.982-.6-.709-1.255-1.527-.709.436-1.418-1.691-1.255-1.964-3.873.873-.655-1.8-4.145-.382-3.491-.164-3.109,1.364-1.309-1.8-3.436-.818-3.218,1.582-2.345-.764-2.945.873-3.382-.709-3.218-.873-.655-2.673-5.945,1.145-3.545-.927-3.382.491-3.164,1.418-3.218,1.745-2.182-1.091-1.364.491-1.091-.873-5.782,3.054-1.745.6-3.6-.491-.873-2.073.491-1.691-4.8Z" transform="translate(881.546 -1481.95)" fill="#f2f2f2" stroke="#000" stroke-linejoin="round" stroke-width="0.545" fill-rule="evenodd"/>
    <path id="Colombia" d="M315.431,271.2l.655-1.145-.709-.927-1.091-.218L312.7,270.6l-1.255.764L308.94,273.1l-2.345-.273-.273.709-1.964.055-1.8,1.636-.764,2.945-.055,1.145-1.309.382-2.4,2.4L296.45,282l-.382.491.6,2.073-.6,1.036-.982-.273-.491,1.691,1.2,1.855.327,2.945-.655.873.6,3.218-.655,2.018,1.091.818-1.2,1.8-1.364,2.182-1.527.218-.764,1.255.109,1.745-1.145.273.436,1.091,3.054,1.964.545-.055.764,1.473,2.564.491.873-.545,1.527,1.145,1.309.818.818-.327,2.018,1.636.982,1.636,1.473.927,1.855,3.655,2.291.436,1.636-.927,1.145.6,1.8-.327,2.4,1.636-1.909,3.545.927.055,1.582,1.855,1.2-9.491.055-1.527-.491-1.964L318.1,312.7v-2.509l1.745-.545.6.327.109-1.309-1.8-.382v-2.127l5.945.055,1.036-1.2.873,1.091.545,2.073.6-.436-.927-3.491-.764-1.2-1.091-.764,1.582-1.691-.109-.818-.818-1.036-.545-2.291.273-2.509.709-1.145.655-1.855-1.091-.6-1.745.382-2.182-.164-1.255.382-2.073-3-1.745-.436-3.927.327-.709-1.2-.709-.327-.109-.709.436-1.309-.218-1.364-.6-.764-.327-1.582-1.582-.273.982-2.018.491-2.454.982-1.309,1.2-.982.873-1.745,2.018-.6Z" transform="translate(881.546 -1481.95)" fill="#f2f2f2" stroke="#000" stroke-linejoin="round" stroke-width="0.545" fill-rule="evenodd"/>
    <path id="Ecuador" d="M301.686,312.595l-1.309-.818-1.527-1.145-.873.545-2.564-.491-.764-1.473-.545.055L291.05,307.3l-2.127,1.364-1.691.764.218,1.418-1.2,2.236-.545,2.127-1.036.545.545,3.164-.6.982,1.855,1.473,1.145-1.582.709,1.527-1.582,2.564.382,1.473-.818.818.109,1.255,1.255-.273,1.255.382,1.364,1.745,1.691-1.418.491-2.345,1.8-3,3.654-1.364,3.273-3.654.927-2.236Z" transform="translate(881.546 -1481.95)" fill="#f2f2f2" stroke="#000" stroke-linejoin="round" stroke-width="0.545" fill-rule="evenodd"/>
    <path id="Guyana" d="M357.867,291.377l-1.145-1.255-1.582-1.691-1.145-.055-.055-1.8-1.8-2.236-1.964-1.309-2.509,2.073-.327,1.255,1.036,1.255-.818.655-1.855.6v1.582l-.873.982,2.018,2.618,1.582-.164.709.818-.436,1.527,1.036.491.655,1.636-.873,1.2-.545,2.945.764,1.8.164,1.582,1.909,1.636,1.473.164.382-.709.927-.109,1.418-.6.982-.927,1.691.273.764-.109-1.8-3.054-.382-1.909-.982-.055-1.309-2.509.6-1.8-.164-.818,1.909-.873.545-3.109Z" transform="translate(881.546 -1481.95)" fill="#f2f2f2" stroke="#000" stroke-linejoin="round" stroke-width="0.545" fill-rule="evenodd"/>
    <path id="Peru" d="M318.7,326.994l-1.582-1.855-.927-.055,1.909-3.545-2.4-1.636-1.8.327-1.145-.6-1.636.927-2.291-.436-1.855-3.655-1.473-.927-.982-1.636-2.018-1.636-.818.327.436,2.673-.927,2.236-3.273,3.654-3.654,1.364-1.8,3-.491,2.345-1.691,1.418-1.364-1.745-1.255-.382-1.255.273-.109-1.255.818-.818-.382-1.473-2.4,2.182-.873,2.454,1.636,3.327-.927,1.527,2.236,1.418,2.454,2.236,1.091,2.564,1.309,1.582,3.273,6.927,3.382,6.382,2.945,4.582-.436.982,1.527,2.891,2.509,2.127,5.836,3.764,6.327,3.491.382,1.418,3.218,2.018,1.473-.873.655-1.8,1.527-3.764-1.527-2.891.6-1.145-.655-1.309,1.036-1.745-.164-2.945-.055-2.455.6-1.145-3-5.618-1.636.6-1.418-.382-.109-5.291-2.4,2.073-2.673-.109-1.255-1.855-2.018-.164.545-1.527-1.8-2.073-1.418-3.164.818-.6L307.3,336.1l1.8-1.036-.382-1.855.709-1.2.218-1.636,3.382-2.345,2.509-.655.382-.545,2.782.164Z" transform="translate(881.546 -1481.95)" fill="#f2f2f2" stroke="#000" stroke-linejoin="round" stroke-width="0.545" fill-rule="evenodd"/>
    <path id="Paraguay" d="M357.648,382.084l-.164-1.036-2.945-1.8-2.782-.055-5.182,1.036-1.145,3.054.109,1.855-.818,4.145,6.109,5.673,2.509.545,3.927,2.564,3.218,1.364.6,1.527-2.291,5.236,3.109.982,3.382.545,2.291-.6,2.345-2.618.164-3.109.382-1.964.164-2.073-.164-1.909-1.145-.655-1.091.6-1.091-.164-.491-1.364L366.1,390.7l-.655-1.036-2.127-.927-1.145.655-3.273-.655-.218-4.691-1.036-1.964Z" transform="translate(881.546 -1481.95)" fill="#f2f2f2" stroke="#000" stroke-linejoin="round" stroke-width="0.545" fill-rule="evenodd"/>
    <path id="Suriname" d="M364.357,291.159l-2.509.273-.327.6-3.654-.655-.545,3.109-1.909.873.164.818-.6,1.8,1.309,2.509.982.055.382,1.909,1.8,3.054,1.691.273.273-.709-.491-.709.273-.982,1.255.327,1.473-.382,1.745.764.764-1.473.327-1.582.545-1.527-1.145-2.018-.218-2.4,1.691-3-3.273-.927Z" transform="translate(881.546 -1481.95)" fill="#f2f2f2" stroke="#000" stroke-linejoin="round" stroke-width="0.545" fill-rule="evenodd"/>
    <path id="Uruguay" d="M377.721,429.265l-1.145-2.018,1.036-1.636-2.073-2.345-2.618-1.909-3.382-2.236-1.036.109-3.382-2.673-1.855.382-.273,2.782-.164,3.545.6,3.436-.491.764.218,2.291,2.127,1.909,1.964-.109,2.945,1.473,1.473-.327,2.291.655,2.891-1.909.873-2.182Z" transform="translate(881.546 -1481.95)" fill="#f2f2f2" stroke="#000" stroke-linejoin="round" stroke-width="0.545" fill-rule="evenodd"/>
    <path id="Venezuela" d="M350.176,283.032l-1.2-.818-1.582.109-.382-2.782-2.236-1.745-2.4-.218-.982-1.636,2.618-1.036-3.654.055-3.764.218-.109.873-1.745,1.036-2.291-.382-1.691-1.582-3.273.382-2.727-.055L324.7,274.3l-1.909-1.909-2.127-.055-.927-2.454-1.145,1.091.327,1.636-3.873,1.418v2.618l.873,1.2-.818,2.509-1.309.218-1.036-2.727,1.473-2.018.164-1.8-.927-1.582,1.8-.436.164-.818-2.018.6-.873,1.745-1.2.982-.982,1.309-.491,2.454-.982,2.018,1.582.273.327,1.582.6.764.218,1.364-.436,1.309.109.709.709.327.709,1.2,3.927-.327,1.745.436,2.073,3,1.255-.382,2.182.164,1.745-.382,1.091.6-.655,1.855-.709,1.145-.273,2.509.545,2.291.818,1.036.109.818-1.582,1.691,1.091.764.764,1.2.927,3.491,1.636,1.855,2.4-.273.6-1.036,2.291-.818,1.255-.545.382-1.473,2.236-.982-.164-.764-2.618-.273-.382-2.182.164-2.345-1.309-.873.545-.327,2.291.436,2.4.873.927-.818,2.182-.545,3.491-1.309,1.145-1.309-.382-.982-2.018-2.618.873-.982v-1.582l1.855-.6.818-.655-1.036-1.255.327-1.255,2.509-2.073Z" transform="translate(881.546 -1481.95)" fill="#f2f2f2" stroke="#000" stroke-linejoin="round" stroke-width="0.545" fill-rule="evenodd"/>
    <path id="French_Guiana" data-name="French Guiana" d="M371.666,303.377l.982-2.564,1.909-3.164-.491-1.418-3.164-2.945-2.236-.818-1.036-.382-1.691,3,.218,2.4L367.3,299.5l-.545,1.473-.327,1.582-.764,1.527,1.309.709.982-.982.655.164.436.982,1.473-.273Z" transform="translate(881.546 -1481.95)" fill="#f2f2f2" stroke="#000" stroke-linejoin="round" stroke-width="0.545" fill-rule="evenodd"/>
    <path id="Aruba" d="M319.958,268.85l-.055-.055-.164-.327-.164-.164-.055.055-.055.164.164.164.164.218.164.055v-.109Z" transform="translate(881.546 -1481.95)" fill="#f2f2f2" stroke="#000" stroke-linejoin="round" stroke-width="0.545" fill-rule="evenodd"/>
    <path id="Falkland_Is." data-name="Falkland Is." d="M376.521,492.374l-.055-.164-.218-.109-.109-.055.055.109.055.164.055.109.109.055.109-.109Zm3-.709-.055-.055h-.109l-.055.109.109.164.218.055-.109-.273Zm-7.036-.764-.055.109-.218.055.109.164.327.218h.218l.055-.164-.055-.327H372.7l-.218-.055Zm1.527-1.091-.491-.164-.218-.164h-.164l.218.218.055.109.055.109.327.164.327.164.218.164-.055.055-.436.164h-.164l-.109.055.218.109.327-.055.109-.055h.109l.164.055v.109l-.055.109-.109.109-.218.164-.327.218h-.436l-.382.382.491.273.382.164h.491v-.055l.109-.055h.164l.055-.055.109-.218v-.327h.109l.164.055.382-.055.164-.055.327-.491.218-.436.109-.218.164-.109.055-.109.055-.164.164-.109V489.7l-.218-.109-.164-.109-.164.164-.109-.055-.491.164h-.218l-.164-.109-.218-.055-.218.055-.273.273-.436-.109Zm.382-.218.055-.164-.055-.109-.273-.109h-.273l.109.273.109.109Zm3.218-.382h-.218l.218.273-.436.436.109.327.164.218.055.109-.055.055-.218.055-.164.055-.109.164-.491.491.109.109-.164.382.109.164.436.382.436.218v-.382l.218-.055.218.109.218-.109-.491-.545h.164l1.364.273-.055-.218-.055-.109-.164-.218.818-.218.273-.164.109-.164.327-.055.436-.164-.055-.055.055-.164-.218-.109-.273-.055.055-.164.273-.055-.436-.382-.164-.055-.545.055-.164.055v.109l.055.164.164.164.055.109-.109-.055-.6-.218-.109-.055-.109-.218.109-.055.164.055.055-.164-.218-.164-.218-.055-.491.055-.436-.164Z" transform="translate(881.546 -1481.95)" fill="#f2f2f2" stroke="#000" stroke-linejoin="round" stroke-width="0.545" fill-rule="evenodd"/>
    <path id="Grenada" d="M344.776,270.377l.273-.109.109-.6-.164-.055-.164.164-.164.273v.218l-.109.164.218-.055Z" transform="translate(881.546 -1481.95)" fill="#f2f2f2" stroke="#000" stroke-linejoin="round" stroke-width="0.545" fill-rule="evenodd"/>
    <path id="Trinidad_and_Tobago" data-name="Trinidad and Tobago" d="M346.576,276.923l.055-.109v-.327l.109-.218-.109-.218-.055-.327.055-.273v-.382l.109-.164.273-.436h-.491l-.327.109-.6.055-.273.109-.382.055-.218.109.055.055.273.109.109.109.055.109.055.218-.164.927-.055.055-.327.055-.109.164-.764.436.436-.055.491.055,1.309-.055.491-.164Zm.982-3.655.655-.273.055-.218h-.109l-.436.164-.327.273v.109Z" transform="translate(881.546 -1481.95)" fill="#f2f2f2" stroke="#000" stroke-linejoin="round" stroke-width="0.545" fill-rule="evenodd"/>
    <path id="Curaco" d="M325.031,269.941v-.327l-.491-.218v.164l.055.109.164.055.055.109-.055.327.109.164.164-.382Z" transform="translate(881.546 -1481.95)" fill="#f2f2f2" stroke="#000" stroke-linejoin="round" stroke-width="0.545" fill-rule="evenodd"/>
  </g>
</svg>
