<svg xmlns="http://www.w3.org/2000/svg" width="61.062" height="62.004" viewBox="0 0 61.062 62.004">
  <g id="operating-system" transform="translate(-1.469 -0.998)">
    <path d="M12.2,29.2,9,26,6.194,28.806A26,26,0,0,1,58,32h3l-6,6-6-6h3a20,20,0,0,0-39.8-2.8Z" fill="#f0ae42"/>
    <path d="M57.806,35.194A26,26,0,0,1,6,32H3l6-6,6,6H12a20,20,0,0,0,39.805,2.8L55,38Z" fill="#b52f28"/>
    <path d="M3.43,26.222l-1.961-.4c.136-.671.3-1.351.483-2.021l1.928.53c-.172.629-.323,1.269-.45,1.891Zm57.132-.043c-.127-.625-.281-1.261-.454-1.887l1.928-.533c.186.67.349,1.35.485,2.02Zm-56.1-3.7-1.892-.66c.23-.656.483-1.309.751-1.939l1.84.787c-.252.588-.488,1.2-.7,1.811ZM59.53,22.44c-.214-.608-.451-1.216-.7-1.809l1.838-.787c.272.633.525,1.283.753,1.933ZM5.984,18.905,4.2,18c.316-.619.653-1.231,1.006-1.82L6.924,17.2C6.594,17.755,6.278,18.327,5.984,18.905ZM58,18.873c-.291-.569-.607-1.14-.94-1.7l1.714-1.029c.358.6.7,1.207,1.007,1.817ZM7.977,15.57,6.332,14.433c.39-.563.806-1.124,1.239-1.668L9.136,14.01c-.406.51-.8,1.034-1.159,1.56Zm48.029-.026c-.368-.53-.759-1.054-1.16-1.558l1.562-1.248c.43.539.848,1.1,1.24,1.665ZM10.4,12.531,8.918,11.184c.464-.509.951-1.01,1.447-1.487l1.387,1.442q-.7.672-1.352,1.392Zm43.187-.022q-.655-.719-1.357-1.392l1.38-1.443c.494.473.981.973,1.45,1.485ZM13.2,9.839,11.91,8.308c.527-.443,1.076-.874,1.632-1.282L14.726,8.64Q13.941,9.213,13.2,9.839Zm37.58-.02q-.745-.626-1.53-1.2L50.432,7c.554.407,1.1.837,1.633,1.282ZM16.329,7.543,15.257,5.855c.58-.368,1.18-.723,1.786-1.053L18,6.557q-.85.467-1.671.986Zm31.314-.018q-.821-.519-1.677-.986l.957-1.757c.6.329,1.2.683,1.79,1.053ZM19.736,5.684,18.9,3.867c.628-.289,1.272-.561,1.913-.806l.714,1.867Q20.617,5.278,19.736,5.684Zm24.493-.017c-.588-.271-1.191-.524-1.792-.753l.712-1.869c.643.245,1.288.516,1.916.806ZM23.36,4.3l-.589-1.911c.663-.2,1.337-.388,2-.545l.459,1.947c-.62.142-1.25.309-1.87.509ZM40.6,4.282Q39.671,4,38.722,3.775l.457-1.947c.665.156,1.34.338,2,.542ZM27.139,3.4l-.33-1.972c.675-.113,1.367-.205,2.056-.274l.2,1.99Q28.092,3.241,27.139,3.4Zm9.677-.008c-.634-.1-1.283-.19-1.925-.253l.193-1.99c.687.067,1.381.158,2.059.27ZM31,3.017l-.067-2c.69-.024,1.385-.024,2.076,0l-.063,2C32.3,3,31.647,3,31,3.017Z" fill="#ccc"/>
    <path d="M32.075,63c-.366-.005-.726,0-1.09-.017l.067-2c.34.011.683.019,1.02.015.311,0,.617-.006.923-.016l.068,2c-.328.012-.658.018-.988.018Zm-3.159-.15c-.681-.067-1.373-.158-2.059-.271l.327-1.973c.634.1,1.277.19,1.925.253Zm6.218-.005-.2-1.991c.647-.064,1.29-.15,1.925-.255l.328,1.972c-.681.115-1.374.206-2.053.274ZM24.82,62.173c-.672-.158-1.345-.341-2-.542l.584-1.912q.928.282,1.878.507Zm14.406-.012-.461-1.945c.633-.151,1.258-.32,1.876-.511l.588,1.912c-.656.2-1.329.383-2,.544Zm-18.375-1.2c-.647-.247-1.291-.518-1.916-.806l.836-1.816c.586.27,1.185.521,1.792.753Zm22.337-.017-.712-1.869c.6-.227,1.2-.481,1.787-.754l.84,1.817c-.631.286-1.276.562-1.915.8ZM17.077,59.217c-.608-.331-1.211-.686-1.79-1.053l1.07-1.689q.821.519,1.677.986Zm29.88-.018L46,57.443q.852-.465,1.673-.986l1.072,1.688c-.586.371-1.186.725-1.788,1.055ZM13.571,57q-.837-.614-1.633-1.28l1.284-1.533q.745.624,1.531,1.2Zm36.887-.021-1.184-1.612q.784-.574,1.529-1.2L52.09,55.7c-.526.436-1.075.867-1.632,1.276ZM10.39,54.326c-.5-.476-.985-.976-1.45-1.485l1.477-1.35q.655.72,1.357,1.392ZM53.636,54.3l-1.389-1.44q.7-.675,1.357-1.394l1.478,1.347C54.62,53.322,54.134,53.822,53.636,54.3ZM7.592,51.262c-.435-.544-.852-1.1-1.241-1.667L8,48.456c.363.525.753,1.049,1.159,1.558Zm48.837-.027-1.565-1.246c.4-.508.794-1.032,1.159-1.559l1.645,1.138c-.391.564-.808,1.125-1.239,1.667Zm-51.2-3.382c-.358-.6-.7-1.207-1.007-1.818L6,45.127c.291.569.607,1.141.94,1.7Zm53.566-.031L57.076,46.8c.33-.55.646-1.122.94-1.7L59.8,46c-.317.621-.654,1.233-1.007,1.822ZM3.339,44.157c-.271-.632-.525-1.281-.753-1.931l1.887-.664q.321.918.7,1.808Zm57.34-.037-1.84-.785c.253-.592.489-1.2.7-1.813l1.889.661C61.2,42.835,60.949,43.487,60.679,44.12ZM1.965,40.241c-.186-.671-.349-1.35-.486-2.02l1.959-.4c.128.626.281,1.261.455,1.888ZM62.048,40.2l-1.928-.529c.172-.629.324-1.265.45-1.889l1.961.4c-.131.662-.3,1.342-.483,2.018Z" fill="#ccc"/>
    <path d="M25.234,3.786l-.459-1.947c-.667.157-1.341.341-2,.545L23.36,4.3c.62-.2,1.25-.367,1.874-.514Z"/>
    <path d="M29.064,3.145l-.2-1.99c-.689.069-1.381.161-2.056.274l.33,1.972Q28.092,3.242,29.064,3.145Z"/>
    <path d="M32.95,3.015l.063-2c-.691-.022-1.386-.022-2.076,0l.067,2C31.647,3,32.3,3,32.95,3.015Z"/>
    <path d="M37.143,1.42c-.678-.112-1.372-.2-2.059-.27l-.193,1.99c.642.063,1.291.148,1.925.253Z"/>
    <path d="M21.525,4.928l-.714-1.867c-.641.245-1.285.517-1.913.806l.838,1.817c.586-.271,1.184-.523,1.789-.756Z"/>
    <path d="M3.88,24.334,1.952,23.8c-.184.67-.347,1.35-.483,2.021l1.961.4C3.557,25.6,3.708,24.96,3.88,24.334Z"/>
    <path d="M6.924,17.2,5.207,16.178c-.353.589-.69,1.2-1.006,1.82l1.783.907C6.278,18.327,6.594,17.755,6.924,17.2Z"/>
    <path d="M18,6.557,17.043,4.8c-.606.33-1.206.685-1.786,1.053l1.072,1.688q.819-.517,1.671-.984Z"/>
    <path d="M11.752,11.139,10.365,9.7c-.5.477-.983.978-1.447,1.487L10.4,12.531Q11.052,11.813,11.752,11.139Z"/>
    <path d="M9.136,14.01,7.571,12.765c-.433.544-.849,1.1-1.239,1.668L7.977,15.57C8.341,15.044,8.73,14.52,9.136,14.01Z"/>
    <path d="M5.161,20.667l-1.84-.787c-.268.63-.521,1.283-.751,1.939l1.889.659c.214-.614.45-1.223.7-1.811Z"/>
    <path d="M59.527,22.439l1.887-.663c-.228-.65-.481-1.3-.753-1.933l-1.838.787C59.076,21.223,59.313,21.831,59.527,22.439Z"/>
    <path d="M56.006,15.544,57.648,14.4c-.392-.566-.81-1.126-1.24-1.665l-1.562,1.248c.4.507.792,1.031,1.16,1.561Z"/>
    <path d="M14.726,8.64,13.542,7.026c-.556.408-1.1.839-1.632,1.282L13.2,9.839Q13.94,9.215,14.726,8.64Z"/>
    <path d="M58,18.873l1.781-.909c-.31-.61-.649-1.22-1.007-1.817L57.06,17.176c.332.557.648,1.124.94,1.7Z"/>
    <path d="M41.183,2.37c-.664-.2-1.339-.386-2-.542l-.457,1.947q.949.222,1.877.507Z"/>
    <path d="M60.562,26.179l1.959-.4c-.136-.67-.3-1.35-.485-2.02l-1.928.533c.173.626.327,1.262.454,1.887Z"/>
    <path d="M45.065,3.851c-.628-.29-1.273-.561-1.916-.806l-.712,1.869c.6.229,1.2.482,1.792.753Z"/>
    <path d="M48.713,5.835c-.585-.37-1.188-.724-1.79-1.053l-.957,1.757q.855.466,1.677.986Z"/>
    <path d="M55.06,11.159c-.469-.512-.956-1.012-1.45-1.485l-1.384,1.443q.7.674,1.357,1.392Z"/>
    <path d="M52.062,8.287c-.529-.445-1.079-.875-1.633-1.282L49.247,8.62q.786.573,1.53,1.2Z"/>
    <path d="M11.938,55.714q.8.664,1.633,1.28l1.182-1.613q-.786-.576-1.531-1.2Z"/>
    <path d="M46,57.443l.959,1.756c.6-.329,1.2-.683,1.786-1.054l-1.072-1.688Q46.852,56.978,46,57.443Z"/>
    <path d="M42.476,59.07l.712,1.869c.639-.244,1.284-.515,1.915-.806l-.84-1.817c-.589.273-1.191.527-1.787.754Z"/>
    <path d="M34.937,60.854l.2,1.991c.679-.068,1.372-.159,2.056-.274L36.862,60.6c-.635.1-1.278.19-1.925.254Z"/>
    <path d="M49.274,55.361l1.184,1.612c.557-.409,1.106-.84,1.632-1.282L50.8,54.16Q50.059,54.786,49.274,55.361Z"/>
    <path d="M38.765,60.216l.461,1.945c.673-.159,1.347-.343,2-.544l-.588-1.912c-.615.195-1.238.36-1.873.511Z"/>
    <path d="M60.12,39.667l1.928.529c.185-.672.348-1.352.483-2.021l-1.961-.4c-.126.625-.278,1.263-.45,1.892Z"/>
    <path d="M32.072,61c-.337,0-.68,0-1.02-.015l-.067,2c.364.013.724.012,1.09.017.33,0,.66-.006.988-.018l-.068-2c-.306.01-.612.016-.923.016Z"/>
    <path d="M58.839,43.335l1.84.785c.27-.633.522-1.285.751-1.937l-1.889-.661C59.328,42.134,59.092,42.743,58.839,43.335Z"/>
    <path d="M54.864,49.989l1.565,1.246c.431-.542.848-1.1,1.239-1.667L56.023,48.43c-.365.527-.754,1.051-1.159,1.559Z"/>
    <path d="M52.247,52.863l1.389,1.44c.5-.481.984-.981,1.446-1.487L53.6,51.469Q52.949,52.188,52.247,52.863Z"/>
    <path d="M57.076,46.8l1.717,1.027c.353-.589.69-1.2,1.006-1.82L58.016,45.1C57.722,45.673,57.406,46.245,57.076,46.8Z"/>
    <path d="M8,48.456,6.351,49.6c.389.562.806,1.123,1.241,1.667l1.562-1.248C8.748,49.505,8.358,48.981,8,48.456Z"/>
    <path d="M8.94,52.841c.465.509.953,1.009,1.45,1.485l1.384-1.443q-.7-.672-1.357-1.392Z"/>
    <path d="M3.438,37.82l-1.959.4c.137.67.3,1.349.486,2.02l1.928-.533C3.719,39.081,3.566,38.446,3.438,37.82Z"/>
    <path d="M6,45.127l-1.781.908c.31.611.649,1.222,1.007,1.818l1.714-1.03c-.332-.555-.648-1.123-.94-1.7Z"/>
    <path d="M4.473,41.562l-1.887.664c.228.65.482,1.3.753,1.931l1.838-.787q-.377-.889-.7-1.808Z"/>
    <path d="M18.935,60.15c.625.288,1.269.559,1.916.806l.712-1.869c-.607-.232-1.206-.483-1.792-.753Z"/>
    <path d="M22.817,61.631c.658.2,1.331.384,2,.542l.459-1.947Q24.33,60,23.4,59.719Z"/>
    <path d="M15.287,58.164c.579.367,1.182.722,1.79,1.053l.957-1.756q-.855-.466-1.677-.986Z"/>
    <path d="M26.857,62.579c.686.113,1.378.2,2.059.271l.193-1.991c-.648-.063-1.291-.148-1.925-.253Z"/>
    <path d="M61,31H58.981A27,27,0,0,0,5.254,28.332L2.293,31.293A1,1,0,0,0,3,33H5.019a27,27,0,0,0,53.727,2.668l2.961-2.961A1,1,0,0,0,61,31ZM32,7A25.028,25.028,0,0,1,57,32a1,1,0,0,0,1,1h.586L55,36.586,51.414,33H52a1,1,0,0,0,1-1,21,21,0,0,0-41.436-4.85L9.707,25.293a1,1,0,0,0-1.414,0l-.489.489A25.007,25.007,0,0,1,32,7ZM15,33a1,1,0,0,0,.707-1.707l-2.432-2.432A18.992,18.992,0,0,1,50.974,31H49a1,1,0,0,0-.707,1.707l2.432,2.432A18.992,18.992,0,0,1,13.026,33ZM32,57A25.028,25.028,0,0,1,7,32a1,1,0,0,0-1-1H5.414L9,27.414,12.586,31H12a1,1,0,0,0-1,1,21,21,0,0,0,41.436,4.85l1.857,1.857a1,1,0,0,0,1.414,0l.49-.489A25.008,25.008,0,0,1,32,57Z"/>
  </g>
</svg>
