<svg id="Capa_1" enable-background="new 0 0 512 512" height="512" viewBox="0 0 512 512" width="512" xmlns="http://www.w3.org/2000/svg"><g><path d="m290.41 440.72-43.991-147.141-160.794-57.644-70.015 70.016c-20.813 20.813-20.813 54.559 0 75.372l103.675 103.675c8.105 8.105 19.097 12.658 30.558 12.658h65.731c11.462 0 22.454-4.553 30.558-12.658z" fill="#c5f4fc"/><path d="m61.903 427.616-46.293-46.292c-20.816-20.816-20.808-54.564 0-75.373l70.021-70.021 46.293 46.293-70.021 70.021c-20.809 20.808-20.816 54.556 0 75.372z" fill="#7dddfa"/><path d="m501.161 210.047-184.863-184.863c-14.452-14.452-37.882-14.452-52.334 0l-168.378 168.378c-14.452 14.452-14.452 37.882 0 52.334l184.863 184.863c14.452 14.452 37.882 14.452 52.334 0l168.378-168.378c14.452-14.452 14.452-37.882 0-52.334z" fill="#e696a6"/><path d="m138.056 288.366-42.468-42.468c-14.453-14.453-14.453-37.884 0-52.337l168.377-168.377c14.453-14.453 37.884-14.453 52.337 0l42.468 42.468c-14.445-14.445-37.877-14.445-52.329.008l-168.377 168.377c-14.452 14.453-14.453 37.884-.008 52.329z" fill="#e17888"/></g></svg>