<svg xmlns="http://www.w3.org/2000/svg" width="44.001" height="45" viewBox="0 0 44.001 45">
    <path d="M22,45a1,1,0,0,1-1-1V42a1,1,0,0,1,2,0v2A1,1,0,0,1,22,45Z" fill="#464f5d"/>
    <path d="M28,45a1,1,0,0,1-1-1V42a1,1,0,0,1,2,0v2A1,1,0,0,1,28,45Z" fill="#464f5d"/>
    <path d="M9,6a1,1,0,0,1-.625-.219l-5-4A1,1,0,0,1,4.625.219l5,4A1,1,0,0,1,9,6Z" fill="#f3d55b"/>
    <path d="M41,6a1,1,0,0,1-.625-1.781l5-4a1,1,0,0,1,1.25,1.562l-5,4A1,1,0,0,1,41,6Z" fill="#f3d55b"/>
    <path d="M4,35a1,1,0,0,1-.625-1.781l5-4a1,1,0,0,1,1.25,1.562l-5,4A1,1,0,0,1,4,35Z" fill="#f3d55b"/>
    <path d="M46,35a1,1,0,0,1-.625-.219l-5-4a1,1,0,0,1,1.25-1.562l5,4A1,1,0,0,1,46,35Z" fill="#f3d55b"/>
    <path d="M7,17H4a1,1,0,0,1,0-2H7a1,1,0,0,1,0,2Z" fill="#f3d55b"/>
    <path d="M46,17H43a1,1,0,0,1,0-2h3a1,1,0,0,1,0,2Z" fill="#f3d55b"/>
    <path d="M31,33v6a3,3,0,0,1-3,3H22a3,3,0,0,1-3-3V33Z" fill="#95a5a5"/>
    <path d="M39,14a13.932,13.932,0,0,1-4.44,10.21A11.649,11.649,0,0,0,31,32.77V35H19V32.94a12.064,12.064,0,0,0-3.62-8.79A13.989,13.989,0,1,1,39,14Z" fill="#f0c419"/>
    <path d="M23,32a1,1,0,0,1-1-1V28a1,1,0,0,1,2,0v3A1,1,0,0,1,23,32Z" fill="#f29c1f"/>
    <path d="M23,24a1,1,0,0,1-1-1V22a1,1,0,0,1,2,0v1A1,1,0,0,1,23,24Z" fill="#f29c1f"/>
    <path d="M27,32a1,1,0,0,1-1-1V28a1,1,0,0,1,2,0v3A1,1,0,0,1,27,32Z" fill="#f29c1f"/>
    <path d="M27,24a1,1,0,0,1-1-1V22a1,1,0,0,1,2,0v1A1,1,0,0,1,27,24Z" fill="#f29c1f"/>
    <path d="M16,12a.976.976,0,0,1-.192-.019,1,1,0,0,1-.79-1.171c.925-4.761,5.41-6.657,5.6-6.735a1,1,0,1,1,.763,1.849c-.038.015-3.685,1.583-4.4,5.266A1,1,0,0,1,16,12Z" fill="#f9eab0"/>
</svg>